<mxfile host="65bd71144e">
    <diagram id="llMuC3abwOM24DupUZhH" name="Page-1">
        <mxGraphModel dx="2760" dy="1356" grid="0" gridSize="10" guides="1" tooltips="1" connect="1" arrows="1" fold="1" page="1" pageScale="1" pageWidth="1654" pageHeight="2336" background="none" math="0" shadow="0">
            <root>
                <mxCell id="0"/>
                <mxCell id="1" parent="0"/>
                <mxCell id="5" value="" style="shape=image;verticalLabelPosition=bottom;labelBackgroundColor=default;verticalAlign=top;aspect=fixed;imageAspect=0;image=data:image/jpeg,/9j/4AAQSkZJRgABAQAAAQABAAD/4gKgSUNDX1BST0ZJTEUAAQEAAAKQbGNtcwQwAABtbnRyUkdCIFhZWiAAAAAAAAAAAAAAAABhY3NwQVBQTAAAAAAAAAAAAAAAAAAAAAAAAAAAAAAAAAAA9tYAAQAAAADTLWxjbXMAAAAAAAAAAAAAAAAAAAAAAAAAAAAAAAAAAAAAAAAAAAAAAAAAAAAAAAAAAAAAAAtkZXNjAAABCAAAADhjcHJ0AAABQAAAAE53dHB0AAABkAAAABRjaGFkAAABpAAAACxyWFlaAAAB0AAAABRiWFlaAAAB5AAAABRnWFlaAAAB+AAAABRyVFJDAAACDAAAACBnVFJDAAACLAAAACBiVFJDAAACTAAAACBjaHJtAAACbAAAACRtbHVjAAAAAAAAAAEAAAAMZW5VUwAAABwAAAAcAHMAUgBHAEIAIABiAHUAaQBsAHQALQBpAG4AAG1sdWMAAAAAAAAAAQAAAAxlblVTAAAAMgAAABwATgBvACAAYwBvAHAAeQByAGkAZwBoAHQALAAgAHUAcwBlACAAZgByAGUAZQBsAHkAAAAAWFlaIAAAAAAAAPbWAAEAAAAA0y1zZjMyAAAAAAABDEoAAAXj///zKgAAB5sAAP2H///7ov///aMAAAPYAADAlFhZWiAAAAAAAABvlAAAOO4AAAOQWFlaIAAAAAAAACSdAAAPgwAAtr5YWVogAAAAAAAAYqUAALeQAAAY3nBhcmEAAAAAAAMAAAACZmYAAPKnAAANWQAAE9AAAApbcGFyYQAAAAAAAwAAAAJmZgAA8qcAAA1ZAAAT0AAACltwYXJhAAAAAAADAAAAAmZmAADypwAADVkAABPQAAAKW2Nocm0AAAAAAAMAAAAAo9cAAFR7AABMzQAAmZoAACZmAAAPXP/bAEMABQMEBAQDBQQEBAUFBQYHDAgHBwcHDwsLCQwRDxISEQ8RERMWHBcTFBoVEREYIRgaHR0fHx8TFyIkIh4kHB4fHv/bAEMBBQUFBwYHDggIDh4UERQeHh4eHh4eHh4eHh4eHh4eHh4eHh4eHh4eHh4eHh4eHh4eHh4eHh4eHh4eHh4eHh4eHv/CABEIAZABkAMBIgACEQEDEQH/xAAbAAABBQEBAAAAAAAAAAAAAAABAAIDBAUGB//EABkBAQADAQEAAAAAAAAAAAAAAAABAgMEBf/aAAwDAQACEAMQAAABupy9nyQHIanIanAQKkEUBFICKAigIoCKAHIanIAcgIoAcgIgSKAikhFARSAigIoCKAiRIqsgpCSQklIIkaikBOAEUBFARQEUBFASIEUBFARQA5ARQEUBEjU4jU4jFICNPQ0lwxFVkIoCKAigIoCKkEQJJCSSEkQJISKAikgOQEUNTkNJQEUBOI1xfBhUpEY8LDXdNbDzt06mHZhGYsvl21EVvkEUBEyaigIpARAASlquVolqRmoRQEUBFSCKAioBFSSKAioApBcHmLYFLg6qs21zfPttUOd3sbXKtbLw1752VZ9XhoSRZnB1dlfqM9fkja8aZNSKQpooAFWqCFDXt86/Dp2YsczN6kDrgk6aYrgq1AUgIoCKAUhIoCKAihOaYlubrS46c7fv0eXfns/pxy61Mbps6LU6Gtb1rHi6Dqz20Q0/S5ssXJUZg0lE1HX7eOvNz6OvE8xW65tZ5JdRQ2zyJLzb1zjrBGW+1UtW/DWUWeFoRbOdpRROUd1qMcb9MyyXbYMD2oD2mLBzpItpxp/F2cE/pMDktXu7HT7xyOrp0onhLGnzladLmSQzXO18wejTsdfzc529EfxOhavSsxbELjE2tg+qLVsPqRkshjmDXneUrkM0xPSfCS286cLJZq2ie+rEtiVrTOB9pkSq8j4QttMk2zUFbSvqOmLlWwaWEmLdg2lFQ4trGUL/ACXy+x5F29XtY71+dwlhAU6YktZxtTdv8tPLs1y2hS2oacyrkp4Qiy6tqqtti1RmjGinPOYmnDaNq123YQKwyt6pmtFBtqG1IlO2YZHdMTRknfMGCticm0tDb5/i004M+5leJXsGLSzRV7xM6sfb5bMtV6JWh1oaXiYRaRxa4NioZjXkxJr113VZbVeoUiaWu2GgaMVb9AOedEblnmpYnqa+AaX6FuDIbcWU2a7jMlsNN+UZbDcl8H4GlR8vqgqW63FoH0Ypm8yxhTa5ki5pXZovZ6/NZkquDJE+0SFkiAnulEUpglomJGh0w65RNo0Js6W1bwhktDkRMBFqHBIBRS0PQx6CC4OQXxshO+CWJq19J/H0c9S6rI5NJa+1lcmsVQKyKBP0kKan6GFi3Ucm3BIoNZNXvEslaaYL43jXixCuXttALTMOdGZiSas6YvS5r7V0hBc0zhM4msJkEmFxGJzQpqHFpJHRKJfnYud53ftScu3LXq7Xnm1xzoU9SlFYrd293Z4MbjtUF0cw96ILVadN6nKaWqveNKQuZLMSp0cWkhjdaJGSOInNE1kmiuTDHwyXoyzI2+ZCGlEi0KaQppHllTO2hi6eTz9HPQdn0vler5N1HZQZdPnmX1/C9PFudT5l6v3cEpqz78+QZWcHoXKBlM4yLXOCwNuGDK6HSsj2nXOCW07TOMvVqxKVIjc9SjkKE4IcWMqljqN8/p1RGfT5Hppk4IgJq0mbJfV8vr0rnObtNvQbNAeZ75y82jetvh+sxerj4z0HB0duSZUI8sd5GLovWWtQtUuoutVkzzMMrzSaUmej2cgKICiNJQkShqRAkRV7EXNpnQmp5Hds3s7R9nhcg3arklMOUdDC9GGbD8Xu3dvmdrSLFqt1GPr8Pp6jS5x2viXpQ0ci3ryxybOXhnHoCb2+BkEstJqvtLXMxSuKk8yvQFG0JIwJCkkUAlATkNJRk2hQ8jslzOhy89GaWWO3n6Nod0USkhtDuf26vndFOF8XDvNI2vSOmqYVPbsmj0NbSebW7ws5a2nmad626UtHCnQuMfsedKatrm1Kce/naSgJyQE5SBJSCUgIoQIEQgpUsbjMsweR3Q2qd5It5r7NSFkusX4pKXXzwV7Enl9lStPFWIRYqVoRFPaerbx+Rfq0+Y1r3Ty2AyOWiswzXr4K7LYTObUNl1S124Eg3hFoRIYymRMcJECQQSEEgwGbfred1Z73t4t02N14khtVs9rSgg2rtw2cPfK8Kdnl1rGZmcV8/TZFW28+5MWc19XrMYK+sSV2xDnwvR19eWvwy+/mz9WU1qo7ryuOB6ciEREEBTM7SBy0q0lATkNJpY6MfWg8vqvw3KuW0U1a5LOs1nzD20ZtY1qteW9LDq9bC9jMu1qybVUa0RgZ0HiKpMKnXhiJpqFssuaZdXDowebdhzdTsyfda70uVxhhxvcUZ6c3ppmHULFfi3uSMXZg5NMS6vNQ5NrioOzuWufxdDxFPW1ONzLzeOdcRhSS3NK1rtztGnGT+knl6+I3tes1PnXe09I8gj0MDt8uekIJq1pCE9khPFJGeiVKawmMSx7U07GJJpXQkx3Q6RYJ6ct0Ykhfz21uTbo5MRduG1Tzm8O1qlXdz6t6DntXpzlUI5NbcVOzE3KMj72bDZzJi92ODLXq9CbzGhy9msyhj16NSpm1due1m0bGmObxHdcPvxxh0euBaBAlhRdMc8qZaqWeY0TS1UXDUbK8aCNE5yNA5pNFZqNIZyNM5amNU5KNc5CNpYxNt+EZbxwUdAefMT08PPml+1n4M5b+hV+Eajp+fgWmVV1hXyqC2htphLCgMpzXRQXQqmnPHoAYI3wc+d9I59b6MA7qMJbjTFOwwylalRQV+ZOUNVpmuvooG6SirqKatgqmwiu6UkQmaiJPQxPdKJStGBwA4EIQCEDeKbF3IEKBCgoEhBQQUCFpUuWD3TS/rZWtFgkolJISKAHABRGp4AHgaXJLU4lHM1MaaTa+H0KU2cRaFtgIgU6K7bKGjoRW3Pt6EnPLoQc+t8TGCdxpiraaZB1UZS1Acjv81BNNTVytqZgV1kWqqyEVxYRAZQRl6SxSIiMgI1IhhcTPTs1V+vgdCODglJIQIGqRqXujNJeCRqcQuQEQAlqHGIkpbOcXBYr6ZX9zB0YvvmkKXvuy0arsZG0MQm07GJtHCEN5YClvrFJtuwnQPJbOLpmuk5vXmNEUmxa+qCleFJGzp8prUt//xAAuEAACAgIBAwMEAgEEAwAAAAABAgADBBESExQhBRAiICMxMjBAMxUkQVA0QnD/2gAIAQEAAQUC/wDuGpr2EsJWJ5mpqah8D/qOQniX1lhTm2rl5rE4/od1ljampYwE6zP/ANPm5Axxhv3GPk3X13P6hXSa8wPT02yHJIWslFxrOottiqUyOTuyWj+UAmdtdplKn+qJnY1VwxLXxp9vIt9S9P6jc2qmHcq151dtwpaylfTrEsDH7+TTwq6y1qiFz2q6YaP8A/NXbqEaiuX5MruqMtRGf+r+Xy63D0MyXXvXq5OVdXwcfCZ1PJ7g6rk5EX1Cvhcb7cvbCbb6Q2ofz9JaHZhX3A2WQKP6Q9vt2R8ehWZK3mOjJa37WDrxcRrV/wBNx2FeCxN2LeQVmvbXvVS9pfHtWEEFKLXFmPYg0fcAksjr761FHI9KsKaRo1anECKhY2V8R7AE+4BMI17CH2ReRrqpAyGArtybaMpskNKHfVK3WRME2nLwwcPGsysOyuy/Llv2a6sbk+NkJkQ4zaasg9Hc48BWiyoshZm4aZyG8N5gABelHl9NaCqzhHL2w11qE4hrjzI+J2TORi7nQGjXWg6dTRceviuPVvt6pdXTpgNqxWEk+4nmVIzN0DBQNLiC6JgCq3FxKkNNNaDNyqsWvuGaz1K/mDwD44o4Bsiu6Y3qGRTKvVa3C5FTh7JXx0fEa8idzO7AhyhsZg11lJOQgBuBi3eGsYxmeBjFpdk7fSlYu99Ro1j7+4Z97RdgGsY+wBMNbAtRpeDR0ZYBqD88zOo2+sdPf8PEFmp1XMzcro04uRj3UZutdsWxsJWpuvtrUcZr2UkSvMsETK3FvrMRlaNjmds0KanHx0xx6YilNMa5tY2jPO+tZGZyfM2YsI3OuQWyGllxYjzERTAhWM2p1DvqkxrVZfiYxAO0m03yWAoRxl2ZTW4yED+ocLES8Yq2XATFu+HqJV7d86FbwYsPuLWEW1TK7nWLlkxVDhlnGcRNTU2dbaaIH4mmmpqAOAec+U5Nr8xeCyyzcV/LEGfDUP0AKZw8qrKLH4y2hLLXCVZFV9QOT81Wtei2lhsLx+SRtxTNbhHn6ASILSIl/ErnGDLBnXSC2uDjNQ6E6njZJ+5Ap2FfZNgjByRUxnTE46ipHI2nFT1a4z1meJoe3L4qFMOoi7mXa1AXPq6zMqp01d3WpTV92nHKMlmGvNm6WNTb1zzmwYPE2DCPYfWlpWCxTNzmwhtsnUedSydWyJkWLDl2GDKMW6sjrVQWIYHgsBhPnkNbSFlmxNghgPfcE9Uq6uLTg6W24mwWFW3XXK7txH4WV2u19oF1BoauD2BO9+Q38aOdo3Kamvo46hH0K7rDZZBdYJ17IMh4b2MFriddp1nnXsncWzrvO4aX5XNrszoJ8WNpXqZGK7VYlCKupZcqO91s62kbiRvyrRlAAm/4wdRLPHIwEH6N/Xqa99zc8TxNe1tYMvxBarYq1UItdoRHNXHp28+cuRkFdRdcivgg3CIPwSwJ4mbAgafGLqagh8fWGgM5wMD76/g17CfGePYTkdH9Kvxd5GPi6e7WrDyWlhytYWlsp65yVnPg8vAifmyvyE3NQHUBm4D5PGfk/SPYEiBoHgb+Dx9GpqagWcTLT00bOoqrb1cAL6vXx72nIm145T6bGZrhbXwmPji+0WCeNr5nlSt2py3OYEKxfBHEwQo4FbcWcrY3GEEfUIYvIxLEgNRn2pquca5xScEnBZwWcBOM4zjOJnEw/EXZbW2ZSpu8KVNqOgTUxb7Kp4tSpdWpQ9hSvjbZ4cTQh8gfnwPZN6PSaWKOW+Jd2aAQPqKwhY62NFjCIdzfgEe1bOJWrbfmTwaJ+PE8Tx7+ffzPM8z1K1xDfurlypxartj0cWDOoKqraHpVy9U0IIvgf+3gwL8SrBYqgzjqBRKzwblyLVLqgBWu6ZcGLqBULOujszfjlCV0R415CNK+ca7jBaGPEiAeOM4zjNTX0vbxsViRk/etwvR26dfoNG39Mw65XjpTZ6zVzlqMrIxruqsFldl3CIwdRqH4soVxaAFJMUcofya3EbXENuaAnhlHIxUYQD24woDAgnATpiamvAAmp4EdvFX8G5yBlrzH/fCrC+og+Q0yZd+L1VlzE4Mycn9PFleDkWdU4lrm1E1Oeolmpc9RQWJGKc6mqUrk6XII3w2xr5RagIq6/lc/FpQzB9zc3N++pkbUbIe4ngpZ19NsBv2BMjIVFf1KgW5PqBc1v1B6unJPTj0FTk112SiFnyOBBMrqSxShFvSY23UVoleNzJVFdmQLZ4XgTEGl/mvbithDJYX6VbNxH4h/PtyjeVu2kJGsdQox3rJzvU7i2I5zsA+n5TOno1kKU49XqDzG841IUTKTqNRuV28lqdlcNwW6zlPk8QOU4O6VIyTkQyHX9Cz8WIVDt86hQGn/AB7t+tdvi7qPONzNjo+8f4Lj+n94uBjV46U3X463+qhj3XVb1CuYviHfckBVNaqnJnaklCxZoAwUBuI2ItzhfMarmyoB/PexV0cWC9Sql+NoblY2SginaeN+x/F6eKvKrUOpZ1Sws+3h5PRw8L1Rahneo5WTMtftYzv29uQzpjH7tv4yPuKaA8VAJqfgjzNTU1Nfwamv4MpdriqzRrEC3462HjbQMZ7OonM1j93GiX0z28Zd98dFVWrly8y3QWpzKxkV2Gs1L6fiLkj1lK8cdT5YOyz+SR4pWzl7Nrlr+rcWJaxQljRbkqbdyPWBfXy+JZhZb/j/ACuX8YxV1/LaacxaWrfVjece26mzPZMyjDsrwKvVs7rsNs1PwrruDscitIX6iam+MYrzU7H9Pq6j+Tx3U2sc1EFrH6pq6ipUpQsF6jf47eRB1ZByjPsa4qv6BwIXx2GLTcsse6iWXX2ivE5SvGpSWaI5zkDEBZY6yxQCrrWynkP6O5fK3ZIfmEDgWeB4rl37ZCsZycVu+16qw2VpLU2WC7LM0rUIgCEjGrafrCyJLW5MTNxjG9lPzs50lbCWsVHln70nVf1+J4nj6/xOonLJ+2VQ8zuOZ0wwP+MNyLncdtWMnxvReSpYTQ3IkRgBAH5MirW5vriHlUxhMaFoWm4PyCvVWzY0wattRnVCis8ZgoH9C8cTQ20A2Mnj11VWcgoL35HG4ixiqoqbse8dW8/Lkmhtjs7s+2aTs5PylX21sflNxtR31Hec4s/WV+Zaw6t9h6oLIvR8WNxrrqO/rbx9Wva7axrOS0PskDjd5RPkMZg9luM3Vp5JP0gsyBMekcVAXHsaGzRyPgG00emqczHc7Jn/ADYYzQnYErPnII4chq0cmes2U4WRVyALmsW6A0PYH237blxt5rsCbm5uZFvTWhw62jYP79PQo5kcV4FSAgRRyAO6kF5DNSQ4Rozqr04196t6Rlax/RDMf07Epl2PRcnrHpZxgTC+obJY24fdf2ugPgatrXwlnwsx7UsPLxLHNYq5/SzagP3vfcMySOGOzrWSLK0IehWWV7JyP3OpapNVI4y9FDcVsi1dKrB9OvvbC9Lx8dfE/MYqsNsN0ttGvVae3yGshcGH6K/3ZfOo8LgtasW9a1xnJRjzU/aStus+vbUP4LKR1fnWea+Ix0trtx6xsmVc1MwjZs1sDYr6VhpwDHfgoX4F9ihflkNYz1AtT6f6coQaAJnKWW8RZduNbLMkCPexPqStbj/UIPInGycbIQ8OzPlOpYJYzWGuyysdxfO4unc3TurIclyOf3O8snevGy3MXJMdma12Dyla0hy1gylIfJVlpuVVa6p1S9dtdVxxrKEy7XcthHEPp+Pn6ox/U6tddTA/xyLwCjs8yPE8mKsy8qitT5M3N/RV59tmcmnN5zeC22C+6dzkTusid3kTvMid5fO8uneWzvbZ3tk7x53jTuzO7neTuxO7E7sTulncpO5SdzXO5qgyKp3FU69U61U7mk1re1co9X+LObotprV7ahL/AFJEl+TlXTRnymmmjFx7mi4bTt1E6AgqAnEfXvx/c3/Bszm86jzqWTq2TrWzrWfRozi00f8ArdCcROInATprOms6azpJOks6SzorOis6KzoJOgsOOIHpAFmLxREsPbrDjidsJ207edvO3M7czt2nbtOg86LzovOk86TzptOm06bzg84tODzg84tOLTRmj/Vb8H8zB/H8+pqampk+K+bQWOJUNpxE4CcFnTWdNZ01nATpj+gYf2sR0OB+P6eX/i9qf0/gKtOJmjNH+Q/ih1ryvW82jKTB/qZn+P0/DGSMmro3Vfp/CZqaWcVnFZwWdNJ0q4aUnQrnbpO3Sdus7UQ4vi0cbTMCIhcnHedB50XnRsnSedKydN503nTecHnTecGnTedNpwacGnB5weZqsK6rbKixLFP1+riTOLTeRP8AczeVOWXOpmQW5cFuXOtlTrZU7jInc3Tunndmd4IM6uf6hTLTytmI6IcfIoVzl45gyaJ3FG+vVOrUZ1EnNJyWbE5TYgI+rxPWP/G9k/X6sVtNqa9x7D28+3n6OTQO86tkv/zzFVWgrXfwK6rnGqdOgzo407fGnbY87egToUToUTo1w0idFp07J07Zxvmsmf7yZ5v4ey3W669s69k7hp3E7kTuVgyU2M6sj//EACgRAAICAQMEAgICAwAAAAAAAAABAhESAxAhEzAxQQQiIFEUYUBgcf/aAAgBAwEBPwH/AEaiOllG0dL6XtHSb57Di157lJx4IpS8mGK4EuBw+woqRHBeRlDit46qXo6t8kmmYNldiiMmmRnb5M+DJGcUZROlfgWk2dEWhFoh8ZPyx/EV8Ml8aSOkqOi/Y4UxuP6FFSOij+OyWhSKXvZCjyRX9DVFZGKiPTT5QoNIVo6jOo0zqv0ZTM5Gci/7HyKvY6IyP+jaXs5kdNLyNQZivRdGX9jk2KMjH6iQ4ZPeijks4KKOPQ4ijXJTfgcZFNIS45Y1+imYlHTI7RfZa3tlyOoxajHrWdUeqdUzRnZG62W8i9qMSt6GuxWyFOlYtQiy3ZyPbga3oorajEd78lsss8kPjrHk6MDGhseot6EPkrjbksooafoykhu1+MY2fGh9zpSS5IfGpcmrHFmu2iUJRV7NprZJHg6qM2ZMyZbLZbErY9P6V+EVbNOCR8dVqolGx6sVxZrfZWiXx4zhb8koKSo+o4o4KJ+OOxpcSOKJj8FEI3yhD45RpZy5fgwinya8k1wX9RROoyU2dRnUkOTfYSySY1+yUP2ULTbNGFLfT15JKjGU5UzU+jxF4GKNmrDi+1GGRHiNERxy4JKhRyIjWylTH8j37HLJ2xyLIw/Q435H2dKFeSiLrafgji+zHxY6XLH+3+EVf4QhkK9qF5Hz4MaIEvzSJkhQVW94XFPZKzSi7FF3ZH8Y6EpOxfHj7I6UV4RPSjJEli6/HIbsol9kdMWmz1RgzTSiWl4HbfktGSMkWqNPCPLISTJRSVkpGTZrVfcooopGKMUUUUKTF8mVUx/IZKcpb0UUUUUUUUUVtRRRRRRX+Gu0xfjRiYlFFFFF+hFdn2Luc7I5OTk53sssl5EWWWJn/8QALBEAAgICAQMEAgEDBQAAAAAAAAECEQMSIRMxQQQQICIwUXEUI2EyQFBggf/aAAgBAgEBPwH/AKLZsiWZxnTR17yar2n6lJ0vnYpJ9vyf6Z/Z8E1rymPK5SuXZEm5O0Ryvprk2lCRLZ+1l+8sV+TppcEbRsvxSxponjpcPgWH7HRlEeJyNZeex1Eu48iR1B5pqRk9Q12I+rdckfUKRu7OqKVoqX7HKu51TrojmsssY5cGR8dym+EzVQ7jlt2H6lQ+pLKm+w0n3OkjpJo6P7NcZ04GkSl+jsSvwRvySR/Ak34OEb32LkjZ+SrHBPwKEU+xLNjQ81yNrl2FNxi18LOH3NTVjss5NhyLSLRabG+eEJlm1GxP1FOjNT4Z3/8ACvLOXK/Hwv4JnBSNUaROkh4kLBR0RYjpM6bOnRnktmO9iUK8kI8Ci0R9rLNi/exP8Uu3BLAm6aH6aWxmVSYtFD/IqF7LYXvZsX7Wbia+fYn6iW/B1pGXG5cohjrghgd2WWWMX1PPtwV7WJryVFipOvjkyaHqci0/k6iJZv0Y3aMEIsxZ4ZJOK8eyTTLJSa7C5OkzRGqKRSKRSJy1jZHP/dv4TlqrM2ZyaROacGqIixybMX1dHWlC6MMpY3sVITbKZZj78/g9T9sToSd0YefJ59suVR+rKt2YZctPsPTsjaXgxKnyZFaIytDx8EIq6OmjpRFFL8EnpJxZCl2Zjn4TFIeRdz1ct5KiqIkYJnEVZD7cjGtSeTU9Nlblr+LJmWNpMyfaVlakcjgRlZKeiJtWeD+DsiMLVCjQojin3MmbspIWSnSIPj8Fnqp9RKmXJcDi5WxIh3oybJjG/ZY5TZjxKHwm3vRDaXESLa+sV8Mk9fhly6olNXaOChEe9seS2ZHsxCw3zYlXxbpmGVu2Y6SJZnvrESpe2Zqcl7Sko9z1eWKjQ8611Jd+BOxFEeexLIkqNueC2QnKInfx/pP8kMOvkqS8mKDhLvwLJ+xzTVHT+2xujPvO6OhNu2LGlHlHQmvAsE+1CxyXg0kNSqkSTQuSKOEYnx+Cyyyy2bM2Zszdm7N2bs3Yx4l4OkKKXvZZZZZZZZZZftZZZZZZf/B2bGxZZZZZXtf+xv8AFwcfJfFo/8QAPRAAAQMCAwUFBgQEBgMAAAAAAQACESExAxJBECIyUWETIDBxkSMzQEKBkgQ0k6FQorHBJFJicoLhQ3CD/9oACAEBAAY/Av8A3pPy692f4XLTVNwcVsAgyj2dyKJwy+z6mu2ZThlMCv8ABxnO8bKWEgrK7DhpMSm55MhZ7A8KJt1WV9giAbnTZBTmD5eaud3lTxqCVwqD8PvgnouyLAWN5IEmgWbtDl+Uclkx+VPJDfQ7N+UBFj7jRbpUEbpuVnZ+wTc4hzlAUueo8KsFS1UW8BKJaR8Pnwm73RBjm5Z5qpronMdG6aJstOV3IIMzU03VPbZXt/dMxgzDdSN2/ogcNmVvzLdaYQd2TWjqqK/dt37bB3L/AAuQgHzUlgogRQTonZYfK9pOE/5ORUBod/rsuEYbWHiuVvh5roV/h3nsxz5odpjYTY1ce/DQuGfJQpDFJCttgKo7vVXXFt4vBqqbIVardgH0UkXRDnOdIumvJa1g01KIwZynV6/xeLP+0KGYkEawsTDx8M4jbysmHlaJqea3jl0huqLnBj3H5XfKokNdyJWiqCoZVEObVVb9Sond6IwCpy/WNldlQFDGyVAZVQbIbslZ+zgaKjdkq6hXVSrmVWq1Vz6rjW6aKir3LKAveKXuJTsTE+ag8k6MVwkQF2jwXOOqG6JWYwFLmzhRQhHsXZYvS6L8Hc/si5jziYv+Y1QeYLDRUUZsw6r2zYPRezcDslxUtqrLXZOyc5VCZ72eFLzG2+yzlY7L7KBQQplWVdkyuLZBUAdFaqsdhe/D7Tog7LA5OsowjDlvnM4qH7v1QmK22V2UK3jOziIUDFXHOzhXBsuoyhUYgcpW7hOXAqSqgq22yECArUUq6uqYjVxyplVWWO7ZUZOzKXSRoozNspw8xPRZHt9nFys80NlaReyGKzdI05oB+6f38Cq3HqH0UteCrz3YV1qt1W22Kurq+y0q0fRV/oqN2UO3hCsrKAFoqlZnsVHZp/ZEQSsmhouzeGuiyndoh7BtfnamNaJebSrKvfoq1UtJCrBVgrbKQdlgouqK6Nu7XZJYuGPopNVYLh26bKq2zORui8rs38rrPhuDgLrNGUFOewyRoFLs03jkiA05liObmvaUAwsa7kjNa3VdnRV8KqvsuuJcRXEfVcZ9VeVZq3gpzLiC4go22WioArDZordwjPFeUystOaLGsy9ZTW18wiJhhrKc9h3St0GyxGuoS1RNQEX4TjGo2xp4t1Xw6FXK4ldWC5LmtFotFp6LT0XAgzKQeSd2ggmxRxAPPzRGYWXZg5pqSSskkibIugt5BdphgufTMCj2U3tFlGI3s6VpK4KbLBSr/wAEz05KlQV8wHQqBiHzIW+6RaeinnQIxlkIYuUA6iVncMo1Kghpc+wVHLqqFVG2qlGfp4VVfx7KoVu8QsytMKHUhGljqpZrdBh0/opL+fcobqyiyr3bKB8BdX7l+7ov+1JUucJ5BEnBp5qcTBe1Q0loPPZlipE2RkQOSza/0TTQNHLVZXN+uwVhcoRQ81BlSFK5bM0UUrM4uBNzGyvgUBKqSrrVXKuuJcS4lxLiC4guIK4V9kmyyQ3J5oUyumjtEG0MXcLBZHEkc+azAw3QrI+rdFmIzO6LLiZnT8rVleAzDvkH90IgX0V5R2X7ki/JcChsoFQTsqqBeSkdydlFukhTRSAG9Fdbyvsurq6v3hhs8yjlADrLKAbzKho4jwlbmK1x1Cy0og17pXYdoYdZZmivNRZSiTophSaKyNVeiut6y4YZ5p28mucQRqCicIZRy2VQh2UokOB2X2cMqWnboqhDqq9zTZdX7kbA1tXGkKXsy1VTu8gqMPqs7S5SFMJuILgymv5iUZsFmChglZgEG4kB96FFRGyFUStQo6KtFMqg2V8CO5dccjwSJVYzNMiFmqAeaw3XudkK+yCiCoYJ8kwYzHMc3QqIoNOac3ssjUellEQoU1zLeErcst5mY+aDWw1vRTzvsqdlPG3t/oi0zA108DNyRxNCmkgETopvSnRYIN9sZsxWVrJ8lIXCm44jMLLedId1XyzyQINL7poECLozJPmsoOVZTQJpzy46Qt0t6oiZ6oBjnLKKjyUAqDXx6GESBvCsyg5r/pzQIa2Hcu/CDOSDBZG7apmJMZCj2TQG+dViOc4yxbmGSzmFmfutA1KyMCMlREwod6IvilllGHGhQDW1he7PVSeeqLguSgOqFmDK6qSBKjNmVYANvgaCUG38lkHED38jnV0KiAaINDm0R7WQnGKrtt2ZghYzQQ7VOc1kYE3Kyh9vooefqrpwTDTe3VkgGRqaL3kEnmhJqpRBF1CyzsgNYjQKXfAHfheV1mglp5LKGZhMDoszshiqMSY2RNe4MtBohmNj6prsP6lbtAhN08B2s2qsd2LJkrs8ORhJpbi7wCLn/LqgDXYOhWcGG8kGmp5K2zetz+G0VG5f9SMFo0K9m6DF1L6tiABWUGHBb5kIEthWqoVd1N5noqFtLrKDmKLs27yhTNFFPoi1zSOqcMNmYYnDS6a7E/Dvzf6qBZ8UzXhFAE5uEN0i2wusoXkg/NaTfbl+Gy5hGim4tClokKW7zomoXaSex0BrK7WMlahcRMWqr05Qs02upH0lZyQCLJjsvmVu10nkrgN5g3RDTkKIc7MOaD+0mkQm4wBdhA06IFrolXzSJV4KgbKNOX/MuElQwhs6bDmsrkABXn4TepFwnw2aoNy2KaMoe0oB8N50spY3NG6jvA56EBZH2FAs4dZUqhnpHJHOHcqrpGqIFlRrjzBsjiwM55clDjAHoQnBgg6IkWK9nVv9FlylS8lTvSooRtc3P5bMzZQw3ZTKPaPCkeBfwbbKwrardbXUrId7k5GaO1Rc0TIU5qmgasjnTVbsHQppZHJAPc2CPqs4EtmJXyEGyyF1hZyqBEWlRmgp2ds1gLMx2RwPOi3iyefNS1rIKnL3mqQZCLxbUIumq3cLNSFVuQbb+LdXUH6wpFW8wsr+F1AUWmGlQwnz6oe0cS0GQi4NtzMK1xWUQ+7DdNys1F1A5JjbGKE6pzX0zi6yO0KcaeiB9EXcS4og6BFuWZ1XtMMA28EtxL6LdAa3XqmtbMSrVOqzF2qkn4HMNUWuBPRHlpKcMQVKDTITqDp1UWaKoMqcwB8llfoeIc00Oob3TGMdm0IWd0ZdFJBImivHkngsdvGnRZqwahTmj6poA81DlRVU96ouoBhyhdnqi8nzCaGCh1R7TekeAPAJDq8lviCsgNbrNebJjxeIugH3CiVvNMfsi4EOEgFDDLxm62WWC+fmv/RF4jO6xRw3umTMK8tOiymZqt1xM3KDH8INKJv9lXuHuBDYHGGkXUzwoYbm05omI5Qg17QW6qPAERXVVJ7s6Ka/VUgIC3TmjlLQbo4fEP6FClnEVRrQrM460Vut1wCdCi4CTHNB4A3fmRLQ5wmZQIgghezwadVRjQfNA4+L9GqW4IJ5uqoxcJrh1COLgS7C1HJdO+FJ2FljpOiAdSE1+Gd6VRlVvQNkwod3YM11UGened5Qg1xBEaaI0PMIONXihWXULcfvAyn2GYh1uldjADlmohZJzElAGmSt0/Iwy7muyxIEfXMs7Q5jdHEre9o6+93oNQjl4HVHgV2bsqIIPNEWHLmhlbVvVDMK6LK3GqQgcR0+amsDuFGKzdSd5wMBsqcpb0KsiU4j/iV2ZO+3VcMjqjDczfNAivmiWfVMeQnFl1JJIJgrNWIlQGUCOIPlG7PNEHhBpRYmIX0EVsUzF/EO7R8UB+VCO7dXVEeYr4Wvqp3lXMqg+i1Q3ipeZUMMBcf7Li/ZXHovk9FENQeQCRzXA1cDVwhVbK7SSCrUiF85HJCGFQ9pIUFi3pWU7u/NtE+XQPlhUMnyQLnbnET/AGRDTuLFZjYjW4jjToBZBvagPZStivanL/RGHKVVSFxbS04gJ5BUt4N1criPquN3quN3qveu9V713qvfOXvXL3hXEPRfL9qsz7Vw4f2rgZ6LgYuBq4AuD917v91wfuuArhK4SrFarX0Vz6K59Ff9lxLiWUleyxgOhWTEopzgjosudo+qzPxm+qjBYXnmbLecY5BWKsrFWKphu9FvT9AuBcC4Vb+G8R9Vxn1XGVxlcZXF3LKxVv4fZWVguELhCsrK2yysrbd5klVwTPmt1sDuXV+5fwbKysrLhVlYqxVviD8JKuuIobLKysrK3wZUPaWnqEfhx4NlZWKt4rXuEgOTezOZ3lZH4UkuIApROwybIeJZWVlwrhVlbZrsuuJXTxyOwqBssrKysrKysrKy4SuFcK4SrKysVwlVCnDeW+SkmT4FAuFfmMP7SvzGB6Fe9/D/ALriwD9SuHCP/Je6Z94XuGfqBflx+oF+WP3BV/CYi/KY/wBq/K4/2Kv4fG+1e6xPtXC/7Svm9E9w1Ow5jCkvbZe9Z6r3rPVe8aqYgXEFxBXV1dX8Fv8Au8LKde/TwNVxH1XG71WJ/uOwyAVRg9EPZYX6YXusL7AvcYX2r8vhr8uz1K9wPUr3X8xXC771/wCb9RX/ABA/+v8A0vefif1P+lTHx/VfmsUfRfnH/pr8279Nfmv5F+Zw/q0r3+B6FDtX4bhPyzt9z/MvcfzL3B9V7ly909e6xPRcGJ6Kgf6Lhf8Aav/EACsQAQACAgEDAwMFAQEBAQAAAAEAESExQRBRYXGBkaHw8SCxwdHhQDBQYP/aAAgBAQABPyH/APO1K/8Ao1KlfoD/AORUqVKlSpUqVKgf9NSpX6KlfqqBK6jRiZREpf0PMT6Y9RS40f8AxgmLq4Ayl36+J6ppoZIDJhcr0mGTSyq5XoHTiPYI9AmunBzBC8Wd/wDxQlNY3KqbNeZhg3K8ssY8BxFxPNYjoYHqliKNo3faWFHQ94CGrCn0m8rE5VVCymzFbqcOTH/s/TLxMRajKI0/8p0XJmqAw15QnPqwLGaCNeqaju/aFIlHAYPRUA9KafPpDMcKM2335eYsDNc7fSYgkK7PiX4d8ZoO7RwXKYwD6TLO1/rroBF4IUmZ3hyILtg4jJP8oAMdolNf8hA4MBcsUae4l+bllx4jFxa9cXKLNiLMHDbXdjLC73KUZyGErbUBl0TivdNsLi5XrGFrOGG/gB7x29vrAlKottRzKlM9pWwYrt+q07p3E43vArpVFzPLv/ESkDkJtXmwXMSrbs+JSkvZMVspVrSeCHWizZvwxS103Gz4uUF5IKdw4jWGuRpx+JcMGq+f8QKtmKTGNkYSW7SunFVt4jtQWAI9pZFXnEo+rwwRoVzJjpWBWAW4SulqWVepiVjt1jWZztHmNrmNAnBF7TPThIibOmgLiLJUbm8Uqh79ErSyUVcx+HgIxbCBqwx6w4F+ZDqlcmg8cTGVl7HpDrYrBu9blZYinWU4ThM1f3iA5HcHPJ9pQ61QfpZoaHO/KfGgEDbbsSkE9o35e68SvgY1GDt7GI3O7Q3HNePEci3LQUuAJaKKoWc5rteZfDMDoNxehPGHltjbDjHAuE6R5ibTZFeUx1eWue2Ud/epakV8zaPXRP1Efgo9ZSWgRkClcTFqwFSqM2r6VOwlGBZV3WBmnxG24GK1DN3matv3lVFiM+80wUUPnUp5FtZgzekVLaXuu1RF93YU7REd04xCgvwrYe3pAJCyqprKzD/Ys5UX+NPijRkoZj2V4lVoTmYSouKRoVNsuYB6AMnEOaYGFvTFGVqBZkw+IWvQ5QpiIBsxFN5TI6gaMniFKtHvNfT0i2XU25zFKu9JZQMRnqdob7ykDVxVa1DeTECwj6QTJ+szmw9peG6+EKmG81Ixhu0/MLABqucw/DUWU49Ii3K0BqYvuAsv1iMgKCf2lngwXVUwppTHeLitoPclMUfSBuX6M2Hs4vT9HEEhkZQ8Uc3LlUY9ieZdawfSIOr6EJd8WYbFk5iOcSxdSWL2fEMVD2Ai5W+Yp5yye+5YtwmiB4m8ONjHaZC4uZ1VJcyIXwGGg+IQWnMFLVtlEykx6fmVYFytMSVmx4lqtEqI0K0/aAMRv6T1sZyjJNtQQfxKt1fC8TcX6hfvLlM2+33qWBjmxVPEwLmWszarczRwRxBdjNg3KoNeZzCHF2SsF8iVSniOVcGC+r46jtMTBV6mQoDzBdDcabUQ9U8CV8K/EQxj6kbObRWjD3Rln3oDxgii4Kjg3zAGV3MDkmTD0mIIXm0WqxDUVuJ9feIM0a2L5IOBKoRhxIDA7hVZWQpURROwM1KaHbQfzC+Q0YPDEigmqDf81LM0PSVZrACwoe0baenMQ5YdmpfMzCSdsJmC+JjHxqn96y/lFcp7RMys8wq1UEi2ShC4oOsREZhzWmMwaTzMUt+8y4+szDVesQ0+GUtZfaGZSdoylTGIKeSJFSyu0Lupg2Es/CF64qCXUriDjHCYAHZu/mLPCrGS2qlMlbR2UbZ2gWME5s2LB5esWWp7PvGcA3rxs+sSwpg4shgxGZLT5hwtK/mJrVwEmkviafEpl3DHglneZwwz4mmHEwWRNTHgw0GRZV6h/rRumwxdivJNYHtHOP2ZiD6LUR5H1iGPmmEpgncJbyr0l9LTRj4QxSfaaoYCipTwRRBohhslR2zhhDXxIyOhQCq3LLMwqt+0EtS6grArLMPpE5JmvmWBmWviG7ngXS/5AFmMtcxHL9iNfiJ5bJe9TZIo4MSX3Ias3M1Vz94essZsmbvtM6ZnYwWWUDDB6HylVqFczbUbO8tzKTcCVN1xeH2phre8Ox+JSysAwHsnOHqJ4fhH8aBf4h3JKyANFlo0F4blutULNoWYNqpRHqDVzFQGIV/kasrlhmtPgz4lE0dDfpDKGWzK3HzBkUPcHzG5LU4nJiM915lduHZyQt4HozBm5eILGuYXrUvO4blkMnRtGK5QJ7k1nTHS0q4CT26U95WMy0UQZnoBzBiu8lIGIgnJwmYsTcwKtlOCIAGqAZ9YyyWGpTcMnmn+kyXrQeawRc9213Ea6F5PYj4NAlD9YKUAvEzNADcChydoQso3FRaj5mzxqDVd0HRk7MFaedGBG8JWLgu81XeHuPaHrPrBzuCVCpdaYoVlD4yg+S+hVK6sxs30vpud3Rg5tBssG+l0VSxEo0cVzF3WcV2mqWV3lffBmuJbTQqUg5N1xMTY4tLJdJ7rFAmWazX2JSIKs13qOoL1OxFyGJRroanBxN1LeSnvGph7wMOJnEb8SyjjcyMXHTCthYBdzWEcdAo309ZhLucpiG+GeS4DzFe4y6dS4p6TEYjHeeqY7zHZKO5Kdyesl+58xPyh4IsK/menyWZdz4ov6hrqdVk+Z9KYyq93rIThJKOH9SqWzbBNVkBeL+jUfaPdLK++ZR2oeC67SpERyPUieZ5mclWbTd6O5eWqc3Bec4nMVTsN3jzLkRCZA43UYpHsJeim8XKIG4NOpcVriHRBLGkfSNK9ALjeecGToGulnk9AfgT75HoSr/pPuMv/ALTwPmHfIVXAZYhLcwssyUMGr9xCjhctI5rXZ9BUclga8kDw0ZdpiUUyjFS2Hd88ygLTflKW1rI4YxCUBDAGGl4gGC5zMiNwuPqk3hcxjgGKF5N01iDQ0uswYpSMvUpK837Qg51c0EbxUM9wNYXtZBDV08Rd1R4jHg8y2QxG7ijtiIpYb4hbanZzcqyBoJG26fM9MyperqLZuGe8z1COYVfU/MtOGp7k2cSyAXfrkwimdOYsae0NS+CvK8RVhZx57TAvK3JgDFDxKxwwVuCeIrHmZAs9oCBCXcG1PnGrodxz4PjG3zdTJK4TvJFq+CwXhedZGvbcW10Lr2KjpUnOrlOwO+bl273MgNKimjfepukrvEt0K6Z3M+IOkKGBqNgPScxO9wpPREl4EtD47w8p6o4b+Up3JTslHZPee8943osS8XnmGi6m0Xmlt7jw6vYbgCXeW9yuI1QLiZTt9q3A6tXfmOJQIImigLB3bghRGDW+ucsDuu8pgVh4IQc8+ZhbT5mSWiEQXY8ww7Ck5gCLy1Kws1pcbWVeGBdVd3CqZDvMhi5g0e8pCiviGQlY8TYQGpZAW6hXlgNjXaWIh3PRKlebLd3Cl5ajMutv6MdL8dHEibzMt2eQJhaG+EczbB8f7LRHusoMWCnMu1ZCqWPqRmteDKEgCqaa4go7d7iRKqbDtHs7LpHPRZ5I4MKDOCcCHjEGpau7vZGLI4XNtp5wgqKGhUwfO3lKYGmu8oZZyjmBfulSpU9pntKenv0KmOJcQVRWoGueBGkOjDnqZc9B0BmOikNVtmNN1rbxrmVrCzbCf3HIrArUNBsvyMCFy0NFy/OwDUsqHfSpR6hp9Zlcq8RKCssmuIg2gzeDKA5NDJ7tQFZ2YA7NZgbDuLguyNPZHrAYzO4RldTLtM8RFLULV7PE4oeRcQNvQmJtTRzHDic1FNLHP6s9a6vVBsS8SgRhWt+PvzPmDxzCRXr2mizP7ys1Kaa6DLHMS3dEFtGArzBqB23t7zJB7A2SgJ5KrMDCLWcntuCuUYDJ5mVUdMYNrF5F/iDygGL3Aa7+IzeFVENbmjTz/EdNVCvzqIaIyDfpC2CYrUqQfgTRN2hKgw99wQsrHB5gXwGY+L2KzCcJ52V5l4x7v0+A6Vi5UDo/oqErgpfkhxsfFEvTjXCa6kfLzKlN/SE102F15mQUtq2EL3y93hi2a/fPpM8Ys437x6cO7r0lSL5Bob3Gefj3rEoZqza743URN9Ah+Yk8ziKMubG6LplHdivzqXRimqO/UqQH8DkmGLfWG2Bh6Rka3cKsg5zCXtRiYlVVp/uWzBvtxOQmcfK/QHr0vpcv9LCcGsTHE7Vx4PUCuItC2EypYCNLF2TBFqsRQQoe8EYnhCoNzBviEWrnDnO5tgWyuniYtHzP0xCFQJfrFBuDgzuDnLIWBZ/kFxAz47T4IBQyxW5FGosy10iYCnFz0jU3Tdh7TFCgOGrhK9lU5+6i9guEZr0Zz/eU0IdA6Bj9DrCk5uZd3PRLdoErrUroYLQ7rUq1FxbCS/8At+8RI14H+W8Q0CfsAslIHPAc5itrVws5KZwHt5IFFDrJh94BwVCozDtB4gTYWsNBDW5sOxlnvVb7eImZM3eFv2zK6pLaT/P5gXD7WIt4vveY7UMDWu/LKyZLHfvNL2gUlHUoBlpM8wvEbh+Btr79oECa0aozW8QEqVKldalSpUrrX63tC4Uefu5hIFEpUZgnE7oc0Mv26b0jZX0mUXZbT7773A2e2nCFTQmGUQFZLhePu4a4uKqhzTvefzAzW1SxZ5iNowytgf3Gy63PgIUfBz67l7mLWiI4zTycS1MLK4DOM8ceZxn2MZiI8gxKzYypW0BljlZy4e3eYRo+P9ipX1tP4ZlEi/tuZhB+dwsNBiV/xjXNBmGQEK2RFI0Z9pl2lVelKgmUFasq+f8AJXiN8LxyffiXWitDiy6jc82Ztq6M+04KOkUp8/SLBKqsO8QZNwbf7zFipaAsysUL4Vj1fviUDTlqvfxFvQDdKnpKVC5eHD78SgV5ET5xyS/5nsOu3eF4j5ois/VdEbMvIUfL/U+oi5lp2EuYMBxElKy+Du+0EYTyLyXBYpGzBzLhbxT/ABBAMfpOvsjXDL8y5fU6Zq7V3nsj7Lu0LIc7UKp++0vUGpZigjBONEVZ4n1sGhFQo5dUShTTJsmzP8QQzW10FuPvzDDVNOGzf7R1TNl4hymtjXYxfPLEuD+8xUoozj6fzNYyhf8AmBeQI0vzEGnwPa4Ctay6uZy+mHrHPHSiMRQ7gwZuGtRm4/rPLoK4OcyrPTe4x2LALm4+OGuFWBYzxLtMCzP7kUquDO57wO7Mfoe8Dyh3jL7ZZ9kzMzPeV5lQdilmhW23xDYw9FF+kJwDx8jGFgMU8TMP4fYNEA1nLPr5l8C3Nh1GOhV1HOC4h0x6/vHzMzEyU47UfMBZgdhUZTppwDA20BOP2j5Srh3DGizl2xcooc+jzHVRcH0jhxYsnruFLUaBz2vxKWkGD2nEUQpp0MMYUYyqxvzMA1Yy3HTgq0ZwsqrxmDK4MObZ+yaIorLply+t9NcRl9c9SkzMy1o4v2h50Cu6vzEDRbNGU7S7lBXaZf1s4lQnmgOf8Q8syl2XuPN7nq8IwVNoWPyzMvrsit9vfMHvzvu1/MrYq9cvw3EDlMq+7mQLMabe0oDQbcDMSZAmQuyq5mJFtP4SlotvwqDlm77h4iDKmE8dIfLmbZk1M0jlmBC3WuLpgwkDwXk/qCLdxjz97iFhi3vzCoVXdTLANkqj9NSohHvMTEx36BPCBEzxSL+vu9vMVb+p8kobbHKuP7hzpyA2r/KhRJZit+8sk1aWbNBiG0DnaO1ymCEjnR8EqljihmN37/1M2vdMKh9JVpvvd+I05+nVDFrWFNswjYWMlRA7RY7Y71y20JYKTOX0lW/oxG2OgpY+JWWajsVPM2gwJRdu2VCoahbINkWvZY94649zvDhkKss94VzMeEqw4JzPTUsvXiX56LnslC2aKWEOSHyz36LQVRBTXJ7TAQYe1JxcyqWrKLhtrA0OZV4ob8A/uTxqpV9pYreDnX4iHTvfa9pbAheFg9Zg8FxF58/EqNFK0rv+8tPimHii416cL+Zmltdbf5ga13sVFFx3NbjLS6pyfWOgP5k7Qm2HpEi5Rv8AzA9YqMrjptivrkHEdpsdeCLgS0LS3vu0riLYMweSenEvDnBli5V4HpRV1iyBK589bJd+ITKBC+mJv1lnaX4Jjh26lsXi4/8AMylAaO8b5CkXEtQtIaIXMQNeJjP7EhQgAwLBkfVFcKs3jm/2jIELPt2/eGco37Qp72tz+7SBu2KINoCbrJenEG+pBnpMSN2WQPglAwQIEywOJx3FKpCkgHH0nxA5hEyej0yEsyWz4RmGhMX3JhIQ0g6k9KxjI3gxTDM7WxvMA2FnWYXT/XdMcq+CsMv2ldFyrdTiM6aiypgBlDFq5DJ0FHAoxK9FuYVeCqOfBKQQjYw0mSldw7EeGwZcIbEC4Xr1mD5uv4gNDGrIBKJl53j5hZ7Ij4uAdgHH3uFnBEsulVV7xDQSbHC/6xkygLYLjY2DkHYea6MZ4CcoE4EqM9AM+Ryc4Uf0MY6mxEKlZekLYHqgcj3jDuHrFg4e0tqitYhSxOUnpe1E+yJ4fwgW4teFDyhfYZbhrR9izufNONveD8uy2EBjrrkmIbXgQa8zAtnKGs8SgcLu3GtaaCv5ltidqAlCCSy94gu0t9XjLpnkQO2tVKy2wvwPsm8AE26GvqhvcErv5lC9VbwP5XEWzSaJpGPrZ1b/AClREnGZRm3LC7nAhHTOUBMzv4nr8KMYjscRjDF9VSu0Z53zD/S6mwDUg4qpvzsD/un4Ah371M879so/rdCHIsfimP5Ofl2D7flCDzY8R7z8r00keP4zsSKOWOVCRh9/ROyYIGSa3PajtW5puyB+JWl4J80lxFjPZgqL0v8AxEeeV0oZ7RX+ifjp+/CAv0oBKs+oyndPaZMRHvP18VHx/wAZ+m5cJcuCNKRe7L/Tb3Z5GHS2vzM/Lz8nPLlP2yvJ8yu0O8n4KJ7XxM9v/TH6CH6CL+m+jL/8D9XiJ4CeNPHn4afho/5k8HoPOfePYfnor+M8D4i3H0hTcI2c9YmN86Q2anvueI+vR+RnqS/dL9/rPsueXpPJ9I9C8c8U9KenPDGHzZVuPNnmTyJ+Cn46eR8SnszPb/1x+oZzf69PqYROlSpUrqSpUqVK6ASnaBhsEXq3jU0UBQm9zxzwp4k8OdsdA8d/Ms7/AD1JcuX/AOOpqwWHmcqMqifUx8dFl9NdHodK/Rz0Ojy9Trh6fTjrXR6CMueV8T8ZPIlP6OJcOh046GZGye8G1JMtK9uqxnv0z0LvoQl4j+vg8xDwU8vMe9O6fRRf07j0ozz2gv8AGpRNEu4HmORfph2vvF+Ev4VPFiTHCOoOi7Vx1Ch3E4E+dU+vR+/Ob1XOGkywztlXvpvN6d7meTM1X6Bj2j3EInlzz+pYKUC4uXu7RS5G1eZr/R6x6ArRI99P9CF1x9j4lJu+/iNeh4/olUHu+VGT3YNW/aT+Y/wAGVNsBzj7ocY98D2HvgNhBpz9WHoCp89Kw7d4yp2mWdiIV2PRLNs9SYkDfmOBj9Ytye8A4/MU4fMc/KU1HpERzNxqYqJcxqFJhnNdej05hw6VK61LzVpFR9XxK5VgX7S1ZqXbiC/CVm8spMpqiMDWLjb3Zacyrm3rA6GMX7cNWcvJ69FPdkrsn0QtKWs/hlm/tvEuu/hz/MsW+4+sx/s/3Twj0/sjrC+FAtg9P8wouYeEPYxa+uDEzBPJYF/S/uFlau4/ueL7/wC5VpIA2F+3tKvrnve/Q3gtlXhH2BO9D+fl+fjnfj8dJg2iTL67ef/aAAwDAQACAAMAAAAQzTz3d9t9DDDTzTDTHDBxhDDDdPvLN491tNJBDLDDDRDHL7PH7dvfv/8A7BHPSTeTXTPKBFKkWZ7Bi/uPPZfPX/8A/wB9/wDQU5wZ8dhV0tkfJ+bxlQhHbPfLQQQXuhMNSwcKvk1p4LFpjfFIDFMrmN+SE0MdAkiVschTrkqba8mN2ZnDjHn7S5ug8VqpOUGwhncLmlLSYnTizHFuJYrjlOX53EfhrtT1q/rpOubx+AyZQ2ZazhJfaEPLf3CE6Q5d4qzGffpPhvvye6CNHMV7AllzJrYxl6Qr8bcdXjbJGOFDuXjaqvuVvpfQgZ5Kx/2v/QNRDaeoAzPWPJPaKKtm+uk3BRkgKmFMlbhwLt8R+DxNLFLJ4OfYHmExBqsYgkcDFtOIMHLBnkqe3SjGSRxe94z7ONaAJAFgtAC7NotbfmZuriuf2uCIJBphlgYmp3rm0BZnAxyDmH+2MbowgI1oC19oIHeIqjkklBcR486nr9TZW+M1PnKfANEn8s945cYWT2kd036XcjiZ5iS19ezBBIUaRTRxlayljovly0YTYVBJkllsuyyUaS70xz81YDZeFVaUTmhuYcyxzxeFQy84psvlgtw19xzz9723w3WssOCsDwEQycQhCKv/xAAoEQADAAICAgEDAwUAAAAAAAAAAREhMUFRECBhMHGBQJHwobHB4fH/2gAIAQMBAT8Q/W39VCE94QhCEZZQZou32QSVoc48QhPCTehNUn1Ic5RCScEuW7FJULvH4E+MDIwrEVwJXyILDNC3WLNFCtA7qUEpfCEIQhCCplEhFEaY6ZwTleBYryLYnH/UtKj8ImbjZmto/eg6wELzgSMW6ZshHejljOJDhOfufMcsScYaVwOmoLlZM0UG0xZJBbkf4HGhkEnkZuMHaZhq+YpfIytKhGmxe0fijgQknsaxiOwyC7DTGCbyFqE60FW6cnAnSLkw4GJbH0xppGQ0MNMhqSFQSPkTtZZOQbcC8lG1KENjyuCuAhaeSHTLKemXYJmk+BIWZ7EVprRGlUPJlDhCEHnYkyislpj3NkBRjMGO9jWxq9iJqHihTghpQWNmGM3kWGSJkMotInhhg0xtlKhQcGmINQm5GwMS022YlBsjgTSmGmLGR3k6BNmYJGhuMQhjKINsrE/AooVaJDycz4hKkRD8DlyNVjUKhg8iThDZbC+BtEOxoxlPQaEg6zRCEINuDHktf3JDwp2Aa1DdNaYkNpkiz4hFujSyx0xeh0wPvH2HzHyHyDlJkchCEMMVHse7cN/8MbGBfsJjFAYZ+CwcFpXIqhZWCe6wXT9T84NQ3k4MXEpREsOSFyNToEc0I43JkSfl/kf87+x0mYhlbRB0jp8o3cmwfjE9nKBjWA9Opob2tYg4a5RYbKlgsFlwG2pX3gqh+HFwlqEJL+kxG1wNBOBrlCsmhtuW/wA/Ye67/wBCNRMQ2MdZMy4BwDdItkU22DIegsfieyVwWNhLtiESmzGEtjN0yRxfz7ijiQ1FBroY/RF94VnIKnl/A/LW9LsiphkihGxm6Y7SBQrGaQ1E3J4pS+MCEiiwM28i148sSFYM2N0M7wdOGqyLVMzsr2xNJ5F9lEKLbxY9J7Hsbj1voVsiHlrIsVyN4oxB0TZM4jYlmsBkWsBK5MGGUWx8wWDk6u/khR+AIqjBa0/eEIRERBJPpBJJAhpnLKGODaMhH9EfssrxTKKKKKKIyMnieYT0pfL8afQvjf1xes2WWWJkmEwURkI/EIQg4sjZz1hCfJPkj7I+zPZ9wy1rwoovQyV9FdFdH2D0NCCCBclP/8QAKBEAAwABBAEDBAMBAQAAAAAAAAERITFBUWEQIHGBkbHh8DCh8dHB/9oACAECAQE/EL6KUpf46UvopSl9FKUpSlKUpSlKUvilKUpSlKUvppSlKUlbneLUie5KWY/9KaymUpSlKYGrKUpSlKUpSjZG2lYXXyMWqXkSH1Gg4MyKrdPSjbWsR2HEJuZGE7eUUozW2RKZCIjdGpwpSlKUpRsk2RUp1uQSuooTf5/AjTawXqS/CDZjZEFo1lMQkF6nJoDI+SmS2jBLVSGcTEgPxYTt3b2NUS8SG0wJpk5EmdFNm6FLif8ASBOhbylzn7mQZS2FJvDrb8imJThMQmNFy8TZsXKYCa2DcYm8JeWNtKIOMoNpKYJLORRwGSCMXmBQ0wXHibbjbYdi0asXInkonW5xBvcO+FE1RC0RdyFjkY3FBIZE7QWAyNWoGtZTPYciHhRDFWeRnJEeolKSz9AraY8jdAJTQon4JlE5ocpG2OgbNUbCR3DxqEUtBqQlaDOg59L6DsqbEu9w5utzesDJYGs4E3hCEomWCdCRNeqjZKKwSsx5u4usSagth6sRJtDTSXyJdR5wMmB+Rwqo3TmwlEhROhRqNCaKjBgiIhxK2LO3xoi7rZcfkYiZaiaMvgwQqyJbDNRGTLKtg3yJsyEJtCwN2E5aPDefNKIRN7kRJ8vgd2ijy8MtdWTUhFrx4lXBGglVSi1FDJ1nUdB0CRsKdwEusafenzoylKPmReMaQ/sNLD+6GhUQR0D9i/JywzA5gdjhrkatdoZQvCl9M1P2jKpKK0rqduCd9hWPWnDXP9GQjkGOE21v7qOmHKK40DeYMZDANewhwJs30K7CTsaAvGb6KNn7W6GOwrVb6sxJJ57EEtjFIaF9xujexSkwIG2WVhDJIRkTRYKY1+9jBFy223+PN9e4DuU93q6JUaenK3GCiJ0m5n/X7l6Kr85LjRKEm2E0+/2ImeCaI3WL4lH3IX6dkpefsJaK1+ujhUWgScgZMegiroxTkKs7t+4HrjEcCcb7EhUz6y+SlEx7JUuSC2NW9H8G0pTIlFL5SksoijaSpKaVoo3+Amm46EgijQGvWhp60FT9i5aAhIl6c6ncmoD2i1EwP71H4a/6+R0G6NwR6yk9b2JRQQVjIOW/9FZZ/eh03qoh7F2bJQjWJoMdFKhbccY0EpV6Ul/5/IwFiLAanqOz7GVx7DlyLfV+6CUtRHomNsjXrvyOSq2JjAQywMMxxoZkaj4HeUW0MsGDHkilE/NKyiiiuTuOw7zvO07fQAieqK7gLsaeioqIIJ/hAK+CCCCCCCCoqKiov8i8PX0QhCEIIaIQhPRJJJJJGjaY3CCoqKioqKioqHWsG3opWVnsL0Xoq4KuCrgQ5ozBjyYMEXJFyRcixD8RkY64P//EACcQAQACAgICAgEFAQEBAAAAAAEAESExQVFhcYGRoRCxwdHw4SDx/9oACAEBAAE/EK8SvEqVK8SpXiVKlSpUqVKlSv8AxUqVKlSv0qVKlSpUqVKlSpUqVKlSpUqVKlQJUqVKlSpUqVK/Wv1qVKlSpUqVKlSpUqVKlSpX6VKlSpUqVKlfqVKlQIH61/5qVKlSpUqVKlSvEqVKlSpUqVKlSpUqVKlSpUqVKlQJUr/wElQP0KlSpUqVKlSv0qV+lSpUqVKlfrUqVKlH/uv0qVKlfoIIP17L+gQsqVKlSpUqVKlSpUqZhPj9MSpUqVKlf+BUqV+pUqVKlQ/QEkEWRbdEI0NmElE+hc/1dwC6GmzN/oEHKpjUBleJUqVKiSv/AH8f+alSv/B/7qVKlSpUDP6BUICwixEI1iMdvyhTY73GjQ0a28UxfYkqKaRfGD7hfaAOZV0QkvqsSGbGS7b/AEKBbQErxW6ZPIl6ebaBLH1+tSpUqVKlSpUqJ/4P0qV/4qVKlfqb/wDFSoH6CztVMSkDgAihOGZMTrgclGccRCbVpYXTZxi8wZ7dWmGf7ggATb5Z+IX2V7IcLtrGZcMVOYI0v8fcYH4kWtqrW3mKdC4YbiNrdq4T3xzL2wBcCvffEXttss2aTCeM3E/SpUr9KlSpUSJHcdgBaC4jTDZaY9x+kIbhKlSpUqVKlSpUqV/6P0KEgpUnKVZwb6lQ+BqEfs5z4YkbLaymrvxxKVyIhjbYucr4goiOBMDi1nDLHnEUXahGbzzBYDfKrVaPd/mNUjda72b/ABjB8xyMILtYZAZxTHaJ3ttrQG7w54g2QjW8i6Mnol7yBbF5c9ONT5qFaCMwmNDTBABHCaZX/iok9pUJFY5ZZSDNrbhc9vk9RFqAl3fEv1rScRw8zXH1LDBr/wAVK/SpUqVKlSpUqVKlQ/SBjbKdvB+/4gK2ggu5yJzs9eJoSKU4FOC/Up95OjIa+L/aVl6y1rgK2M1fpbE0jFJ16jWAfmBfm0PuafDKBiTbW81xBIa4Fur2eUmFQRlv0H7Nw3UzMGaxzvzMVlgYhAbX7VynCirBDMr5hVbHCNu4KVZTmDRY85jtULdBUv8AS4/pg0FAsepYos8XFEXWvQlq7ruGCVCC3csXgAr9MSpX61KlfpUqVKJR3KhiLhmRQy7l5sUhKEixJp5zCQzjYweGv95nHsACGM9c68sL/aRQyXYDN1jZNIzTcabww8eddR+SgNCcllIXVhsiyyVTfoNDh963FgpAFotkxXDH/ZrYJ3WIKJWH0zagWhaShTN2fRALouFdTwywUVG2MVEAEFrgfMsqgFVWFTyBkUx2qeaW+5ia6vJuIEBsBiIoR0jN8QksaCcTWtlLuoHG4iSHJJVzT05eZmlV3m4AKCOSKgaDYNQCyiqE4jogGbdQCVDgS+RC3QsvkoGVYPovuW8RCnXglEZeSeCAb4HcToXy3Ka1CqAcq1CdB2VlwOKOMPtx9yyLe9DVfa9Y3A7sEAA+ARx8wG07b7RYU5191B8IDQWKRp4riVQwGBfDyd0UeJT7rlVeLxfggwuDmFQR0GFVnfqDWywGSnwtXtvouFkhYS1KNLdNVW9zgnYLog2QNWU7olP4zrZ4eZdt1pszBibylMoIKxEL6TYFrgMpdbDTgq/cdiJOJaWXTWMmCqTRUrKhBcplO4MVA2EURymLfmAod0IWgFGNitQGmqrGYdKm1Ef1dYhfjERvkS/zmHhrttr1CZFllm49SFbw1BbkPcQ7jdcRrVzJxgcAZ/4IEouqsuN1XMtqCGeeo0i8AZoizfryFX2y2Bqy9z5gkvh/Qllg2DxKDz12xcPPAAibfwQ94wgEHNbRdUVauBfqvUQHoYKVsXk3iohBFgUdYAyhttlfDZ1q8zd3Uvd1LDsGsHnBa451iKyYQeCE97b6lPXruAF/3+COKW8pVh8tVDUCQrAyp3XdcQMEAbG9SrxwNY9PEKAhai1/MMOHumWe+ZURENxlnBNLG2+Fi1dzRcb4SNVqZRQN2ZYsBI4bjD9/MXVkMGWpRaBTmhllKnfmDo3YAqD4V+YJOph1FX1N8Bo5MqXVYtbcQx8G9RKqdncywNNP7RlqUxq4pbDIRtxqcuWIL/EoomtBlusDBUssOWcxulPAmrcXzUwFLEtcSFEWi8RNOqyAlRmFxGFEawP3iyhzvAirZxIuI5auoCvt6xGJtl7BmGXmrIIKKFDhKIAAB7kzGZMQBToDl8EpLgBaJmjWr+oJNybOWDt4dy7rQlKYMsAj33CM05CN85+SUYsoqDizZu9wBVUMWmGDyvSowilMW5QgRHqfpiFe/wAPxA5y8v8AKMLwLQRSLWyjP4gNtPEyla6QVC89ACWyhBNQ3tt9ojaBzTATIOAz8yutulGYMY7XEuHAYIDxDA/dNR7J93MDKeAitptwxcQ1VS7N+o2rwQMKmcmtOoU0SgQWmRafEdCCtXzGPAG2/uVCsGa7iweDePqK478IqbpSM/P1VE7oPGImsi96RMWpw6ZpCv3B3XW6kbg4W3xKZgk7V18rihSioEQl2/P0SiG3d5C6A/31LxCLaK7e8PdO4sb05XrW4qBYQOpnI9r8S/FAmUlfAY3MmhBiy6KWUGrrDFaC9P8AESasQvOyISABSeoqBNHYxBrxdwiKE6alW0DhNzODd8CUC2deBgTcLqHshlOyMa4u7jZGBudcnlldkbcRo0uKj9WrgRSGxhlegrLQk5WnMVS3yl7yrFPZYrqE2Q9kWgTTUJLQ4I1FfmX234QesBQAqMXYBLcOUbOYcW6qI03IMtTZFowWR5EDXZMy331DqgeoCtL3qoTwGLmVZZdXh9Suqpppu9feyNqVbXOabvlKImq9R0zfVY+5llUGFuHHPP15iKqKIjVX8YgBNFgILTZs8uf5GcIhWX0usOOaiYlU4KDVN/tj1AoXUCDOcdB7gStAzqXOkKq8QIBNKoZGvCYgFFi8rWKatTDTcsPC6gLywyloHTKoPkdwCo67/ZKqKzalFat9ZQ3DvbhhVIPMgSo4TKPbJ4Ylka7LilgmKSiDAAUpWIUaCrpSqhwIzkj+pG2hcLTh6Mwpo8JUBmyYsHygYX/jMgr4Dj8Ss3gDNxZQMBa4r/bFRqIzqiZ8MOCCwIOrl6cDNPMDvP0EvGEcVE+MY0uWqNzsWIlAfLEAKmBWaEFnPuK+tzBS2GpWcMv0a/8AsHoq2Ai1nH1r88JGoNi+uQcG/wCoKkH1ytsuXAo853FPQ2YbgzTA26PExALCWBrZbm+EusVAAt0HyVrY8Or9ykkTcnFmmM/eog20UvzFvAfhUGV6c9e5UbXsSMNS2m5ll4ZzAtnjA5g8lzpwgEQEgXVntpmxf2lmxvZxUrHTx5hwgWacMBt31Ftd0pPpMQLZ9yZx+xNAp9osXQdXfmJFOcCP5mZA71fEB0Q3YEsgyG7yh5OjeOOBoQ3N9QDYQnr7EcAqNqxsTZecIBR6MYlRHvE+nYAjdlXRCzA+oqIa8Su9VdQWSq9EJ3MKwC9F838RuCVHkFPaZfqMwdn4acMbOeGPezCuCsndVmIB0BS49mxfqDCoCWrGAnwRQ0hQ4HXxd/codBzVl3ecCWpBJQhMp3er9XKN+HIO2wxoeSyFtSixHF1OBUVs35ixdQ+fqAVonFQIDSLxqWUBfPiYWDDRiWHiavUMYTLAMadDVcM2AqK0j9wGwpbuoYUXxCqUOqh1Q7PM/wCcLEXNtRdCr7IgZN9VCxoUtFs6gG0mYMdQxsoaXVxF4xMQcrV4mkfyr9oAWq1S37gXCQGns5V0uy0IT4BFQA+6h2geoKaG9skasfIjeT4bTW46HP5gAwos20j4hYEGy3o8Bggqy4pBVuAwNwFVDQ7x+YmujYyz+BnDxLsfjOrRX+1kgqdwQorpefnEDnoRdi045Mt9zOhK3EThV2f5WoQwKVqXNG0Mc3ziC/Chhfz/AHF0sEuq46j9UBlHe5a09J8MEAlUCVcEogdwVF4rVdwRtcZlLzhllWyTNlS6cfmFcFWpdQ009woauHYhRddxpaqKAqHeyBtuxwy0/AwWsHkmuJUZNOPc4bxChKuM2c8MvurHORmHEcQz2wTVEYP4iWfxLAKFOoInCRPNSnP55ksSahZ64h8BBHOC7X5uU8rBNwvJfmpRbupK7cufR1MHVVEegZPcT1MKLiyChzrN+5bX4oOR3Z7zADE6JpeQzzjUWKTAytWkz8Xd8Q+c0XsHo5z65lNADAl9+n74mZA0pQT3NttVHD3A0CQvtbefqDKCrkXcFPN0YXgJQEC6V91uYiusHS5hK01ctzZoaLN4joWkjkaipJYV4TH1oIq4Bsac+4tuS2txBG38Tpr0ywKwupZZBn3gEWjVw7hSj8uZiDD5mRhj/pBOkHyxHzC3P5hSqfdwQmTn8wQZXaBCh+Y2LxLcR8xzDOg0SwhK8xAZuF3+IggClCcREuattogXKtmqgtq+WEUbZGB8xLA4lKpYYPuvR3KlAULNl7z5r6lWBRSm1xW99y501ufI2U1HeGou0TYXo1m8zcVC60PTwx9zEsLTKuyWYsx4qHeorfuFSURsybYlIXUvTUFOiXhnH9waKN43eTb+0WoBEP4fmMCFU4EpktNXECaE+EQBAIDOLlRrTlGYBtdq2ajqg4Vz4jaRHgmT4hSWIZzEK6ct7jd2MsdL4uYDe+5flr7h+MGxIgX7rlWEU5IDoPSTCgumD8zbJ9MS3b2qV/8AKV/8pvecLJYDxOYGvM/wuYv54afmubY++FAfhzBz9Mv4/F/cKkhwUG2vcAGDDeD1RqIBLkCvCafMrgC6BB5tRGl76P3qr5mY24c/Gr5ig6wJbGQvhf8AUxKgAFt3p3dmoKTuBKDwLhwq64j/ABeEZiy867a13EOxTyX+3zEletopmW7n0VYvxMwWpXKBmhItZxdsQUCKGcrhlC4uEYt8kctsgZJgDqqKxABfOYryXqBbF1a5bKfmZZWFrV5l1BAjKuA8xwjfgfjMJJQ2L1MA0x3DCy/VTKJbxKBi/VQ6yd5iCFfPEYmlLA4ghQWolDuPXaNFn8yiqy8f5imBvXiPSfBHh+Yjx/gxHOPMPlLWD8keH5mIaSfD6MeBvjDjf4Tgt8wqKqLxAwm7EeaV0GMmeYtFYngsUc2PG+ZYXkm5DZYquqOJsQEQtQHDGUPDUezbtvAzprfiF7gmp99Vjw+yWyX6UexnReOb6gk3dMii8gclbjM83ihritdhfOYi6n6FNK+7hdwOA0+Ic1fIZubZUZOkzuCq42Z3L50Eq4qkTNVcRXs/ORmNFWhyEp21Wz5yVG0yQvV+Y5IwGv8AeYNstV4IhAUBEMyKXFDBVXGzjh/MAsnYOO8Q0V4UcZhhVydP+xHAi5npMK4Kp6TZKmrOcy8yC68zL4XcXuXAKHHfqbKu2tfYZVBFUwrvuBuXlSQuShxniNO0rvidn1K6UoML7h5vzLlfch5EPSWcQugVMllYH7QliHQ0Gn9vuWBCno4MFWWG8/iKq8eRaWKPh3rEfl121GF1hE441M++1m06cf1Eee10E6GbdmHqjhiXIKIgc7GMBxupVJu4URxVrdUwgyBjCN7NnCK8pZ+CO23HiXM4tN0F3H3yCNxLSYzFW2AVnXESiuqgPPMRshMg7hkhqTsPnuFEa43avNyorqFIs6QlFFBjYx73UTgnZbpZ4lFI0v8A8l+oJYUpZfxpwyGa+ZRS69FS7rq5RLLJ6v3HbAEN28/GIFnA2FjqpWm8iwFYhAB1ql/MtVoruw3FmsArW++cQ9R2XK4RLUSi0Qo11VaZQOjbeo/eByL+YC0gerJ6MbzKbJHrOK/zcf8AsSs/mhRowvci9YDeMBJdq/8ANQCqDA6ZUnlBW51j8SidcTLDZnwRa4rGVVbXg8eJdyMJc9tx6uK6g+phPJmxPpKaO2Mjt6mBIxnhunj6mnnHyXLvQCwoR6Ydo7NR/krgZumnmobGuw4LR8Qn0MAZXL/he6GMu/mERAOcUr1+KgguTjnVRlgUUM14jTWcDdEj4VZCXVeOOJhCuQL4/iCVVDJleM/eI2ZlwWUd1zqE5Vp0qW1gtxsQqra6fzDAEu9ZmAI4Gffc2lZX3SumaDb3mBhV4bgLB2VviKDQ8nEEtN8sSKXm8ykcHu2VCBPAAA73BatVsAlj6hZkjbkcSmZ1bUcdSwdXE3WEAOMXASC+aK6YKVtG28aBoc1nEFpAjSy9I87ebhJkUV5lfky4OlqpXBheoKdF8QuFKu3iWqIgt+Nx9rWrpI/RELCVcAc5axFrRayDwc6SbOyFT2dUp9w1os7NOMa8yp7VQa2L0wK185KtZsAisg+61M9NNUKWYe5WRLix0V+Jcy3W99qSsJQUhh6z9MFCDVsje3mJuF2Sw9P6gIKlyuBHyS6dy5rGpzsgYAKtUtWK2VfqWu8XLdGZT8ID5VBOK9sB5T7lFaSyub9QWtGuYtsKOJQd38x6NujFn5xG1IhKMNlmRp3xUB74PZKimm7TuDu0xB1V/idiSrXF+IPYeYW5IB0yz4vcw14OeqjPu9tWlA6RL8xyDuFBbV8cvPUBm1WYDeDnLn/kqAMQZE5Wt9R4dLE1XRs3rKRQTMUQPlZt/wBRXVz3Dt9S9KV1V216ggw826YmFKV9Vv8AlcfkStlPnzUe32rBM0OoY4txGLD6QaMGOVGUdZQaWLhiYBrS/DUJ0VL79+JYppaR3V+oMkPtFjzzod8xNNc9hZ2OKILRZUFQuzG4dZDS/Ds5hFrlWi3edwMKeGRE7slT9Uoq4Z4K9T4nx+YMc/8A2fKFdsqa5gHiYviK9sDG5i8xUoha/eMiZZQEbqZawwgqWG+q0NXk0vO+NR7PkgqoG9nOPjMTSdClPy8eoBFMxJIKYIt5imlgC1gbbl6NMu8QLN7mak+x36lGJqgbC1vqiBWRtAtdOjP5JUb1BpTCWYpzMyHQrvF/2fvEvQESDV74ozW00MAX4oypdW5xrmEocV8dQoUZ84lRMSF/J7iCNijgRHehylWz94o+VEPQynDMsA45bMrVWLOeYukGWUiWM7aMjcxwFhRYx9QOAsG1Lq+mGtdI3LpVxUB1UsQf2mgtagDBsLo65gAFNxG3vjiN4ABI5ZudUbNBlZld546gAteKwrqn6lhS5jyvUXEEqWTJwXEAzL0oVdY3BdMV0QofXmMbTbxKXogPiUsFBahlNnUxgRkLhmuIjwqWz/GCCvGojWN5bpceMnmVfTBbUTl6w/Us6jq1yDP+7hukzcNtPUoW1CVVMVoXEb0d6DsJCYzIfkOMfjcXzINAVYMttVjw9Mz1AUaqswURx+0vQLwWBrHybjD7KxCcBtqmu1mNQ1wEB5YsX58RAzIs1usF0I/7K5eLBjEyFGvYO8cwmA3gBfMKztCIU+GLAJYlUdf1BwMytHJjkde5ufhWjec4p1F42CqlOQHJa1mKRAoalPPcyg7XEKr7glhG3DmbpmbMy+NVLyy+WCUDCckLjm8xXMXsN5cZgAGCsFftKGr1q+IYYIHNRLJeKvE5QUCuQiHdsvF1iek11BeoL1MwM9TMIllFKdWlX8xbacMhq9iWOuI3lLwwOmMjTuCH64ibFDisZ+uoAt+CUGxBDJzniMlgL6LZi/VvmoyVlhtSfjUo6wLVtz4+/piSA584nANdlSyZdJr4lyoyBZUOHus7hMaIqcHJ2FXNuW8QUOTgOHHeY4KhoB6ZrEMgMaMDJF5t603Lorv6AAJVVlpY/mqrZhQuq38xOuyoJceV2RRTGajrsMlfUd6RpmzD7jv4M1kMFPaZZm0KZhrggrRLmyr/AIiXcoEi2KwtNhs37jZQLQQdYva08ucauVxO1ZmBH1LoGNGArqASpXabg9RHU8Z9QVYJbQCZXMpuBAtLDqWrYC9Yi7C9qwyw1iG6xeAJYxKaqAw8LiNhXzKmfvgmyvXv5iG9xAVdbXCGtYuXK5rpWlcYxeM15h8GT2tUYJyAsv1FSt4d1d1oHjM25gLLbBV4eHWIpurcYrPcOSMBFDez937jkGQD2D/NQzuAaFdZZvxEm8Rs87azV7jztSMVBYt8YDHuEEazLLdgVjPfMLQGTugMv7d3mCbWINMHS9o0weiUKWB8eOzcbkJLqFIvmwfKO5EZod8cVUSpAQAnAdh3XUZWKbQFFtlPgxmH1rctpf5Z+oBsLW/HzHC6d4P9/Ea+VzTomS3ljbAue81iLxUBsYob4tvLW3X6IG2o8hWFYW5X5uAKqqleCYcQwlpXUA8w8IQPxD1gqgU7qU8s9iV5mO4V3K8xPMSmMijhVwvJiuHz5h5PgburHjCAvqswxqKEs0paHRXP9zY7SgUqIt6ff1y57hMUqg2acjuVHUsmRV2bFpEAwe4emE2ol5M1kLvkYrQpCRWAZMJb54iLikrAuJg8P4bmhyOgF1ni4x+JSbbEUmRa+16qOYbi+gDPNmIfXgzlfKpW2bf5iQayaNBaoq7+cRtehO7GBp3QeYFmQBILyGbpLUJYRTDRc2cjw36gwl1Jd76AxArfYzWFo/2lgVACVYVpK+D7+jjUosI564/r4htBesQpHao4AN+ohLXaVjo/c4jeDLKuP0IYgZOaJWQHneZQFtVm7qFApaPKj6IhhIGgDHLnmAN4/J5/Hx+iitQDuY7hXmVKYECA9wGtRTslnGZj9MVDUNcsB2l+LiFBcszjNUnOpavwuoDNUi5v6iQvO5q7EuN8lsVqrvbeto2Wj7PNQa6ZYmEAPDP2eYjwHABLTWzGblEAh5QaAaVKP9mESFoyBXIq7WgiFTcVDdtKu6D3j1FUsozLKwXjmeHJ8vVCi9uD1Dr4ghc8F4a8n5gNltDoWwuMaxWMsM2Tq1pminNIC2wSxTZljV19bjb0EQUC8HnLl5i+5lpym9bfrO4L1UBXT7ZV1/8AIFX5sMDRS+MV3WJjx9HvLjizeouLPVQ3m8HywUKueV50W/HymPWHS/1CgZbGNKasf5jRswgYA6qN7ZEF4mcOgB+VXvPDCLESZeJCFCzwwwjQMGlHy5v+ZqBoqFPwItQXbf6BAOpcV6mXePmfX3AOQ/Mo/ljZyGIOZTuWdwXgX1M+j2xQeWBTmPhAWFD3KbCWUAZ53nT8cS6gk1LbFCt02b9R5gl3JkOM3VhXjqEkoI6LV4Hm89GcVCI8QtB0TFc1S8XFSUGG+yPJgP5IDnQCFqiHunLxzyr6i2sEQ5q8D5tnEyTq42YkXrCbpu6piJ8u23L92GOc9zOuK4K8Fbq8FZqYQoQCwzS3gm7tvWLjyS1ENlBuy2lcZ3DXQNg5wOFGCs0hxAVjIzpIo5DS+dzOhpPjmrjVJ8+48QUDJc0V4gru7MAzQxUIzhAInBZ6o+I6TDRscZDZvfMqw8RlB7zzLXt8yrlOOYIDY2fcAaOqiXEv9QxmTousMUVvrSbRxnnMuprgW15vT/UUbDnGpV0arJcVJV2xxnIZX+EiAZoDkl5O2FuYt0nzEPJ9S+rn3C4BypyWENidC+osYs+EW2P2hbmoCk/2Stf0jtYGs11NfpaVD8H8QEw157Z6fGavzKKGWWzAW6GwPSzdh2WCgRzn/dQ7nAZqNASq2nqIBAC420K2xfwU4huKnAIKFN0LtPMeXNs60niihNcnuJ9VbkFLptd1Qay56uI1FmOEVVsoKt68tqYyA6Xjj4/YAJc5kRrY3fD5iC7dJwNWU1cQ3s2Fymj8mM4dwUU4qAm1fX8woGUNgYyQdu/XuVEUx6R4OPFncvkNElFcEVv4yRPm1CvRnI/eEFkUbwYSUgYC6xD4TMYJsqGKLo4Ib49S/wBzFs563Op+NPCBv8AALjH0xLXaOFODFt9L3FsZmQApqz++ZVAshGL3SuvmJHBLAulK4THEdhBV87hDQvtqANB8yzyfX6D4jYqg9TyxQCptolOIZS2Fxy/7M9y4FWDxAWuDa7NKCtL30xDxQt5Ew45FXVcw+sYw02j7Yvw9wNG4CKvd7JSiBgQecbqs+KlZHS4ArdPH+ets8IrRW/VZ3mUwHaqFQGc8OOU8zCVY+zS8qwmq7zyVWEMeBQiryth8y7gHlWCsnsZhKUv6WtZQ0Lp4gJTYkGjDbmxm+aO5ctqRbsx+FV53GtXRSw2o8Hl5mmRs1AFZcd9y5NaKikrSM3fqECVcOitGvK3DU+LvYatzUroA738RaRA+HctuYNsIQHTMIsOoqgv3Er7CMtsBl7gxhmckGWMRhfX9ywcSCef5Vx3DvznQxbWMIQQEWIsFYR5xzGRDsQJxnm737hQoglccVXrmAANGoVCtQhfTC3qUvLXxFJatrGD39wOkrvUq0U1jMFMofMuuj6mTIhwwYcFjJWrgYSNxAdHncY+K5wO18c7Y5myMQ6CcgPs+IptrCmiksvbDxDGss1AmTDFY5vUWhFoaEAit1u8D5hwDbTy1Ze2zgiGkki1UxWEb+D3Evwk0602XljLQUvmYGx1QNDbasGa+4V4tlEyIt7YIc/zL1NX1j3ScxLtChVmRyZNGOZSNmYwI5wji7M9wXQzRYHJXOdYq/EQsMAfBpc649yhOq1bvOVmtc8biROGqJRqY1UAO86jFNYyiirBUqs64lx8iOs4YVMH1BhqgAwFyhO6NzYhsCmqeRr6giVGxaVeM5MffFSkUWIqu2cZ/5H9O2FQNE160TAXEXOG61XiFgwAttl+03nIba1KCUHIbuVN/RnirB3qCDJ8iWACgnkFKd0MICPLkrxLKXCZQRwQO1fEasrRtU8+9SuiDQu7eEwn9QAE4swvrmYolLROHOTfHMFlVAyWjJkeC/fZEClAkKKXm6Mcq9wYOsEwUM9kRyBLNBeDWy4pWFkq2tzes3x5hcCCpFeDLN3gxvUGzTVDJdNL7NcUallqL6YS7XhtF3mGNtVU2tOLLvtCMDXixNZGCgqvGoWKJnU39DX9xvptGFbu1avMECGmgONV/8IAU50ecsH0zxQCT1eD4CPagSh8jZ8SwnbzPP58uOe5eB6DxMSLowXKjm2Z2PmJY4nH6O+xYvP3NEjsXfRBBCpVO+Iu/g8D+FvuIcAmVhsxRvqVzgCzaLvPP7Sgqq2qN1a09yie1CH0eWpvhhOkaLcHvrjcSgQ2qrc+Xz5ma3ANr+YFo+yF20eI5JmAYPfUvyBnbW9wPa+Y8Lvyw6ysSgShUQQrWqzqGttWTjJ+eNwPyYODAjlvNPhubv1Is2IfniWz0QQhc+uH5lLRBhlWwQyaYWEAUGqSwpzs1FHq+rqVoClXLBRUq0tObL6eqi5nXRhxb3Vq7tbFIzFa2KjduQtLpm7cQhFF85t9APMPTtVwquCs4v0S41CspC3UPBeappzDC2vHuABjHVQHQKqabmwb3uU4QGg1LFgVHCCzMK0QkwS/0SsiOxJdiNy/L4P4qCsA1vzHFCMajcr9RRlXxcK1ULamBYYSim6VDdZjiu+Y4pY6OrvC7qKaI4CHDl/qXA37MEMnePmJaVW7kraVRjvMeU61KdPD4cEeNgEAxTP4c9PMZSfZh0q6bOIIKKjbUv0vxBdQvEBhzEAJIyXdVfDEVBUYgavPoxHPDgkhUxZ8xEBYqvMVQEIxiyx8jj5gEZMTYryBXX7R3cGakd15eI3KSlXFctXatc1KyFKzAvFG3/kOsyqFdXoaoWPQqnYZ5HkePEa9hX1FPx9Q6UA3KUDy1+MRqqMaBDI52ZNag41TjYFihuiLunxKKEJUxIPSFxxFSgWVXMrlB6MwZiwV9Aldom9DGc9DSrlboatxjARAUAxRxB0b5iqbs4nBxO5Rp3em47oDWrj2MtRUJXDGYTf2y7u7iRj+hVrbEYi2NytAEe2c8XqCLwbT/AKgq2FKLdQMSGkUXWvqJW5jNmjHESiwtawL/AMEDF4pIwaxjqLh1gX+02nt0qv5IK4t/ZfUDLV9/1RDI9w41g8s/mYbPTUrOzO8fmGyc5Kvuh/1Tub/PMpco9pQ3W1WmvECowKhxbfX+oggkgIQDWt53KR42GFtBobL/ABEVmgph2G1KKINrK3esUbXq4hVIrB3lcrcfUq2lBjBjjPT7JjFABZSt7396lqEGKqKSlM4PtlnUdAiwgcKA7lrMhnF6FNICWIHmccYq97Y0QJ5hxtUXd0ueOYX9QJVFTGhN5bZvdnbgPKFb5uCbo0e0+BF1PsWHqYZQFmYow2i8S90e1l/Zjgub2YoXQHLC5UpfN1jXzCvRCHYOo6hfoL4g5tgxEduxCmaoJi/nQZQfpwAwfygWg+U0jrymnFPKGgfygGo7tIrRFr3afxBYfYP8RqR9r+mCrU9wXw/ACFE+Qn7My2/4PMS2/E/2hdn4v7oHcQLyK8KHVev+Jnx8C/xCnN3p/UGD9wlO0zrEtbDPIf5mM+S/+pQqHI/+4tazWNv5ijcfeFaPnDf8of6iJxpjyneVWdePiXObzkez+oI5AAQ+oBQDFS/LH7PtwX4DLCrUwwn1t/Erb8S+ujfzcHsHqNYYFGSzYL8pf/YlIiHShBHTlH7s+bNcYuRfC0dsqbLizNEP1wwlxsKoc7PzGWS/1X9KlFxJUq5VQgZ/QOIBzBiEN7j8Z8QSe36HcpMpn3PDUVbRe1jA5lwXuK8L9x3/AJpQ2F8ylg/lAW/yoXfy5xFPmWqlCPR+alW6PhALT9KLXR9MSFNfRD/pYhh+1EDSj4jvcsllS5cuDLx/403+uuZkwmWWbhqHU3y4lieIPMuXBh6Rc3FzNJcGcS/0WMVNS/P6XxGXFH+CNltXqLpnPUXf4Y9h7E0n4UQ5M0YQ9n4ipVA8Q/sCJG2+U932s/4iKKVYxhFqqHYI1RFHR/UJiDg6V77+JSPq7eVjFW54i4sFzs/DLCxP88wHXxf9wS8XUcsEQrrB7P6mUBf56g7hXH+ajqjB+yj+51/6+YYqxrxE+BiHeJcD3cA1+7+o13/L+onostWJ+SVNfmI5ynRZbEgsr1knVHzXon/0kT/vSvZ/Kf8AxpXZ9TN6YsWJXDUHxBt3qeS5WeCB2kKu1Pqb8EA5IeGo2v8AUfO+JXTD69wMal3qgr2v0z/11Ac0PqD0MpcSlalNVKeoj/MqsXEgtvmJSPWCInN03AhnMR1BGi5fwlrRDOU2fvOiMjgrVdTSY6uERUCq5Y9X6jXX4I9/8Rr1/ERL8gqaa+ktWB8o5zf5SzWYpcXAs8MTaFNwb1L7hu2HNQWpuCVh+iaxUE4RFT00XHAM3NeYYYgslTzTCeT+kFGku+WzcA6uFOZePmCbUxR4MwBllAdkN6zDnDiUM3cbDDcQrGZ44Z0myUOrjqyYD/Fw1DcGtwjn/kTKVK/QnjMAV+g5Aep348QlxeoeX6JXin6gJwzImEl50y/8YULr3EVqZTJLS3rEXDMvYrLGbFm3RseTfxKoPSao7NXl/m8EzqcpqJ+IM4czOs2yucJkcpUfKU4vGe5aLV6i4Az3PCxYEG4rCLTiKrzF6JfeepbzxLdwV9R33UlQ7ABWl2nRrhv4hcGzo0gl+cy/BgQDm5fdTDomjFwvbmOW6lhq/iPmBOWDsmfr/Yh4dbdBnx8wrNXrBXPU5pKzT8EoghlAtUQWhjNM/M2I8aMEcxGyWHX+/Es2H4i+kMrGbBo87mbAvXEUz8l1FNERLqOqyzKVuucXGsVfo0QWeZb3B+0QD0Nr/rgFE1url7AWeeIHOhi7gNg0Si1eHaxHZe4OVf3BjdV11DhwQKy6rrx3DpzusS0D48RAY0L1AloFdRqvGeIJk+uN2o9QJwzdalOdS3vP9Qgk0nLPMW15e1PK8wtL0RM6lcAHmbMJcLusp4csN3iecEEtV+GA2a91P2YZdA1ZxSlZ1aYsEK4B+4gBDF4p+8ruAdF+7McoeP7o0lyjFJ/MAglP8BFhEnH9xLxPqmkAZjyUyqPi5W2r5/rmnSucX4hNfGRP+I/KvyZpSRIA24q25fbEU1eP4uCgECtbeOW7gQABsBv3f9cosJdq311wX7g73S3XnXuUxUHIXfOYGty8tatil3Xe2en9/wDsf25x2PUarBN3dXzAbopzlM/6oEFqrlHL8wq7bu7Nf1FBSn+9xEorGn+ZS7B5mQ4rzlWWroVWIbKLen+5gtlgP0KK+5izOC4mYr1DIzmIVbPUbHcBVzexDLXHHECnS+6W9Z8zfAbDdHL4neFwVf4+oCEafTf++5RhG3KhMQsrmzvx/MGBclY49wscay3VeNxIUF4c1apUF7QFK5iKmy7xKzQnKZuGPc8C3HRbZ0+ag5uc1WvqA4MhgSOWoyq1bbixDoKql1LEkNgoPwlPqEroDkhAjsuvrxG0gN3V+xBwqCZoP2ZaDY6oZayihvJm1ULxEaMO4OfuGD3C5+6iXhsaQvt+aEKuNe2/aAUh/gsmAM7WVltOB8OQBRgNV39QbHOcL9rhvLLRi5DWoDg5aEuJrsMHcCQ4HU/iGZo+v6ok/hl/iA7Kugy/+Gf5lBRPh/cF37Gv5gdK2Z8Q068Cn4J//9k=;clipPath=inset(35% 0.67% 14.67% 46.67% round 50%);" vertex="1" parent="1">
                    <mxGeometry x="164" y="47.99999999999999" width="573.3" height="547.9" as="geometry"/>
                </mxCell>
                <mxCell id="6" value="" style="shape=image;verticalLabelPosition=bottom;labelBackgroundColor=default;verticalAlign=top;aspect=fixed;imageAspect=0;image=data:image/jpeg,/9j/4AAQSkZJRgABAQAAAQABAAD/4gKgSUNDX1BST0ZJTEUAAQEAAAKQbGNtcwQwAABtbnRyUkdCIFhZWiAAAAAAAAAAAAAAAABhY3NwQVBQTAAAAAAAAAAAAAAAAAAAAAAAAAAAAAAAAAAA9tYAAQAAAADTLWxjbXMAAAAAAAAAAAAAAAAAAAAAAAAAAAAAAAAAAAAAAAAAAAAAAAAAAAAAAAAAAAAAAAtkZXNjAAABCAAAADhjcHJ0AAABQAAAAE53dHB0AAABkAAAABRjaGFkAAABpAAAACxyWFlaAAAB0AAAABRiWFlaAAAB5AAAABRnWFlaAAAB+AAAABRyVFJDAAACDAAAACBnVFJDAAACLAAAACBiVFJDAAACTAAAACBjaHJtAAACbAAAACRtbHVjAAAAAAAAAAEAAAAMZW5VUwAAABwAAAAcAHMAUgBHAEIAIABiAHUAaQBsAHQALQBpAG4AAG1sdWMAAAAAAAAAAQAAAAxlblVTAAAAMgAAABwATgBvACAAYwBvAHAAeQByAGkAZwBoAHQALAAgAHUAcwBlACAAZgByAGUAZQBsAHkAAAAAWFlaIAAAAAAAAPbWAAEAAAAA0y1zZjMyAAAAAAABDEoAAAXj///zKgAAB5sAAP2H///7ov///aMAAAPYAADAlFhZWiAAAAAAAABvlAAAOO4AAAOQWFlaIAAAAAAAACSdAAAPgwAAtr5YWVogAAAAAAAAYqUAALeQAAAY3nBhcmEAAAAAAAMAAAACZmYAAPKnAAANWQAAE9AAAApbcGFyYQAAAAAAAwAAAAJmZgAA8qcAAA1ZAAAT0AAACltwYXJhAAAAAAADAAAAAmZmAADypwAADVkAABPQAAAKW2Nocm0AAAAAAAMAAAAAo9cAAFR7AABMzQAAmZoAACZmAAAPXP/bAEMABQMEBAQDBQQEBAUFBQYHDAgHBwcHDwsLCQwRDxISEQ8RERMWHBcTFBoVEREYIRgaHR0fHx8TFyIkIh4kHB4fHv/bAEMBBQUFBwYHDggIDh4UERQeHh4eHh4eHh4eHh4eHh4eHh4eHh4eHh4eHh4eHh4eHh4eHh4eHh4eHh4eHh4eHh4eHv/CABEIAZABkAMBIgACEQEDEQH/xAAbAAEBAQEBAQEBAAAAAAAAAAAAAQIDBAYFB//EABoBAQEAAwEBAAAAAAAAAAAAAAABAgMEBQb/2gAMAwEAAhADEAAAAf6JY6eegJVAWCoKlCCwQAAAAAAAAAAlEsAAAAJYKlAKgoAAAAAABCpQQpCgEKgqCwAAAAAIgqUAqUWAACoKQoBABYAQFEKgqUEKAABLAACIKgtgqCgAAAoABCwRZSAAAAABQAALAWADIAAKgqCpUAqVQFgAESgIKgsAACpQFAAAEKQiCkKAAAEAqChQQAAAgqCoKgqUAJRYWwAACUxZQCoKlJYSoKgoFhbBAAAAAAAAAAAUAAADKUWUJQlACVCC3NKgqUJQxxPS8+ZfU5dLKAAAAAgsCwFhVhKhcpSoKQpCoSoKACpQBjXxcvrnwn6+Of0Xb4PnL/VPd8H9llh77GWNIWBYACAAsFgWBYGUosLUFQVCVBUFSlQVKef+L/1D+O45dfR+fqZ+zyZlx9n3X84/SP7T7P57/QbKS42AAIVBUFQVBUFQZQVBpC0iVKEFSgAFSnxv8r/q38qmed9PVjfDn0eax6vL6D6P+p/B/dp6xligVAIVBUFQVAABlBUFSlgAAAVBbmlSnxv8w/rv8rx2ccawdPNvma7ef9KZfdfa+H9K4dCZYWAAAAIUAhSFIYZGkFQaZpUFQVBbBUospn5r6jkfxb839X8/Xv8AJn2MOjzfseLWOz+t/t/w/wDpeWr6iG/hIKgqCwBCoKAlBD8vpz7Z6dbusduE6xz3kW4ptyp1cqdXOHZyp1vGr28Xp4r/ABjPp8vJ6/FFnWzerrn0/wA59Fjs/p88Ps7/AJ/SMtJKWAAAAAQVKeW/NLPpnzVX6R86j6J870P3585U+gn4Gj9y/gaP33z2T6LXzcPpZ83wx2/S/IfMebR6V53jhuvOLjrv4+p235uunr+3/e+C9t2f0a/H+vq8f6bXyWtvnfV6+L1X2D43Z9g+Pp9e+QH175Gn1z5HqfUvmeZ8zrOmVQbl4nfAbvMdc5ybudI3z0W40cvwPd+Rx+3d8O0z3z3LjwzqJ24b1s041z9Gvf09HCYbf0Pp/mcYdP7WefT0Pm2bMtNsJZC6kibkhtkaiHHWejLGd0wsFsJ2zzOmsUS7TnvWRjf5mHT+d5enLj9h156y1dUlY59ucs1ztwx6fH6NmjtxuNXT7tebeO39z2/PfQdHmpW/z5LFpUzblU3DOrCVE461hlg0MdhhNG8yHTGehXMdLz0X5z9r5/m9POLNPZpneWvU5rh13x7Yb+efRmvz/R5+nT5ffGsc/od9Z1M/X+/+B+90ebbym7i1JpVEs57OmaLmw1GTnzul1w9HArmj0M869HKYNgu89TlnXQ8P4n7v4HJ6+ImG/W8auGMb4Zae/fz98OjeXOZ+adfP1+R65jpz+h2s6Ybu37/z30W/gzK6POk68i9uWV6S4DeTWdZNTA4m5d556s3iF0pOXbHM6oF3zNb83Q5fPfufg8nrZGHRdS3DnhrPRrpz3r6enPWJk8fu8HR5/bt5fTjn278+mju3+98z9Bt5u9uOvyF1TnMbOicx049DS5LnNSc98plrU7Hn6cupbyqejHH1V5bobx0hnXLofk/k/tfi8fsZRjt1qLjysZaunTn0w6GVlni9/i28mfT5e+3m/Q6cN8nreX938H6DdxerWb1eXq4ydN8Ka15+xnXHsbYpjoHnz6vPLntx0ejjx6GtcNHZkOWehe2Olaz5dScfwfpvmOX18DDftFw5luvfTFw6JvHaZZ8vr45a/F34a6/I/R6eX0cfs8vpfmfotvH7My9Xm6cyWZheiGM+jzk115menPBqbxLn0cea99ieaOsZ6zvXl16PAvpzfKnp8H6HI8X5P6/4nF7jWNS6yzlrM6uPYYdE7cOkvTj1wv5868uzxfW4619Pp+n+c+guvtMN/H28/enK8NHXlrQ086erzTS9conn9HPpMmO/c8GvVyHDp4o9/nuD1cPXzrj149zOe3KXn8z6fLwfQzWZnz9eaZa9pZlbNY7Gs6mW2TLh5ff4d/nXXPr0cH0nu/I/ROvblizoaM4Q9WeUPZwo59MYLw79I8T32XybsO/m6dTwe7z+c3jQ9GeujydO/nPV5J6WXx+bOL2BazM9stKxju1YmV3jUy3IZT8/1eTf5u9Y108Pu+q+M+vTe+XVebpzM6nQxx6xM6x2l58PZzOfXej/xAAtEAACAgEDAgUDBQEBAQAAAAAAAQIRAxASIQQxBRMgIkEUFTIGMDNAUCNCkP/aAAgBAQABBQL/AOgkpKKWRHmK/NRGV/5spKK6rqHOUMs1HHPIzz3gMeZZFF/5ni/X7G80lmyZvOw/UZI5I9XkWXpushmOmypx/wArqJ7MfX5vMzbjzOJZXI+ceTYdL1jli6TNHPh/yfHJ+X0c3zZejEdLmeN+A9Xsy/5P6lm/pX39OH8umjLzsEvb/kfqWDfTvvGNkcW4nBrXGzwSCnLD/k/qS/Jn+ScopNkpy1x9/wBPYLx41tX+R45j34M2KWPI3o9ekxPNl6ZLFhj/AJMoqS8Q6KGWHX9Lk6XKxlMUWeGzWHqul6zp8ov6t/1c0owxeI9ZPrM2wr0YpuMvA+reaH9TzVu3osvS+OTsWXpZf7PX89FijtjIYijgSP09S8Q/qfTwIY4wFR8EXSfI9Eyy1retlllmeSWHJcpOEhuhPShHhmTB0jw54vEmmv7dDWm43IvXto6vNmxYV13iqy4pzbNw+RkWbuNxj5yLqKn0mXZGM1IsvS9LL0ssv1/cZn3GYvEZH3KR9yZ9yZ9yYvEJMfiMj7mLxNn3IXiTPuI/EWfcJn3CR9wmLxCZm8QyQx5+oyZZjGWIlw0Mg9pDqXtx5+Oh6hmfPng112eL+4dQ0+szn1mavrM6Prc9fXZ0fX5j67OLrs59fnPr8t/X5j7hOl4jIfiGRzbORS47t8F6WXw2dhv0JrS+Mk9sc2STLvVj0XvX4yO5BG6iGVwyYM8MuJ3em7kRelll+mxERtsi6ckRLicMSHFj0TPaI/8AInR1c7lMWrHouDIrER0ciMFPHtnthLfAv9tafPY42nGsO22tIyO72m1kvaviJZkajGb5ekdXrYiJJkXTxZJQfmyU+nyxZwbSh+lac+nuRnSY/cP8aYh96tady6e6z20M6ybJeuS0l2EPSBI6bmQnp8dlo/QlpwMVU1bYuE+/ub3UKmXRfLFZaS+GKh8E5bpPVsT4FpQ1wQHpAZ0f82jONLWq0XfSjkklKMT5a4SVFNEHZJMvi1fYZ3L5R1DrGP0LhsiIa0l+UGPSAzpf5VQxDer1R205LLEmXI7xYjcRdDq3VP8AJ9/iOm51FM6z+KXplpHSyTJke+kOxhf/AGO5IXZ8i4O52LFItvTg5GjhEJzZRJNtRURzsqVfiNl80z4g4saa08uaOqj7Zd/RLRC0Zk/EWkSJj/mSkiTINMaKE9OWVo0tNo+CyUrEzubhrclHaWUiNbpba30csUZRS5O74Z1VeVLv6JkdFrP8COkdMX8nupvSizdRIXazhaXwN8m1nCW+Q1LTZuLaN3MkW7fKhjpc1LsoyZ89Vxj9M+60Q9JfiREYxkXU+me5UjdRHkfA+Xek2R5EcMaNtG5p7iULFaJbz4i9p5jYmxSHGx7yMjmQ00Jo7nWv1TFoh6S7PuIi6i+V89H/AA2yxd3Novdo2kXCvaM/8pM5bi0h7iKaftu+NrtWcG57YykhSTLgnUbSpuzbE5R13Z+mYtFqyfchovxR0y/4qMUfGlyqLofLcH5adtFLRMkrVMtwNsJmGot3EkyJkypkdshqMSxqSI2yFFQRxfWRXly9MiItVpk0xdx/idO6wtpjLRcBu3wdm5S28scRMW4Tofac1ctpG7e9EZUbENzQpWltNtC70bmj8leWJDzTqK8t8+pC9M9I9ybqNmFKWCEaKps4GhOtL5lRsnaVHzTbe0a2HLIsi7Ua31RuhfMhbklIk6Ijimq2kpEIxU+tm2bahq9ELVdiY+5jMkrlgW6Ud6hHeNStuNNq1Vc1XCdC5XBOqsi7JQiOYnb9jbtShInkiXucW0rgQ2sfBxfw093lx20demoNv0P1R0ZPSL4Okg5ZvKN1CUGLHA8tDcYyi2xsi0cIc1b3SKSOTfQm5CWNP3G2hqdwq6iSu93tUnunyrZFi7vcyagdbPFPpH39CWl6rWS0Qu/Q44+Q5KoI2ktpj2mVMgilVJuflDURDtjVEuT3i4PMkhWxwTHjxk4cQU025xE0yMeJYeW8cWtjPaT7TmORet+pasfcx/n4dN1JOIuEvyasqic4ikPdNKG08wdSGIfZbap24NqKlFbpWm2sjnBwzSOKlUpbFai6qQ8aIYoG0zQmoP0MX7Mu3zp0ctuSUhM9o9qakmSxIjjSHLKjdZGVHLc9qKMe9D/LFDp5KePFEcjzJHmyN6rJOV/USJJsjAi3RvRltmPcT/jfofdfs5e2uF1PBL/m5TFtOCUqI1I28y77olQRwOO5eyJ3Pj//xAAnEQACAQMEAQQCAwAAAAAAAAAAAQIDBBEQEiExQBMiMDMgMkJRcP/aAAgBAwEBPwH/AFJLTA/GRnVrxUY1fip8axJSy/GhByFbf2K2RVtMR3R+NbviSyxr044RGcRI9JSWCrRlSeGviwYMGDBgwYMFKjOq8RKVoocvsZKKkW9bPtfYqmGVIwqray7sHS90eV4VCHp0zOtaP812iD3rJ0dx5Lin6dRx8C1p75ktWiTwi0nlYGzc8F+8tPwLBcNjJEWRHAoPZVwMXRe/svAtPq0Y3hkBldbKuRPdyLovY9PwLT69GLmQhl4uUy2lmJEu8Ol4Ft9S0ZH9haXUeMltL3YEXX1+BarFPnRkexCK0cxIPZMUi8fs8CnFwprdpIjoiS4K0dsiFxHCTLmWcL549lSe4ySZFaLS7j0xmc/PHvVcsX4XcsvA/h//xAAkEQABAwMEAwADAAAAAAAAAAABAAIDEBFAICEwMRIyQSJCcP/aAAgBAgEBPwH+qjGOgY16jFNSgMYmy815psm9uM24x+RRaaB1k1wPFdX0X0OcG9p0t6AkKRn0LxTSWqOby2wnnydoYf1KO1LpjrjAkdYIaApRvesGBOflBQq6fuysPWBL7aDSPdqNITgS+1flYSpBuiovbAk9qnqsR3UvVIvbAl9qmrTujuFZQ94DjdxoEahMOyMZ7UQ5z0gKBHREcE8EXF//xAAzEAABAwICCAUEAgIDAAAAAAAAAREhAjEQQRIgIjJAUYGRAzNhcaETMFDhQrEjcmKQ0f/aAAgBAQAGPwL/ALBHXU5fjZGSpvQX4kZa0ReRtIivm8j0k/jNGnIdFhZHpq0a0ub20aWkXao0Vv8Ai1Uqq5rhcZcNkRU36UErpz/FKvTXhT6FSxVb8Vo+uvJRWMv4nSyTCCGLaj1T6Ht+Jo/2nCFvhvLqV+Ivt+K0Wdxqk1qaUzUTwqaWb8UyoMlCGjWkLbVorrsNR4ifi6q6rIjnKlN1CdV0U+lUrqluGjhPGT/gpprdba6NkivwueNtRNa/2K9KzGykJrr4tVb11IzJkUuuQ6Lx9tdzSrqRCrw6KI5/YYppZYTuLSqw5C6t/u7lJuIbiHloeWnc8tO55adx/pfJ5adzy/k8r5PL+Ty/k8tO5HhoblJ5dJuUm5SLuuPXUq/YjB1XSq/j6Gj6Fze2R3TsKmkk+hvCbZvm98F/gy7F07F07H8ew8djLsWpJoQTRRG5arErhfVnGSMHHVZXXYZdX6lOdxaK1aobgXSpsZJL61hxtTRT7OlqvQ6j8h+AsZ9i4w2DIkHPC5bHMjHSXL770KxpOM19SU+6zJ1QdmHREZNS5+9TmWN1EUsZGg/2n10TGPtWwsWwj+y7DqemFsLYWGSmVzXDLBVFqXPgULYXQm5OME4Ri+DuhkXJIGsc9S5yLYThVwSYuhljbV3scyKjkQxecOeGRbB0M1IwsZie/BUpjlqXI13khZNqpWHRzNh0ZepMdB4HVB0VSVcelWJkzTqQch1WBOCTCXwspkWIXCCxGDopfCKSR7DGRYzQ5qZdsPQumF6kNpDMjg6VTkThDlixbHlhGGWDlkN0fZ7EoOiqpn2JpUdELd01Xc5D8Gr5EEm8uG7jmThyJUd8G0S+PP2HpcvOEsOmHIsuH6OYlPBuy3IRSccyxZcLqRPUZsN1eqErhK/J/wCFlNlI9y5YahTaIUnSHRTzH6jwpBkUrwK4Ijn7M06YQqkEwczSVGQsvYig2oX3L/BNRCjVLpIc+o7N1LHoXQy7CI2j0Lly5ZFN1UJ0UHglYI58HTbD0wsWx3o9i/wOxNJl2JRCIH0WQ3m90Iq8Oonw0JoXoo7r3IT5NpETqXOa+pNFPcitvYlXIGaDat7lddTMw/AImFMHMuOpf4NlU7EqqDuZKhkheDmSh+hlViEQhELKhdSU+CKPkXeQ2WX3Jo+CYN1/UeOw7J3HuSLV9TxENF4VOCYalGYn+i6ksbyNyIJVMN1SFJUipUM8HZDNOh/Jeg26bqKZoTQpZezHIapyFc/RdOwyIhyw3lKOCQ/YxtOnUiTdGdU6GSm0iljZbDdQ/RKFlJoU0ab8jcQdkf2HXw/kuxvGzSpJGinQdFXufyHVfg2W7m0nYvKFNb/5HtwWkuY1FSG1JDG0pFbkGXYksps+GtK9y7HMZCTZRFLr3Iqq7ko6cyxKDsbMEKbViH7EKP8A0pvKXLiqqPhbgE9xfDct8EoRUpzw3lQ54b5ZVPLGSD19zbV+hB5iKQvyczcLIhdWMuxpF0M+4zfIzKSqKvqZL6DMgqpUtuDuZL0LUksbqr7DIlQ5dzdj0GlOharsShtKhsqZjuiE+Mj/AOhFSL0ILfJPhr0Ut3IoTsNoIbukhuKbSOZp1JnC9XcV2twiWLUm6Wbqbr9TdUuxdUGV1UdKTMlMLsfo/8QAKxAAAgIBAwQCAgIDAAMAAAAAAAERITFBUWEQcYGRobEgwUBQMNHhkPDx/9oACAEBAAE/If8AyCSAGrSyOYtjShz2MJpt/WzhiGFXiX2Qwk7pkeVXEjJcAXUeB70f1lwOWJW5lCSye/ZJSWXaQmz5YgjG0FJlf6uzRktkE1NsnyGEe43MZgkWZDW0vgYNP9Uaje/sTdQ8km7GEUOe13if9QhDl65DJFkhCFEWraFwMesWv9Tb3AIGvCTuYTU5HuXoYiBkgkiC4XZ/UtJUwn+BHAsctQg6bko/YNy5kQm4a3OJSUNgl/1LVI0sYH56n1n6IcMlAiMzWKKo0/qIgH4GDukG6AN0SOBmwH4Qrs1RNGLX8ZJJJP8AnQhCt9vBLGpNOhINEQIlFCA9JJ6v4q1DFrmN3csTRmnwNw7glgido5hOpLol7PqSSSST+CQV/wCoXBgbVsa6RJkCE0GOISQyVn+k/iyPPsOG1LETCHGhJDnCKLBZLg5H7J4IXj4Iatsvohu5LEti4v0Tz0S6O4ZmvlCuy6RmwMo0TCc9E9it1pQdEVSFBp/w12UCS2PHSOSOCODYjoZOpjQpxOJ+hITOCCcJXoaazJkXZjEdxs6WpjHLJYkRZIROk46C1EdwwNAxrsI4Hz4n/ojlXsjuR3JcTcHcNqK+HTGSePwEkkk9f/qHcu5q/ebHtJDNBKZYFMJjRRBskTCmgltDUyokyRY9kWl7iu/YaRav2FYIXjyATkQwG2BE3MiM3TQu4yG7OMgGoVXJk9rJCknxgig86wjeSVTwUCdveBSnO+DEjD1GqTyEnW4cVIELKIHbYJcniINelj5JsfCOsQK2TkpZJJyXifo4QkCZU/oT6N2TN6WJWicm5pwUlYYT0kbhmhOe5LWFdyWTUdhcVko4CBOCZ6UE4EUjOjFIEkdxAxtgIEkYRP1GOSB20JaJ4JINtjMbbtk7mAuR3WWTwdskvckj5FHcrR6lq1ZqC9jssvY1zJF0pmhuhQyyHXkgzfopU6CjYsw9DlgNLgiJalTzJjgwoTnUXIUhpGhmRQIUfRpSRY+S+SAqGJ4lakld2sGBkYbgr/1ncQityB7EcM4Mf8HjAuCXqS2Z4KoVaQ8ybNio/QtbJnDyOd/nIipFsNloazNkGRdTPkS7sepjuZOHCKs7slGhOYgYJJE8hr6Pp1uaw+iioGscgG5CRiebJ7IYzQfCy2q7EpEi0C4Y28wZu/RO6G7F6dGBOsQTyZMpaLANDT8yVACEHK7SPQ+hYdybjc2LEQTaqUUlSfImlyLXMwaZ+yUt3KRNrEhHw8lLuMbohU+r6iYDUfoeRqL2TWOHJionyMmxMZsVJIoiZfRPJc0heTIyG3HsncRsEerR3HsfyE4PkRMHaqFEpnyTQaYhRr2bAvI4qgsk/AgtCLAU4dZmPA9X0WU/QwqWNwUPYLDdEUEgbLEShoxtEzBgZD69KCalMRct/ArdpXgcN3d07DYm1kbnItgpK3IYBpxNezGw9wTwSb8GUTUZxTHKw6CbsZZ7Ias12GsfoIaP0I3aJQU/A6Ep5Qlqlu5rt3gSyaT8EqIoJTTUCM6YoddSIGoGGGEMiB7QaQ3THoS3k7hNLM+SGBT3GTj0FMSynq+0GiAnpLYo4INWp8lUInQxxeUS2szynke0Bqdp8haxu6GuMY3LXYbTDYbWmZjXoPk9BwjcljnJ+ESblBMKkSangyH8hmlpZEkPoum8mhuiYoEhyNCDfUyyLkFJu232IywNwwyUoYuNeyVP2bm0DSsyOSY2G47SOyl6EqVl6amOTKUkS2aeSWy0NbWxiRTKESkDUhLiASwOOgpaFPcS/KWTdjuQ54CGMEdmOISBmDfktvIgK8wYpajz1IRgJy/xK0Yhp6Yial27GAb9nsNh9aa6Y420nkQ1FvBLThBRoSwz9kpO1ZMlmYppQNU/sE8kLYfyPat+RejxIo1uJNWl+T/hBFIeGJ5jwDRddwRZU4EEHXgpiRNFDMgnwI2lMdyFJFA3ilHOBko+eg/wwEEOSai26PoLowuhDM0Ial6FGuCts3krbQnn8hpElKfkk9BzajFtilAU3lElkE6lKDeNLY5AaC8iXB+QqJd3TF6MNDoSoa5D9jHZ8DbBMuQVwVYyHXsbk9mMnTzA+yQVZthsFZHkfRdG/FNTKMa+hOiEc6kJdwJrd+jcX2FVvkEaaeh1lVwOShJmMySVHuM9CeGMllS+5GBvcIVfAJXyPllAkvZzRWSRsNQl6EZTKjuS6Q0QYmTtJYUltE8r2hMfQZ54I8p+kJpWw8XtLFT2Nqw07JvyK1LkfVMT/LNS0CgTHFIohIuhMjZ0D0T5EzwHWC9Ci49FVNit3wNrd6JsmRKfCxZ0doWpDua1vwNgCgUUxbXcYHQJzJqRBQbOWNk0phC4aeiNTeD9gMs1+TDBRW8omhV4EUISs5NWzYm5r7ElTPcKmmlrh/4KjAeRdCBDmg0dBcESfJhEpDWE9iR2XmDF+kSbPKH7jeBmyhTyaO4iB+USX7mW2ZVKwEuT0LvX4IVEJv4aPgzIOUgpKRtB+BhlPdEsg7WkM7zQQ8jFRfuOuXsRJpfgYhZ9QwCDeR4ES29jLqjTow6H+BOjGUfQJWav1uJsDcexAsJkThhtDR4G2VL9jTyOBhFCOEG8BaBPY/EL7iNLTJzQ/wCSliDCWGYclFL3gzQ8CP8AtZgW8hgkzudVuNRYd9E+h9kNrJsC4fBFHYSt+jZOY+zRneKi2qmERbBVRqOkhr0XRjvqt9Eq6LXRoCfTqLwSimDAYdlN7GSf7CWty7jYAQ8+YJqSCdZASEw7sSYA/MStIu5ZJ0bgnNYXaSZnE5TQ7c9smgjEST+VqL93UO0GXNKsNAkDNb8yRLddjkdOnjkQvJsEmKXcbF39wS8juMIRwFyPwYbhdR9HnowK9DTnpSQQDmwbMasrYRgvkz6TjPdehJ/oiFG1HCE0pEUsxNZvAwpxbeBlG0YCbsQKZJbSjYKkcjmLo5FbcAlk9kTwYf7AyaR3ORP3YqtpIWeXuQqBNSbfkKh9EV/pJRmXdjmW/wAWWJX+DdMROjVrE0yLFSyUwmNh0Ashl5D2XoeOxMYB+UgUAZwkH/JGqpPujUw9jSpJ8GUG+AhV74hIU1MpK155k0iO4UK8CaCQzzZwNkK5QnUFS8GQGS0HwaN3sc3gciTdpwkNWxdxmRQK0zaD2R1l0dsgt9U9UjwSIeR4mxZgRWTIqJGvNeBhf6CaBeTcw3bGlEvAwm+SMVK4oSHgTG4eQjn7JmSQKyeWy2PIkWTCsp8mQ6qtAMhYGbJJMmnsTumYj/sZaMvEdWKGh5EumAh8g2CBO0xU2vnAhEghsSyWKDJnol+KRDILozU5Hcaag1jF2RIPQJbrFivtBLgMOEUwI8jLSXkTqvUMh27DajflCRloGVEgq0JeDGNDEeDu3sY044ZC+5uSSy8kNu2EvVD5RUsVnMcgPaQ9CcyWUEKZk2OSqhEQ+M9Rp/BoF6WT0WREEIZLImQjyPW5KxmEu6G49Ul8ELpIbsNPhhl2gsoNwyRT9YTLTjYjVIInJfkwpeljaJe+wjrRSbLyU5a02/2ewuohYz2ILgwtgbyCZJW4CDM5TSBrKRusYNZe8oPAKSpkphF3oy0lGlwQx9Em1tZ+pdL9SfwlkkDRD8QTXpJGh2H1OmOFoHDtxJweRaSBnQFfoQrI5JZKW/kRDRsLGs8lJJOcGj//2gAMAwEAAgADAAAAEAgisvvOPPOoglPtsskgigggggoikhgoMMMAgACBBABAAAgggggjisggksAhgBAIAABAAAAAgAgkvnpjgggsgABAYMAAAAAAIAAAAMkvvvuvigAABADDHPPCAAAABBAhgkuvujtvOPPLDHLOOPLGMMPIgggoghsvvMPPPPPPOOMMNOEMCgiigghijCCFUlMIMAAAEEIIAOjhhjjgkgACBsmZAEAAEMIEAAKhnvvnvPDCG7vxoAEABDDDDCBDvghigCMOGGJ7xswHDPHDHPOPBjmkskMAKGMdIHAvPPPMBIBBBBstigqnICMIx1Ct+CAAABBAAAG4E2Q3210zlF4bb0AOEIAAADCMfIgq04w038BnUq4/CyAAdMQMKOJHOgBMutYChSIO5wArjllikoBDONIICnEb4ZWCvsx2mpjlpigbJCFCGDBmixokM6+YCjMksqhhWVxCVBDFlB3qxIW93teSBgGFAaZWTSJBI4EgY6gG90SLCAICFSeQU4XUAdrQErSlpYexRCDGECFadbVUCA7UHQnfooc7yccbURcQQEdaRIeZouFgulAURvdYQUeFYAFItAOJZMUda0pMzrjTTYXRYYEqIrHDkC0OrR5lFyCyIBISIIP/xAAnEQEAAgEDAwMEAwAAAAAAAAABABEhEDFBIDBRQGFxYJGx8IGh4f/aAAgBAwEBPxD6WfqSpT6exieIg3g8em2whZfiVOPTBu0RMMqY4fSgg5lxVhFzLhNvTYcJdunlwnTbc7ZLmHuzfS5cuXLlxgCABbfmLQXMLgi35CfeNf5XatLaL6tpaClJf8i4lj7Rozho6dp/cQalFbGD2flIBzrUqVK7dWG7l/faZRLgRSj8nuQAGzBhFA2M8McfHYerOlOOxlijhuczkIipLBcRluBWGBz1dq+qnzNGRRLTMVkB3gN8jSIH2OmoakrqxHyx0B8s2VE1UxD2YYBBgR6+UlSu8sT3Y6CO+OgxiXiDFy4vhOuumuimD9zHQKaQ5iWy2VS84mqmC+SVrXZqMqMPldR0ZXhohuWhKR8MJG4FA89HtpetdVQBGalxzfNiPMsUsCWKzDqcdNSpUrqYcYALiDaHzoU86LgGgVk9mtHodGXiMy3gmEuCS5WeGg3rsf/EACERAAMAAgIDAQADAAAAAAAAAAABERAhMDEgQEFRcHGB/9oACAECAQE/EP47vrtzG7ob99c0JEG+eqxohNPZTbfqo7cQ6EFPRhMpwWH+UNx7pxtOh/1w9bKY2Jqwbf0YyYhqfIUpcKiookoZouhH1Cf5M2WxpUI2djbN43j/ADk3nwkE8L30MWodih1EN+hbeC2sJibSJw+iRFYxGk1xTy2ILBqHbFNwh9j7cV85CEqsEtjaWJHB9ncvQUIQ9BiNTRKhtlrjXx7sIbQbxCBOw14l46NdBCOkGNkgtUOBN36CmE/Ea0NssHG0I18CEQfjQ2IQbDxSoRJ1w3FLnZPCOkPDws2Ia1eD/8QAKhABAAIBAwIGAgIDAQAAAAAAAQARITFBURBhIHGBkaGxMMHR8EDh8VD/2gAIAQEAAT8Q/wDCz/iX1vxX4L/Lf4L/ACX4b8F9L/8AJvw347/Edb6X4L/xbl+G5cuX+O/8m/Bfiv8ABfgv8V/4t/gvwXL/AAnS5f5b/NfguX+S/wAV/wCLf+Rcvrfiv/Bv8F+G5cuXL6X1v81y+l9bl9L/ACX4Ll/kuXLl9b/Bf5L/ABX1vrcuX+a+l+C+ly5cuXL6X+C//Gv/AAb8dy/zX0vrnpf/AIF9L/PfS5fS/wAF9L8dy+ly5fS+jOoEpcBUecOLJqe/BC/IegZQX2IYI/jv8l9L8Vy/FfixbEthJq7qLczJ25uB2u4MMItMDPzCtJ30jsTNSN2KYZoPBL8N+K5cuX1vxX1vpfiuX41AV2hAZmnLxF7Vk2q6sYQ03NAN0XLGbwjgV5xTTEXjJYlQ53MrXEXe/cnlL/xrly5fivxX4BUo0/BcfuTHjXEc3iFXMCsKPtNRQ79fO41qmDbY5lhDnmDJ7Sk4N+TuenhvxXLl9b6L4L/Df4ia949hUN053gkgo9kfLMQamAiynyZe3c06H+0JPP8Awrl9L6XL634rly/BfRe2y+hGqhcuEZFxwGt2+Y3M09LYgfIRXI2l+K+l9Lly/BfgJcuXL63L8F+G+hCJ4ne/6jNYdueG0Gzjgw/GiDTU15gHKkB1ai6VKwtntvHR/wAC+ty5cuXL6XLl9Lly+t9Rns0QzhcqRyljoenjiWkHIhjbaQyqyx3LCMXMVvDTKnlM4SOe/eXjw34r6XL8V+G5cvpcuXL63L6XCbAk+h1H0hW1pezTsxmzaZJdrHtHTHLNw92Yn6tq7r3d5Qb+fAvw31vwX0vpcuXLl9Lly5cvoy5fS+ly4RuJebQxwsrarv3miQ1dEgqFOJZpBM57n8Y2NW4099pd2+O/zUnDopKSyWS5cuXL63LOl+A9mpiLYUvAbe88spNrx0wMISiCrc4l5sK1UanW/HfS+l+NGQErWoHMZ0GrUNjbQYcdzMtWSD4KStxoXQbppDehXSVNYXiJXVgJSXLgxMsP2o+2QO3MLMFsATOIEZjIa80sqOELlfoSxMR6XLl9Ll/kyq0Z7HnNdEHUFS/mUu8xDcZODit5t8nES6jnhxMG85w41qHEEXdTyN0HMU0w+IJoYKUzgjmith6pVLgAjtmczSBq40bnfisxn0RXQDQlS949qZemnIPWG0Wk5wy1avMvh1LdKSEM5hNGWSyXLly5cuXLly5cuXLly4HeDcRQYMIEpvCSKBGsZYjbMpQgbTfVeDQqjZwCqKLWjzK6tZAN/wBmJ6d3I/K7Gy+RD5MOqS84OZdcXBgJflhMxCjwOxvDStyGUgmrIQH5vlLKQ40wUHaHeiIOWKweCxLjBAymyJa0hyTvGmloUtrxCCDUl6vRCKSkrKynRcuBGcjyuX0UPTKb2PmI9ka5aS5bR3UWa9xrKbg3soxqziCuNutS66e2UsLM6ORLgkUqqd4MbWg1Qe6le7GyLEM0CNasxYajrvKKsfNM0GKBqXo5i7Rd7Qp4otkFAkUSLFxvDTLz4IT9ZhNDKXZu/wASxPZb1Ot+rmUgZjW6icwzqycvnxL2SchGK6qsUxXHEYNOFmjylJBmTS457QY8o0gxXvQw3HGpL7J3aJpG+SANJNVgxYu0PLAlH3S9dgvsgeqfW5XyE5CaRdNm+9zK5mNRahgNZuA3vLLIXdykdk5culRmbEdCZ4w8QXJGAamybbysoFMaJfMTVGvGYZcwPMWAY0wOZQPMqoRmKwh7jrohicTX2mVaKuFtuV736QIhrMuyRlNOcxRgTEKNmYXnH2mZdYxeo0mwIvtgMR14rsneHVxVLuY3eTDAekzjLVbRj8iKjR3ISVhAa5RayxwqM1ATDB6CCsurWJem1ltaz3/5M9YnkhTOIJC2qQ1lhSzU0fKb0u+jC4/1T9waiVIqbv8AkRHYxU2AeaaXddQ0ljuIXOSkGVeUGnvvaUneXbO+l1uy6HES8hWUEXEDn0mGVInMpj+cqbhrEZNpOHhNg+t4ZQdVNNSpXZGg7TIDeEVBZf3Kvj3QTphjL5zuCGMJRaoKV3Q1jGAYhZQEXNJY2CNNk+oxbHoJDzZgzXjv9oq6kpoVAhgo7E0eaCrFdHGWKuoHGK87itdxkiBxy2lKe2bRnh0hXa4Abp574NZuBTXR9blXMmNMy1nOUyC+dpdRdO0vLQi8Q0qFm4g7Q3W5UMkhlLvLK6ptHiuqX9lc9yZk3Wmi7NTbI0e9Bh61xEFJwy6yJlo5luSnbdBJdDLDFo2vhAGPuGWZnkCutoGg2gL0bx7RLozaWPpaQAMo5DB/ZGCFNNb9dZTqjZ/TF59rBaI8s1dR5HvGoq70t/c4kaktrcq9sxHCFQEZb2sVmx/qF/aErY2dorVB54iEDLu8IRO1f6eg5ZniGhjVXLldZZkl86x+wg6pxSy56Vk4jdHgoc8ZlOC3ZMoKuM1zCKITdRZ4jV2TaCgbecwnyIHCHEC24StOr3nsREIMWDuSx5HvNVBPFrNF0R9WbJMLLgm2r2h4WMc3ND4xsL9IfYyfeIP6vpFl70gK7q2NZVNl8iyV61bQs6m5HqTYCh2G/nNc4r1+0xFh5oyJKmGCumuJm4Vy6W9DGMIWOMQcRxSapiW2pmVTK579DNhs6NYtrjTaVCE7XmI0q/RCuC4/hCteaN3lCh2X7RAkMrS8yrWlMRY4aTDBQ4jwYuY7WPektWwdiFop5Wysge8U8HpX7RlQPa19mNKfR4j8KcnCzdF4zlBSVjH9y64Dm/4RHw0ul+5MTtNyFYoxUsn3PaO74BBT8xlIR2/mjZJ23RSgcXWBNqdmXlkr53EMJZprHMipYPRlMZZS5mQN4swl9FyptAqLmYtitjgOyN2OXfBLuqL0YVqjfUBu5PVLzm47e8oVUDZCcMXeMWW3aRilo7zB04pqYuYiruhLvA98kXA9chW6njRDtWZrUxMzzY2fqY46b5om3SsYuJdKR72GdgYFw0+kUNL5nzcaF16vqVz8jXylYHVLDeGNAzDcAbhC7V2b/ccXLqsb4pNt0etSz/iffUMDNA4jt6hhdG0b5SpuDcJiNjzK0by0SyBMHC6Y5GMbgPne/pcad2JQNDfRgZdi5zAe4fiPBxFUAt01rHjeKpVVxmXtQNGM04HrgLlHvETI8ooYgbEDMPEFTS1rSU4lYV16YIdbE0M/cJVIp2+CCaA3sNzWwMbh9YXIV04JWoFpqhnvK5hvSE+5i7jaqvWZ8EqtveC1cwN/yMXjhdkOMKb5RDr5DGzrc4s7RrsmvyqMixZrH0Kmx65hMiEds8pMdMqEI8yAK5fsiDC4c1TeAF5D+lx/aPOkJ0I+IzUPbKXtgxdv3B1ryxCyaO2IWAHI2uNSbu8ekKQh9CXubxN4jZivfksEATR8nzK2K6rSvaGpsTifjDL9PgML+s4QXAwWHGdESbjVlVe0acjd4K9biCrHOHtpKY1cn9psbclxQ1ZaP/Zp2hS4OXbV7xKN5pCMdEBtu+8q80VhMG9RcrkvlFkdFwsgqROMpb6NqOEVZu7cvPTOXvE2YqSayoBYy9sQwZXJhG2sHpUC+4YddHYdfeJtxcGV+0oFVvfQ+4Rq3lGpyqPNsYUTCl7oXrACiMKhlQ9erp/yJXsPZ7xD0xwXMxV7L/cYWA7SesssRdInZCR3M6IqO9S7R6sWl+YWCn9FMtejhX/ZQ/lYajEHk+cHvqZ/UVYORKApG2z5kZdAAddZds9WcMRcGaIR5joqEVzzVKjFZLS5caY+NTnJVHGmYsUq2gVjilU+5Tlu2j4jEytgCNWVtPmVYkboXDxX8wWUgxcXDYNEB9ZdNzz9IAr4xBMEdEVy2eGa09Xgi7eM6pNcRNevrDCltf8AvAwswlZgThr6TFxrvRiHPVrp/cFC5T+2sBWxe/5I+58Zdbwc2fEbR5m8ypQK8o+0F95/1G5CdVafcMrC4hsQHKt0mMZcolkJYx7QqHNxwuL0IYVIy4IU+qUHlMRU95QrCTiopz/tCNUef5zCWxBg0y/6GqWfiCwjvWIGzF5mXE2MyZOKfmKlF5JCd4mxQ0LH3y/aA0P92PKJ5T/k1Lnmqjtdrco+8rua6UyyiuhpUaFpxH1GWvTCn3IKaCUEJGJe+L61MKwnMsb+Fh9QGnLxLCs3Vq9KmXbVNqErjtYlfh7qZ0S+iFbFa4hXa5rsgWy3oWGWARJkHRVgqXcG4LlXQuohpCIB4v2hbzvCWzLSC5jAPlUxmoB2kAwVm+L4jdqrfD9keSeYb9CoWnncawDxowxxBhq9YbxGA/ZmWdZ5IiJ3BhMquU1B/wBpmAh8lTTO5yG47iADqesqNCMADtVYntCIPi4DWlbsatRaYShynINf3O/PJY+41ktcoH0lRLe1Qxd+2Zfm22ivUuc883H9wW+JnSAahyI+YDcJ51GXtNMaPeP08LqxDXSEMYd4guTmo6Ki5gxKm/LgYsC1gpvPRWMU50i8szn04x7xMH6HxAnB4x+4G01jTC7uCfE0xReO9HB7RxF5W8qlZ/KhpkPRfsw40PdSQT0wrldK7uXszWAPGSY9RRaj21xFnuL1HvR9x5gmAUPpwmoo1qDdNPW5ctVeV2Qmx02We7MQivNz8QutxwNUuKQ7j5IV/PICpI10L5XPKzyPoxslytkRW5JpAQ9JVrBhKEtdjWDRhIb0xc06BqOiZoKxDm40DMrvEl7jrUokjMNLVLhkQAWnWYfeUtli9X1hKIbh+k1eX6vZjoR4J+SAl9pw+Zd4d8IXvx7y+G0XRGkbjq+SZ14lRoMX16RxPn00O7dUs9fGIWbHqJStdJkY92OLQdGj7iJWlt21n0lqobtocckSrZqdQ9HM58PmUGHzPszItc0APuUwvcA2Pgj256CHtU0LVvp7ohAepye+sJDwb0fqX+A6H8BLai/SVk+JpFAOHOZa5oPQOgEDHqxZmBfRdQ6OOgtwwMNwKOiWSaGCCHlXSAHAAVOCVul5CZX0MH8wQonejcgWzD4hLcfUHsEvdLuKimKc6UsQ3NqecGGpldg2uES3cKx/pmm0eW31DqQ9viEyXHdKlE3sUxPLTw/cYaQ5uz3JiKuh0nwxoVga9PaL0iOHei8hHI292ZluDoln3ETKRW2s/EF03e3wyqjPj7Q45T+mawjnv7SsEdhPxUKdS6uu/LaZ4EnI/mOuCeUvQ9sypKBtBd4MVcTCF9O6EuLMSS4Lcrb6IwtUxJhhVve0qVNuNeyb+3Zt+YheRwvq4r3Rb7Y4yXcEvXDgEvaQ0D/iJXw/3aCVW+fzcuxqvLrZlInIPrGp5Kq/RhicSZ+2Fct4WUp/IkFoHZFDMpQWy8zHzFdADyL0lxbSa5L8oS4GlsfDDg81HL3rLCtG5Ygqea4+4bOvm99YG4nm/UTlTGCppWm3Qe8zV/3cS7dsqvhjttd6P3HNyl06tc1CTs2VVL2EjVQY5YFsvWQIFziCqWZl1mOkIzUuSFKRajUU+Up+Udr02LujmFuXStVifqBlM7UDZylahDd/aUq9oLY7oP7tMdU5ip9SjJPBb7hTdmpVvWVrcLVgnGXHzEinAcE9Y0VhxISwPfDK4sQ130QnfglIitO4h9rSNVV5kbEjQrPmYlrZyFWo7mH4iilzaV63O04Vv5zT9XJQ+zCrRYzq/ctORslqVARdNPxN4vXAd8Zl1dq7PtC7zt2q9IOUVdIZECwjFG9RFrN7QFcMBJQhd2WWZrOaUdA7S0gOkcfeaoqXslHo2hSsecKpn7EhZ47piWppO7AFKbgMqCocQfURaw2MxXodlzLyU8NJV+Un8p5Un9EDZW2xfzKPJEj6gvUOYwFL5L6UQ83vNGKD1SxmhizZQ7fsw9yBlByulM1NmbzFT2I0LXePeV6gdyvtG/Wv7VHfajDkY+6m9Q1/MFdzd02wu1EQbeCw+8r/ADFD5nrShj1huVyqVQRlbLmIBKk3GVUGBby+kZkZlEUOyNhd3oFGyiZGEejm9mDAxWuL3GMdFIobHtDzqbleZMDp3pX3Pl9qVx4EI/d7MnxGKaea8pjmaNh7xuWO9n4hCqOgV/MzLV01y15nNRcCd6vxiGrmcq8x/UxJg6X8E/cRcDS6n3UFm+aj9MZ7bPhCmQ0Eh6mLoGvkbSppN6/U1pSNbsxB3St1XrA40+z1WUeo4yr0ZSMx1g7bToP0S2kucx8xvkAp107THHgJMIAI3DlCmUQWAQtrEVMJ3hdwuE1DRjGyO69uYK43bDC91hTLrTd/0iVWzIW830Sqhm5vBI1N5TxAuEQCrci2vmXYXY/gTDTzZYy0NOsIITi4pHyLhoUJ7p//2Q==;clipPath=inset(25.33% 21.33% 20.33% 20.67% round 50%);" vertex="1" parent="1">
                    <mxGeometry x="560" y="507" width="466.49" height="437" as="geometry"/>
                </mxCell>
                <mxCell id="7" value="" style="shape=image;verticalLabelPosition=bottom;labelBackgroundColor=default;verticalAlign=top;aspect=fixed;imageAspect=0;image=data:image/jpeg,/9j/4AAQSkZJRgABAQAAAQABAAD/4gKgSUNDX1BST0ZJTEUAAQEAAAKQbGNtcwQwAABtbnRyUkdCIFhZWiAAAAAAAAAAAAAAAABhY3NwQVBQTAAAAAAAAAAAAAAAAAAAAAAAAAAAAAAAAAAA9tYAAQAAAADTLWxjbXMAAAAAAAAAAAAAAAAAAAAAAAAAAAAAAAAAAAAAAAAAAAAAAAAAAAAAAAAAAAAAAAtkZXNjAAABCAAAADhjcHJ0AAABQAAAAE53dHB0AAABkAAAABRjaGFkAAABpAAAACxyWFlaAAAB0AAAABRiWFlaAAAB5AAAABRnWFlaAAAB+AAAABRyVFJDAAACDAAAACBnVFJDAAACLAAAACBiVFJDAAACTAAAACBjaHJtAAACbAAAACRtbHVjAAAAAAAAAAEAAAAMZW5VUwAAABwAAAAcAHMAUgBHAEIAIABiAHUAaQBsAHQALQBpAG4AAG1sdWMAAAAAAAAAAQAAAAxlblVTAAAAMgAAABwATgBvACAAYwBvAHAAeQByAGkAZwBoAHQALAAgAHUAcwBlACAAZgByAGUAZQBsAHkAAAAAWFlaIAAAAAAAAPbWAAEAAAAA0y1zZjMyAAAAAAABDEoAAAXj///zKgAAB5sAAP2H///7ov///aMAAAPYAADAlFhZWiAAAAAAAABvlAAAOO4AAAOQWFlaIAAAAAAAACSdAAAPgwAAtr5YWVogAAAAAAAAYqUAALeQAAAY3nBhcmEAAAAAAAMAAAACZmYAAPKnAAANWQAAE9AAAApbcGFyYQAAAAAAAwAAAAJmZgAA8qcAAA1ZAAAT0AAACltwYXJhAAAAAAADAAAAAmZmAADypwAADVkAABPQAAAKW2Nocm0AAAAAAAMAAAAAo9cAAFR7AABMzQAAmZoAACZmAAAPXP/bAEMABQMEBAQDBQQEBAUFBQYHDAgHBwcHDwsLCQwRDxISEQ8RERMWHBcTFBoVEREYIRgaHR0fHx8TFyIkIh4kHB4fHv/bAEMBBQUFBwYHDggIDh4UERQeHh4eHh4eHh4eHh4eHh4eHh4eHh4eHh4eHh4eHh4eHh4eHh4eHh4eHh4eHh4eHh4eHv/CABEIAZABkAMBIgACEQEDEQH/xAAcAAACAwEBAQEAAAAAAAAAAAADBAECBQYABwj/xAAaAQADAQEBAQAAAAAAAAAAAAAAAQIDBAUG/9oADAMBAAIQAxAAAAHtqaYejmAastXIO80SRSNi6kIaGHwT6Lsk1pQQil0MZ9+ezfJ4nU8fwVdGuhlWe1S7GrBJFaOvGzWg8SnHdWvVi4PR1z+jinOHs1zrpnVT1c82ssuRxYmyHsV5l0+cd1BZY/XoPdLo5L7Au1HsQtZqwgeOIYYLVoc2gJvQyfiQQPTHh1m1wGu5nSIfOn+d8psXBTlsg84nUhd1zfe77DxNXjXumnuV1zw9fP1Wtpa+AnqAwssW/fD8j6OrnMcmbvKbPM55J+KhsW6rF6OK7JRnL4s/pdlPfSJsYIA8haAYGIECx6BLCkjYqGQkkWZa9fJzxHX/ADPnfOKMI+cGaM7F5XQ4m12m2b2euumTOI3sZQ0Km+7jGpGxdBQVaWgQZt5rQKDRzR8rSNzZZuH1uSR0bPFPTe5WpJr6fVkPucwYrWkVzOcTNT0RVvR6g9RFC14mSfRLLenyfN/Ou04/idFOv51CjOPp4ab24HO16Vsh3Mdlyiujzp6pWNOcLph1xUX0RtZgNFYkQXpJX089+Za6Pm9Hjzf4x9JpE4tC9NfEtjD/AEOKfexxAC2vQMofNOlTNNH8Lwi3BYGSJsS7SHw3fLXGh8l+vfOfOfPE9TzjPIB7ursEr107c9Hr8CNqantPPW427quaU3cfXAITUvJcLq4AH0N4vkWae05/Vi+UnB0Ec2fKTqqbGRe0bP8AQnmq+jgsu+s5Vretz68SFq+GB7qEBoql5ZR+lO16UaJyHWLYv5jkddznzGmKq771RjfUzHv9PSD0M9+G7No3ifeEpidMG55RfSy9edTpKbUdbiih8ennsPqMTbxo0IjDl0hczWMtjGpsb3xtwu9On6PiK9mVwSGpoIldIFSyAmbc2zBseyrwatM1POtZXP8Acl6TPKEl9Clz6PMtHLAPz6RInX2Cgk9LZ9V9J4p+O3TnkdPPq2a5jqpqSVRl5fRr0ljhmb5frnBLXBT2U35VeI3uTOSWA+3tzpuackxX1zJffGEtD1MKhOrLEBPPU7WVREM2ybnM3V4pz0VE6wzypnjbYzeisy0t/leFEwtjGsBqobPUsbYrYNPf4Hpno/nb/l6Cmrm9JnrQZAxqJclaS1wwLSVASQ5Raiw+c4fTZF8CQddPSV9rn9YeE+o+j7m6lf1ua/Mm5ri0qNYfLWhVcNJXb57a0RorbMi6yIeXo/bJ1nPamb0vnPbcXlSCrOxcUPp5GcpAYD0C/Q52gtO2Rdzo92utg9AR4JVpdQlScgsoV5uepaG1p5WpLjifonOacnK5G2xXDh7dy4PFLtXR2tuWJ6mfQc5qpt8mv2eVy3k+YPlWS5s6fTOHXWw8xRR02DppLFxcr5E5TtZq5rOe2E9LtVfJjJlSc/ULfOPZqsYYzT6rfnes5fZYRMrJ7KItUAfSeJOSh4s1x/Pbz2M5TW9TzlybFazs4I/kup9DD5YxNBHb7dXSWa6hHK1V4aA9C3Jodk1HeTzvZg4deUN0RY0yibHqy4/oNR7r5eO0NfXa4/X0QdRwWJucy8vZrCtotlmC69EPtstK660c+udmdCJ6YU7GnpWC8UWXQWOfwdcSZ5dvv466gY0g4VwtNHyKSdkpg7nnuvT5OnpTwxqY6S4EfPodS9Oa6ikXmq11T6ZlH4Skl7XFUsRq2CIe653hFY9PXk/nP2jHvP5Bu929M81p9BE1kG0l+V58SVZ0k9M4z6MZHt1y+LuwqU8Zy158N6mVEdoFBNhBVZxILaOUdL6V4wvC6EjOklJQQ6SUu+yeeRkeLpextGIlCBAiq5SYaT2uaLgmfQNkoCdXRPveCKzcA1MGZ8tRtzi+0CYrMV0M28/Y2nm9lKpaIrSprrWj4NdUGhoMAGKwJQjCoGDUYfWWQ++U6rhOHSFvVFlmZzLdBgBKtyaKyGsteqIqQGAM1o3ZNNZ72KvWZ1qJ9ATPpFI7UTSkyah0VzJZuKTL7MrLzOgOlsxqqmjxwaumDaCuG54RkWJBQVCBZRmovpVlPfFD4V/Y0QarG8nYIr2u0K35UYYL8zi2S16F6ZYCrIZbX9HRooZ7GaK+D01kLzT0k09DJpN0Z6bnL74eXs/0xnC+j/NATiqo1Mgm0lqzbMZ7Q8uINjJAC/pABfQLq3U2PjmSwzUw7CN+sfwtdHsqfeB40epcdu5hlvSPTq9tkdgnffrVhu1hWSvWfM9atkeisBPqqMxcoY+3mtv816l3HzSyEjIhBbyu45rfSp4TTJRucUIMjCoDCClvXD6DbxPkUucbWgsSLMaydJPq2Uq0SAdr15SKXN0hNKC+nt6ZdpIe273OD7oJaxY3POcS2zDMkmjAkeM7/wCQ2qhgeqNQmMALjgC4m9ziOuKWzXlyBCDQMQ/SMB1IIPFoUO5qRX5CDaGdDCkRZ0Zl9lnu3wLP5ZEwNrNxpSz3a2tSdNGdHOd1xv71NMyekQiVxqZ67cYVk9qMbNAvBVr05FLCjB5shA1avgPIchLo6Woytq2EUA7hUciCItYILBw6Kk0+Vlq+XMraSUb7TtW/nzXv4d0pzuxj00pse5+jLsZc0tFfDs0oNzqBSapa1CRthz9IX5uliRymP55pr9WCrpENcx8+t5Nqy5hm1QWa57Y5/qEnqWXZBLAFa0VAfvQEe94CsruATbR3/EvEzPo+TBzaXV6/bPyw/XIehkhfGrpl9FLy2bU/TdH5Xo5X3SiG1zdiVHE8t518nqtMxw0LXLmLaV8d8zlgcjrG6pms7ZNclVSXXVQ1BtHAw0XJnnET3Pz/AOgIle3rVhXqK1YoBhxAeifAbTzdxH1CixPJ9c3vQJTK3cvv8yLo16+PXzRVm0+X+k3jT4+H7BjFcppxzmuPd9H8c6OV9BWwdnj9DTjhx5dPTYecrpkIcA7OMaDC6ayzt082jvhXoqomuMtUR9E4Hv3KJCetUWZSCbwMCjmAj0WBzo+f6mTpnstvx/ZfsoSpYmkuaqOL1OYjtZ2+GePL098vJtxGyWp6IvCxewtF8n1Xpz1zuc7Hn7zTcGDv80tLCaqmwIaZR5aNOMmybilrNph1Kk26vnunBSzClSuo6kBB2YCkCCDXlmg3OiR1c2ZjHa8n2NhrMdE9ZUlwcdbOQ5mvmjx1NcLeeBzLq2mcTalFJSZfpuQBMWOHP4X0h/fn+PU+zWqPiI/uQmviNftVGfEV/u90fAi/fJVfCa/eYl/BfpnXxNfJ0/ovO9GPJV3c/fnVigrg8QUIJBw6HbzmsXmMY63l+x2D+M0TssZTLT1lr0jUrZpOj4LSvy3vPlvTzZ2qiPfDtdr5ho83T9LNzW5y9WgzmtxeqwgZDvlyNGItYTMBkDwGEG8GBlgUDMMYk4z3BFo2LNSsnsk0y5TH6TM6+DPvsH2xYONuXrC1geb6mAr0GYNG0wkybMMPTLnmpNFWvU/OuXcH6XnYhxvXCnj1Bc9aJ9T1PzBLn6PtxviLuG/2m/zbp8NulvlGitGUrpswCBlgVRngMINUUqr0p5lpraleJ5/XHDpLXoeXoM5evIy2Fxn/xAAsEAACAgICAgMAAQQCAgMAAAABAgADBBESIQUQEyIxIBQjMkEGMzBCFSQ0/9oACAEBAAEFAik4RRB6HrcDTlCYT7EEX0DMy3imdlHl80+UNL3aKxijcCtFdlbbOMGhnlhBlqu7P9JVeTmXoj42LcyW3OCvyHkbltRU4W2FAt13KbEzEWfXjVegXyeUXT57DWhKyj5LVKw/+Dc37EUQj1uOTrK+Rpfgl1ycc1tUp5fEI9cBKBMiMdzCpC1luQzcwBb85w1l9rDxRs+Kxhu42V0W1t81V6ib+HLqyKbJ5AfSmXgiXMzRiRK1X4r1+1Cl2Hj3ExV+Mv61As4TUP8AACagE4wQ+tTUsCiXXVqvkbA71ViNCwhYaJBfAxRSvxBrc7PrLZPyWBMU6Nf18Qv2VW/pheGOPkuFsuR5mXNwwchNM/yY9dLAOo4ZbjbWEwu2i514OkM1iAK6IA0CzjBCYf4iATXrc371MtgEzbvs/wCh9Bm6LHk++Hg8f5clDt7j8iZAe+y+ivdY51Ze2v8AHF65l5I3kMLA1p4sX+QuxrrexDiXHeTl6iM3C8/3Pj6P7ThvYPH1PjuXBS0kzc3N+twDcIhB9CCDUJnKbg9COevLZBWWuxJMr7JU6qr/ALjVI6YtVePjs+luc8Lzwrym1W1vxp/nbzVGyLDtXYO55zeo4E1Kdo2Z/wBuK39u2vd9yAIq/fEKCr6mWs6lrG47m5ynKAxTG9ah9b9cYF/he2k8raCzGd7xqtBuKw/dsKuwOo4TIzEWfIu3sY35L/3VOzRH7LbI46IHR/COkP1qJnBbCNBjSdnHZ5l1BJXe6rjWOSOTGyxEEPsGJD63NwTU1637PQ8hlADJ3Zc9P0WnUNvEVIblxMEh7mSsZBa0fGBLStCJ9SKWItp4ytTCPrx6C9ss/wBkbBQgrFO0xk/ucRLnRa7y1jkTGYrYLQs8lbz9ND6EVoT/AA3B/ERxseSxjysdVeg1tX5E8S354S1kvSxmF1iiW2jfysIqm0rX9kq6zavoKxCnZHGcfs4gE4zjsEaGL2HYVlcjmlzndnQmNwBzLFjGbhjetxTAfW5ubm4p9bgM3NzP0a85T8tdr1xjzlzTF7OPphkyxOrVOqxpKKoBL6+S8O7B2w3COyvfCHXpzo43Zv8A2u3iKwbDkI8GzG2A3IzXXoiMs1BAYD/ETcMBgM3MkbTPTTsuyeg3ZxSlbVZePw3zn9KNZybyFT7INRRGEyF0D3E/A242mjlFGL4m65cnxb1JdXxmOdPfsuK9muocMirSU07mWAsRhGmvRh9j3ubg9CN63Nxux5Gnu1eMsJhbUstMwleG7iuI4uxLqBzVYo9GWryjVsjH6y+wI4+S5vF4SVsLhZEsYP5OoLMXXMqCwpGkARGbkAwDZizfde2mpqFYywj1r+G4Ggacpy3AwhYe8msFMqscr01LBKKQW+qLc+5/xtufj3Trj36PplUjKrPLIqrE8eislmvjos4xits8r/1+OqBYpxsybuKPmkgZRC1Oz2ZNP9nj96how+n9H0TOQ9bm4DHefLoNf2t8XJ1Ls4CHO5C+3kbhsMOweCvlFjy3P+L5XHKf/En7QkTlO5x1MuvmP6YmY9YrrvC/0+NVk5Ux6viq8iOSeNr7y2VRl3ndfZc6GM2mutBoP/ZUu5uGGH03rIfiPnPIXwWT5YbZZd2H5RvxrOJD8pdDsQsdvd077Npfgq9pUTPB4mOB/Xkj+qusZRY6hFEq0YIYYf0Hu1RZXTUiU2kKLE5oyFK8ner1JaoaFncx9EMrAPrkjain1qNDGabmZrWxEPe+ixnOXP3UejbLTKfy46nLcs/LidqdRdMprPyVDQxcg492bW2SrUgpuypsahmRVJgGg0YwHswNo/1C6Y7ifltfLHsPIMPuy9BZX01v/Uv2cdRYkaWMALMkA2ZIlV+5l2bG+65YdRO40ZdwtxDv320waevIUaVejZH7IqlVWlOgzMNNbP8AjuW6ZfkUf5cYJcvjnavJ6hMb0dQwb4pDK5VPK1GnJRNkpLBxm/s3M1IhV9bgitLrAJlZMss2eUVjHPTPxsxv8b5X+b73oWtshe69CYJGs/RS86eyLU7NRQdOQoYbmoa+/DJrPt6I3SzGvJzd+n9WHUJ+wiwmJKZ5HDGVS2Oa3sXUtUscfFbbUkJ8EWroQnrLZpdyE3OUVpa8HZps0Gbc/wBS+2VEmIhMSqVHhL7NplL95jqNBl43DbN1Ae+p429K866wbe3kmIdP0fTQywwkFh+r6SUnQqHyzyuZhNDtwtKqq3IIHZ51AnSOCPkEsCzO464mcTsLGTpaX3Xj2T4DrjLjqCouaseV1gSx9T5Zz6yNaf6vS315dkxz25nymL3DdZw8dkmh7d1nHe0s/Q33Yw1Y2z/k6wekEttRZn+UtzCnKNW7RKbVGNiqos0ox1LTJYAV5HVbku2yDTufAkyK1X0NSgLAyy61QLLgZ0SGVYtm41mltyNuHM5Mx4zJr2cWlvjv5K+zLTGsm+xucpzJPisrIusAInPp7FEd9m0z/aCaiiO4qTLyXynr6NNc4ahSY7fHNhn6WuxtlLzMbK+/zmF2nJtXOS2vquyal64zKHTB9/eBHMx6zL6yRVhMbP6HSfDo4+IzzIw9GmkCryWhabI7bjmUiWOBF+5w8QE4tYqaywayLTF5lu1Kq7SuvUUQCWOtNfkM1stkBaY+PoL1A3Rfr5It2itoZCvNko+vjsXc+HVtqaXRMamNX1VVorrRjKDPhWfCsWsCAATQlYALWAgIN08VW1eRc6XyY/ubANrTWpyMrxLbJi+PfeLjcFKz/WoydcAp4K0K9u6VK/lVZ87IsynSqY9YEJn+Id4zd8uucouKNQSZWNjxy6Fq6e0gqF7FY0yLCIfXLUXuGcpygPoeq31F7hqmfhhxnYr1tj1MzrhM5o8UnFcNUCVqJuGagEKbFY4nN2mHfn5hnG/JtPx1VopaUoIJY61rRt2s7Dj7NCTAZiWDn9RMazjLrQYp9GyBozCF/Tgyn8cEngYtU4ThCNTlBveP+NHXcuwg8r8eqn4AIg+pGz8Usr1D+rNS1uKVr35C4tHTZcfCiVACpOcBBNlgqROV9pHBOPWttd9QPtG+pEFGpYoWdmKJ3OM4mFDOE4ampwgE4iMIJvt/wftR+1f5/AqPQ6nOWmMpMVWELajHk9h402ncfdZ4rVEQsbGg4oljtk3oForssUR7HafZBa1hlTpp+xQ/bNCNxVEKrqIRCR6Im4sEaL+GWHQR/sT0f2lO1HX8SI35vTf5L+HQMyE4ooj7stZu9BAtQJsYKKxs52R8r4VIpqd3yb3RKRWOb3HdhH11uEFI/UEEYRiQAYTqB4hjTUAghiwmWThAOkTutdex/FhLVlLQpua0c0/2y6hGYvN6gHdj8R27+Rv+Kvx9Qn3yiAlFdpLuoFVVYLG7W/wLGHBv9A+rPzUaL+r6/wB7nKc5y63HHajot3SIP/DYNhFIblqaBGXbzsczs+nbQYlzsVJyN+RRX88DCZDMxxq9tlMdppV3tj+CWKHr5QNC8LTlCdxRAIX75QvC0LwPuLubjWShdleh7373Cfeu8j6zIyeNR/PTtoOdz/GeSs1Rh1m10Xq1lrRSXb/Cuocjef7agbhiwNst1A0JjTHRnL0FF+TUJ2Z+w/ljHlR+giOZUnI1rr+e/wCG4n75AgITss3eJjNfP/jsb+hv4qdz/J/JPytwKvjpJ4Kd2NWn1vOyo+tv2eGGDqI2m3yg9GYLBJmZOwpLECN+CctngDOIE5QfY0JoD+Ymv4+Ru5WHpRPH+Sroqt8jh/0tt3yWs3QOkpX5sutNC99mtYSdVrt7PqnpvSxqjulTDvaw19Vx6/qq6LRjB2Nd6M0dJXyNNOoB737EMHo+tzLt+Kne2LcoTEG5m3bFcc957fHT4dOridJXG0stMqTQv7aGGf7A7ZdxU6A+zKFn7Khouen3smBS04aGhPyHuUJB/LuAHXFp8bz4nnwPP6Zp/SmeZb/7B7hMQbOTboN2fwUjk/kH524S/Fj6nSjsxR9z0oEPo+lm9lm1F/7Le4BqVnbNHIg7n5P2fk1uUqNqPQlVBaDGWfBXPjqnGqf25yWcxPknMzkY9hVLrDZaW3D2bGFSN2R2zGL9aUHy5fQCxyIxbSDQs6n2M0011DFiowjSv/IrLGlZ0OW436sJE5QtKwWldcA9VDZ5TZ/h1OSzms+RZ8qz51nmvI8aidQmLpFdu7Xi/Va/scw8afFryy/yPua1B2xY63s7JmjDP9LAO2t2XeUTItMr25foeMqV6ThV7uodIUM+MxKZWgX+FPXsnuW/4ljCTATN+s/JGPU1pZliJL7O3fcHbNMde/IPPDLGM3NRYzkz8TqEmcjDqLqD/spO1IPJBPiBP1RSS7YxSmgGtpxMemtoccrAIP4bi2z5hEblZLf8D+tF9X3LRVfbZl3hNlUmVeBGs5HUX8Qciv1rzG2fDrrGO/TGfiVxjsAQ+0HQ2bh/bhf7WXkRbmac4jCtReIl7iLnWJKPIVuFat41e41RH8T6xxto/wDjYfs24n4xCrmO+VYtegnETNv4LfYTEOgNkrsytdDIb+3kHbeN6w2nKIOmO4glh6E/36SVA/MtjO1VSut2KUCtxlPczbCci3I52DIetkygZXdxs2nGrLsrRPIUmfRw9RHon3jLpRG/xdNv8DT4WAz8mti1kYsTZYta5NpcntqKNhceCsLBMy1QHPKYY1iOYP1j0g3F/wAHmuvQ/R+09WU4ORfMbxuQkGG3G7w3Jh4y2uWY+O5v8HiGXeNykmZVbTMVmlV7JEy/79eQHtXO4nE8hdFspvD0mGJ21dX0+OWLpagqtZkKo8x5K+8/BaIljBmtAS68k8hKe3+bjEt3AdzKyJYxYyn/APK57Amtyw9flf8A6jcPpIv7jL9fyEzfrLs+OpLV3zRoNTa6bFxnGR4kWq/hsup7Ma+sJaVmHbENbnFznrlORRfL67NVZ10XyDSzL2LMnvydp+MvC3VqhhYu1/pl4vQIEKTTMUXSW2FK3YsZqFeKf7VtTfTfiiN0v/rr0sEoH9vlBB+S2qu0PgiHHuSbKyy36rfpkf6nRj1q0y/E4Nobx3AZgvx5jXPyGVyON5J0ez47Zk3Gp/n6N/E3k2Qa00ZXEP2nyWLOS2DserrNIzkgj1jf97sDNTgI/UsPQH1c7fv+FS7ZRKjBP9euo0sAMtxqXjYzKPlKsct+T5bBr8myVZVxPzMy5OFU7fFkULQbA1btwyqzZWbCspPOb6b9hlq7gu0XdIGUzhLKg8bHMNLCcJ4pAct1UDRBJMfez2+5X+xoPwdHBXbKIkBgeBtwejG/SJk8zThHLVUIlhieiJ3vU4CajrPJ4oMOlHPU6MIMIh3LEDB6nSfIwgtM+ZoL2nzQlTMAAXwrLG0WbrQ56JmiFZnBLQNP0eMUfBxKlWiuYp7BgOx6aNMj8KxljhiD8yxHu39oJr0BCu4lKuuX4h2D4OahOJmoeGYIWuE+RJzrM6MalWhxZ/RuYPH5Bg8ZkRvHXrKMHJsuzvG8KH2C8Iiz9hPZnHvj1QveESKkIMDRWiPFME363D3Lh9isZJYjCZGaMdafMYlhFqt7EHpIhgM3Nw6MNVZhxqDP6XHgxqIKaxAizjNTU1G/MvHR5dgKZZg3SzHtSH9n+lncQdImlGxD9ZW0QxXitAZy9sNgpqcYVnmsj+qyHqEwPIvUKPIVuVt3FeCyBtxTEgM36Bm5v/wkxo696mo2PS8bxeI0t8RWFOGyqmO0XGsixB3Zc4i5FwahvkUGK8Vpubm/TDqeev8A6fBmQekSIveNlXUNi+QosKOjQRYpgM5Tc3Nzc3OU5Tc5TlOULQtCYZqD0J5nI4JjWQpxKxYgnwiHGSWYnE69BtQPA0UwGbgn/IrRdn8O7PtkiEd2iFfkC33UNjeZCynMotC3rBZA0DQNNzc3Nzc3OU3OU3Nzf8BHYIl7fNbX9TQ3JVHaxPTNGMvWDv2pgM5zc5aF1hsuSUDlZwmo3+NX5bNbDVnkDkVyryuZScbztRmPnU3QWQPOU5TlNzc37B/n5S6LAmwuxKTzCiIJ/8QAJxEAAgIBBAEFAAMBAQAAAAAAAAECERADEiExIAQTFDBBIlFhBTL/2gAIAQMBAT8B8LzXh2isRhZ0XjscbJKs1wXRRXnWIl0WaUf0bHh5kjbjpYssRWbyj9PwUW2LjDxWXhdiXJJFYX09kI0UKNmwcSsyxt+uxYi+SL4NpGJRNYqx6MqGsbjcIoa+hYirHwaXMVmUTbzyaSj+Cf4a/DJS4KIxy80zaxRKxWE6Ls9NP8ZuLOxwIG6ka6sjE2oWIjKNovBeOn2ODi6RDnDEyUiUbRVOjcRHyRf0IpM6Lxpv+SGk1yJKPWGXnXiu8WbjYJZaEijaMTofIxYjOSdkZxmuMMjjU1NiJScu8IoaNptHpP8ACHpZS7Pinx4EtJEoG09vKVkdJrkhquHR7xHVt0y0iWskSluxRQkniEB0j3KQ9dj1ZsubP5DtClZ2PTPaKGdFs/0tvsb8qG6LFJDrClRKRe4ivBrG0aKL847f0kkSFxi6LvCiUUVmsXyN/RuZZfI2XhYXkyT+pOkR5ZKPJtKIplCj59D+qxv+jlm7jEuCMrw3R7iPdPdPcN7Nzf17bxHsos5ZGNYnjs9o9s2L7OUWXXJ87a/5Ij6jTlyRki8ONm2vCcr+z2ps+PMcNvZOKPZSQk6ewhr6keGiHqIy4xqY/l+EpfmX9nqtLXlLdE3zj/6iLVUhVXBH/Stz4F7+m77PTa3vrlG2KNadRr7nlpMn6TTkuiH/AD4pXZ8P/SPpoxJaETTioKkavCsk78KNpXmix+O6iMr6zVol6eLPjnxz4x8b/T4/+nxxaCqiXpZLoenOPfi/LWn+EZuPRD1P9kZp4rwoooo/ChwizXUU6RWN9+LJO3lSaI+pa7F6pEdWLxXgh41Z7VY3bz//xAAoEQACAgEDAwQDAQEBAAAAAAAAAQIRAxASIQQgMRMUIkEwMlFhQpH/2gAIAQIBAT8Bv8OR0iWC+WScYjlxwRT/AOiOP+iQlrkxKSNkl5IcDZfBvi3pf4JOkZep3ukNf0hj0S7uoUvojESsyNbaRGD7q7M/6m1I3WzHPitELS9Zlm4cObJavvm3u5MqilbMUEyq0s3Flllk/wBRojDRR+9FpXZWnWNwe4nk9X7OmuiRY5aReu8+ilXIslSN/Iyxa0VpuQmmdRBSiQklNoxZKN+5ktVIsnMaN3xP2JYDFDjk8FC0uj1Ue5iZOo/hLI2epKPJk6ybjSI4pJ2YUttMpIyR+0bdbGMv4mJJjQqsyMlp60UPKqMj4FpRKFoli2GPyUkPk2iJqtXrj4NxFEySMs2i7FI+tEWke4iSyRyM/UTt8iZyJ0Sd6vT7IwlLwSjLH5HkkbxdWpcIyfLwODijkxrcZviet/DJKTQ8TogtoluRsIxNpsMi26IemPFvkQio8IcU/JmxODIohiqVl0N7kRnFS5J9VCHgydXbPcCzkMkZLkxY4ydsxrbI8sXA+PJPPHwhvcXQlKStI5ZDC2QgoqlrJKXDMvT7fAvj5MnUx+j3FGWW7kcpSZGEm+SWN3wKDQrRjk/ojo3ySW4lh2kntIOU5Uj9aghpR8CVdrVmXqFLghj+y+aJy+hUjybdMasxwrtZlhZ0eKm5MUv/AEUft9+5D6hRN1suxySI5bJS4HJmHI3wY48dvnSMPhTIxUfH4F4Msd0kYFN/GhYGv3MnK4Mcm3RGDa5HjOn6dR57qMUL50v8Cwk4qMTo3zZ1Et6oy42vBiwKPJ9mHD9njuqyK2qvxbv+voVSiJ06Ny8E0QtmHFyRVFWbGemememj00Rgux96ioxFNRgYof8AQsEnySj9EMJDGo6Q19Q9QU2xfjlj+NGPDEwY/UlR7RV8WT6eXho9PbqnRdn1rjhWl/iUD0ubOmhTsgze7HV/Ilhg+UyWGUedMa0+JGH3peiGxdzL06bJijGpG2L/AFZ6bRz9j/w8IaxT/wAM2L0vsdsw47d967pF6ptEOpyR+yXWP+HuCWexZmTm5OzG7dCVdllnHe321oiSetkeokj3LPcnuf8AD3P+Huf8Pcj6h3ZDqk/IskZeOxiWt64IfZKCkT6f+Eotdll98ZyRilKrZu02ldiIKlWrin5J9Mn4H0zJY5L8CMcdzo8ca//EADsQAAEDAgMFBgQEBQQDAAAAAAEAAhEhMQMQEiAiQVFhEzAyQHGBBEJSkSMzobFQYnKSwSSC0eE0Q7L/2gAIAQEABj8C8ndHK6gFbyplXKflHFACYHBVd2bPpU6/vdM0RpbZEYVtVkWPEtiWn/Cbi4bpLb+iDgd0hFpkgGEFVQ1VUqcgAVpy5DydFGUFQpKorZjE+I3GcJ4qTusFmrdJPQLgPdTLljO4tLHSuzFBi/uhjccN0n71TnYLqEagF2eINJCc58sYPm4Lc/tVCMqKMrorQ1SVBHlSFTZom4mI3ViXjgF2mMdThz4I4bdTo5LVhuHXmFqxFrNzYLFb9bIlHWah1OidhuprEFBmJcbq0kz+4WnFn1CAAqOKIgSpOVL5UOQKhT5UiVOxMI4jhOHh/qV149EZ8DbN4e67NpDWc4QjwhoLQnN5XRA8LW1QcOIkjgu0AOg3HJa2mxp0RafVEg3WkmVDSEJN0WhSipUKch5UjZqobEmiGHNrwoYzQz909nNECNTrpoB3nAfsnYbPoRE0lYjeVEQKDTKJFFQQqqQggIUjYBK4KioaKg8oRs0U/NzNmr/JELS3ef04LW/ed9IQpVBszppKnmgieZTvTOF1y9E1xiy0gqea6ZQrqoVfJwrKyk5SKqcQaQuHRFziWjmhAHSVAriFF13Z+2XsjnXLkgtRqc651CEHyepVXBQ3It1XFOq36K4Wo1RxHX4BSUGjhsFWQIVqbMFagqKM6qG+VNFCk51ILuS5qTcqCgBc7EcV7L0VFChVXHOuWo+dlyLWsRJ9k2akrSLBDYlFURaR1XVVuteK8YQPO6ljxiD0jYCplbzcBScsLEH0qQNqyopF1DaLt8becPDPBGCtDjKJCOQUoohT5qcy36X7dVAohoJPMqYoiJhEvYJ6FMxWfVBRTpypdRnKPkbq+V1fOFdRk74c2xRT12L7WlPJNgu0ZRs803DJmDJyJOUKch5qiooy7bTOM2oM0CdhvYQ8fqqQ2FPaLecfuoaqV2Sx1igxogLQ1Qpar+XjuZGQe33WFi/CmWudVqMt3mmHLdqDw4oY2O7dNmtuVTdby2JWocU03CoCpyeBeNuvla9w3BNWPXb4Qlw8TeYQePuFi/BfEEuxG77XH5mnajgq7LmgUNQp2PXageSoqhRsYPrl2gF7hYWOwFrsIEHrPeUgOFlpMe2dsrK2xXZnZjanuMNzjAlauCoFOzKmNrW+mGOHNaMJut4+ZtlaFMBQFbYhSqeXjLSMR0eqgjU110dOGCOcqXNAb67PRRsfiO04bRLytDJw8AcOfqqCVXEd6NUdqdPVahVUUlQFdXV1XZsrbNNuVG3ATcHFaCOeUHONnUVpE9mDPqqKbq65qPlOVM47mitnXYiFVWVtmTnMIOAspC3VMGFKnYL8Qw0LS2mEP1WlgWp6ov0yFc7ZaoUZz3sqinYplAUqu00iDPBQBXLViODR1XZfCM7R54myDNWrDbx+oqCumQ1XyOd055dDOfLOfKWVArFAaVOgKyttFaw4h00hH8SPZBsue48yuxwqz43c/wDpcgunNfspdda3IlDrsaMQnQ66oPL2Vu56qPuVujd4KyOC38x35h+noqrk1RENC7R3+0LU6y0hdE302a/wGeAVL4hj2UEKGx23/wAf9rm5SVoYtTrLoq34LeP/ACqbreHNCHGY4qu8FBoeuUH+AlyDFLPDED0WnBv9f/CgKStIUrs2eELW65QbhWF3K8u4nKM9TbclrFjsX81GY9U+QTIiih0Bv0iyopOfZNubrtX2C4jC/dUCgZakBmW/K63ko7/oLbRPJaitMxgtv1WlggBdFMWWgL0ROcfwDQLlV2eq0/VVBgoOJQYyjQoCooReUBzz67cKVG1XyMqXZOeTowmeJ3Jdkf6tfFEzI4KUG81C6uzoolAcAuioqdxVU8xpmjVW5yOBiYWphTmNZiBnrZFwoJoqp+J7BdFqKgZz3keYLuPBanWUqik2Whtsxh/dHEUSZyhdVC0+bsrKysrbHYA+G66ZUWltswim81JKupzny9dmysrbBceAlOM1dUqOCgKBdScoTneyaOq4qVIjLjJUKyuo2ZynvqbN8r7BwMO7rrTx4qAtZ8XDKApUoNU8hl65dMjlOxGxAzc97ZBMKWO+6q099fZn5uC1uqVK1OsM5ytliO9tgqyrcqhnO+QpsVygJmGC0wOauqQVVukrnt17kveUXOtwUBVyor5WRORdzKsozkigRO03nnuq6hayrwVRytKr+q3TCtPoqV70uJoFP/rFlAoqKJ2NIVqqBkzqr5SQoR5K202LreynKVh4DUYmBZaXSrqljdamyBzlD8QPHqgMTdVCCqbM50VlZdkHSBdUCupnOuclRlh/05Wyk0AXqr2U5XyC1cFLMMxzVSB7qHuCkYkeyuHJrThNMcYqpw3OZ0lGHDE/qEoDsCz+bgtUfZ0FEdo7+nEbVOM0K1OsLL8IuLui/Ha32uuB/dS0zkAhmXOU0ARwsElrP3WrUtL0Siq5RlU0UDPCr8ozrYKNmmZ9dn1yrVUJCrCl2BoP8qd2PxBBPNb0FvNpVR7KJhau0OrhX/Co5zSL6XVChzzijmVwn9VqwYP7qpVYV8myeNlZVyiVXKm2OgUnOu1OTfTZ3xK3H/dWn0W9RaWw6bgngjPa4cc6hCblCbregj0RcGFh/lKhsPi00K0uZiBvMqjjHFBrRutE6locdXQ3RcRpWmVddVJvlRS0ql+IVRqCpfKQo4lQc2T9QRE53UKiA5bIHPuaiV4V+HiOA5SoIcvA5eF32QLcJ7x0uo0YsdWqC2nVF2GOxP8ALZaW4ZfFoTDiN3j9wolGPEKhVK112eqjEHut1VW6qyrq2QJ4CV6qlVbOVOyPTu3tY7S6KFOb8VBg0I7ioVMhjCb1GUFUKtnULdNFUK6uVfKykHgvVSuK4KgKhUCrnKdLZPdxmI5KgaVXDVlXZ0vFCv8ATvB6FQ74dx9Kqnw+IR6L/wAfG/tW/wDD4g/2qsj1Co4LhnQH7KmG/wDtX5OJ/avyMb+1BjPh8UTxIhMOAJLaO6qCNiqhXzKBU1M8Ffua57q1YuG4BBuog9Qr93ZVY37L8ln2X5OH9l+Uz7KmG37Kw2pLQt0lqpDlXDcPbbbHJam91XYLW/lMoOuXZvlzeBXiCvPmd7DafZeAj0KJbjOAHNa24kj0XBCa1z3cN59l+Q9ahQ8u5siG0fiboyDRxyLVpnUOq0k6XciqEeZGG3jdQbFdNiy8IWpndaOGEIVEelMgVK6pvZmnIoDHYR1U4eI0+6v5UuNgi93FQtB25ClRtSU/EPzGVKeeuyD1QW7RbuM8e63iHjqvxQ5n6r8PEY738l2TffY65//EACcQAAMAAgEEAgEFAQEAAAAAAAABESExQRBRYXGBkaEgscHh8NHx/9oACAEBAAE/IfEUQGhelMxPKe55etBB4MhtCe4tgbU24Tmj0KK6idU37H5MhVGYDlXBRjNgQeERXIV2Z9v+xNiOZn9Bp0FDe3yhF04jzvX2ULHo09vKOMbnLD7oIhI2jNoToO6ZZR4NkKNIKLBPIpXC9hXzwZAQtEGmhLl8gpCogkIRS/ob+kFnXpOUMLn4LQcMCyUSDJh0wQ3GkY7SQ6pfM+otapsWKu77I3qvChk08DMknXaML1KnbHky43nPy/cWlY2bDThPwJqUzjw1p/wZY94NHSHIyuckLDyyyvQxXN2RUefRkG0ZhhCDfsdz2IydSFdGxRL8DPg/RsocxBlDJknUJFgWuiN9EC6tIxkRNybjMdCu2f3xYCloUOtuquX4E8kNuvx0iFtvOL5HYzq51naPIvB5y6aRcJK0VTJhPgR/1i/A03ROzIuKvtP+mkhd/wB0yVK5uODASzVsSiwexxmGcmhRloMEL5KHGTGVeRAhGuKJehBC6DdHDA2UMZSE505CZsYcsj4K+R083owqL0faCZDilPkxr0IU2pveNf3MhJZE/k3JAd5jRLeFyKTznPWtvyLjKP6cL6VGY6hvtiz+DF/OwtOwnXc/tySr2Mt+w2ty5tyilk2Rd+u4sIB+U51T2XBh2fBZD3RgdrpOoGRgN5GWyCRijDBJdBGIKh0EjSdGvRidi5DYxusa1ljOeRuEJSFE4gXdkIauXfz8k5vyb/p7KM1rTDJiaf7QlQJV8xn4E8Ndb9fuZTZF/I1RMvxUMzYvkf8ANEIbQg07hNX2hLc2kx3VP+kJsFj2Vl2mjRiPYRBwLFFa8OjTlmX9IUFQbImiGIZKNsTPopTrS9C2PJVaI0I2u+RkPUH0PUI4k0V4R/yYFV/2JGQ13xhRHKbp/wDTZj/fo4SIoeNjqVnwMXbrtvrBbN7B6L4oSQm0Yl5ETxYHduApsmiTKXZgehTiPv41obDAS4ICjOGHIQaiT66ZRnBulCCJo26NfotkGa/g3jSj1j+AjvJkRJD8hotwwLPdHB7XJDpteGeZ4Rls7/0Y4oW++xVVzbfh8Fw9vBoR6Emu6GhOSm0QwU4I3HkVh8CYIKEdIWr2FomIdgKSTSMCg0NsXBPyRE3wPE5CgnCYNBsbIqFOsE44mMSRyIYUtZCQuDE9jyuLnXWJEy0u5cGAW/Lp3s9DmT2+R0j3cIrp+PIlaTZ93yVzQrJIzlMt7IIwbD2GieEY8uwq9D8jUgpERBFEdJM0ZmNP0RvLHoi9xhJn5HPbGG6G+jy9K9XYx6bfVadNjA9DkLsnCKgxYTFj7GxVrLa+WIm7V6aHpH1WEuEYY/oyxfIaKLmjGSsTKiwMx/Ij1wYlZsPP9Heh9jIqKIhRYqD04fst6yqUoYb3yoGKZjaNRIXCZwKxcwydUopEuhei6PGLAb9CqXoU/GxITKi+USEYpzk8DbHTgmSY7UT9jJWPRwiiMLBmENFjtROFVtFOmbmH8lHgRUsNKu5nDxXdiTnAktb4HNS7lF8DE1gbAwDM8WOTU4UG+2iavkJINLQ90NyHr1zoQ3goQbo+OisTLpeqK1GZERcOej22vSEIKlaQ5RZh+1gqbnc1NrJgFvXz0STgoP2CN6uP4Nu9lC5BX+Pkon4p5EHIeWK0cLmx6Ga0Z0Ux6OPCMMY26GqaFmxiS5NMaiC6KMXUGAkCO2OrDFnTJHkcnjQkyFsJYhsuTwNHdGV8v+mqbE4Gi0NHGjQ+CaRC+qLVL9wsRh4wMkW1hvuPTz5/EZIrAJ3cjszwZlLBOujvmOKzkWc7eSztuFyvPRF0JjocEGyB5iruR3PY8gpcj5g8GBOz6ES1Ci6ZG9K1WRJHgumxTzyPgPLLxRTloTxBF2RuDmZia73LcrDEJdoaWlVpmeEmM7EUHporsUmnBuhhTFXIEBZNfIzJPgd1jkcEgwxmydDRwgm7D9DRZbPKO5HdCKnTCUejyWzgMzzorCjsrIxCcHFckjBEmr+FKhZ23SmPU0lHBvItq69EFseQz+DklLL26Y5Q+kFLGitm52PYqAvSJMReg18zCjUWKRshIwSVMmQuqCqGadBKjKDEOTIZHyZm0x3qORVgTcs4QxbmbIzWjt4jjn2OkxrGVV5OJhhQTlQybC07onU35sX4FSvHLyv+lxK+ceC/k7Ks2H54NYy4XgkGnQY6LuSuwESO4J/7IPen0GrPKvaHdkpEI6ncHlCPoXVmJWh8iVDwaKyWqHNMTyOaFr0hc1E+xkPAqo+FGrcRteSo9rSLeu4dTyLjo1tTI8UykakYsUWVT9PuMM1gI/1UbOn7h0kO8D+H+4oWDIaZG6x0Tq4KqhRyhmhM+xM9HA0OX5fhmULIt8ChUtIX0xkAoCxkkJcs3MGbGewppj8m2PwO0p0ymxIXUDSpqCmeRWkosxItrWRm1hsQGgkj6GG6VYy+othLP/Jb3CmnHx8+fZcZQ8OH2K+ejPg+DeiFvk3xk98jHYRqZtCBWzP9hka3tUyUgkMpfkSEyd3RjVkA1UqbgZeezCMjjFyxM6UFzLMjUoYwryMVEdwdozEUe2RFbigpTQlCnRHiHzBua4KVI27UzRryEsdkUIy94FCoeB87GUMeVMCB3zc6NsYRdv2bbwGf2fgY142j+wrza/ItbO5yqKMvBLSCVcKiie8hvKC0X4DRcMbNGkPHvyGMEVZTI00OEMwRRNQgtCGiniKb2NHkxH7is5Y4bCpsUJrA7ZDbUS9Qh54z38iruRBcFC6j3t8HKr/ozAsXc0N82OpycU6FwjMI2keinb5HbjBX/j0Qw/y4OXnYhYHtw2irM+RoA9njoIZiLYYQJeuOfBQkEcUEWE1ocIGGGbTZ2guG+MWnySUxisE0zk0C5NIZoQucnlsu4ZWhu6DZLYsyUde6i54RsFBvgG2aQvAm+2CbX4USq56eBiHVqXtj2xPmPdiKEEc00fnRmwuREyl8jf3sdjD8eRrEIc2zoHPYW1R1cnnEDDCjFJsfsQh+hi+DbPVoU8iywJlIQsMc9WRNIw4qYFLHFGCk4YIkOTJmcXQMai0IUWCZl0GWRxoncP6He+0G9Rl6ozhP6OaIS7leBORXJm3uUZLQTYoywTBBVjAhsMmdaMad7jTOWaFrsZwhxQ8AzBjhIdkQqaDq9Jb+EPsIWaFmixfRErDNEjUBFCMajIbXA3Kop4YbJWjiWZymZu56NiiXQ7WhDl68CUq6YGnFJPQlDO4U3dDGvkRl+xxdz0LcZ8IQ6UF+UNq56Dk38HYh+wwyJb0HKDuvwZhGqJmIu6W7TAzkiLCQpOQqFGDmV4Gq5JvRTpLIkrRLSiJahbtGF5YGGk6fnmw5IWR6NCdJPglDIdkeDCQ+UFaRn6tmyV8bFk0QFab/AK6X+UwSD1l2G8Y4IktXxSt3ajTuGYDspo8HKMjyzw+UhEBqWNby8GEhyxS+30iBNsZeikybhiGiryd4XUN9xc6yXuuhiyDutCuj6FrpEtDDQ9SZsT0FRBpt8Islpc9jyLI16p4F7r9DpHiOHb5fJVKNyamQbwRCGWSZgwt6c8sSNM5XfyNM+mNqh5hG7Yqawi7LAhw+BUGIrFPgzckQsxdgSvgU8C+UeAghiRmwjQRCGSNq6RdjAxwTByGWKM8jRyjTI4ZZpG8yR6b/AIQ10xbpGKG8FgGln5uWXT/RgSIKw/FfbJtMJD4cDgvxyJybFMBU6nIlNGXgQnleIJiTTfsgRrdHFdZSFsEKJkXFKTDEIajIbCEadHotuFIY8xDCXAe6hDoo3+gToTSDuToFUNDcUv8AqUtOh8f22ITttZjX+cj5Ve33IJINGWOLuNpvUQCpcl5e24OcrZselx4ZuhLgRslndNu9/wDwSyyloKmjt0ieh7osyyGrNh5gNUJF0IeGJbUNFj2HTPUkXpQgqd0KyE2oRJ8ig1JXnP2sCunD/fdxpoK7L4QgNRZE2yWMyYKQx/vYm1IWmMbeGNLdx0Vo0sA15QvyF4MwHLA23yINheg7grz0JSCKLvCRvY54EMjQDeTD9KIP9Ag4mKhROB8Hl0dteOxEto0HwOiTZbuFZQbtmIjb7v7GAgLdwoIwBNMZRcmK4+CdJCiyjT2hRiiU0ImCg1XsQELI6UhAxgGCbs1kxy5eTBEZZiqAp0owtCMOjWTArDUPe3+MaU2R3mQrSrwIoxzeyxtUNWjzkHYv8EYSSUKBERoNqfH8mT00iVvkbTQ15cIWmM01NoVuPMWWzEO3yRQpFJQU2PC+BOiEFpRWQmFPkyhDBdL0aE+lu/pFnZT3FsPyRFyH6/sK7Lvzu/0SCOp5tdyFX3wO3H3DZITMczEW5/Y3rELAYShoIbPDREsBuPyPJHiG7jGjDkVaz0rLA6aY6AgbxoVAWa9iRwKbWe2ugILo2JlGJeiDhEaR/kJjOzcwyteyv6P5vcwGLX7QlVel8FMnwf727kK6uiltEWF5EyikVIrM0+5DERbux24SXwVrZtZYmZRGngQTYjFKpDkCOpDtc9XP6BMtBcByOhJzFIRehMolEMCjF6MjaT2Mx9Qc1HCyG5qSGC4UmWNcEj7cu5F5ZeEQf+EVdyJyqIblYRmex4JYhYUn4PdjZ0ehoIo0IWonBoyplMGYYv6DLgqOHmRIoqtGOA6aIcswUSHrr8E7hzAq9inIRr8CaJ+2KWS/cGXLE4U9n7u8CCnd44E1TsIu0sv4GwcsSkksC29kugOc2dk8eB051G6z0Y84gmMQarwJ5NbgRiPUfkdQlshKAvyIYFXAU4DDSD7hwghaEbGRCO2JPKJdiHCKnA7aHaQfgeLpueid9Bxcpt9iMDwIEoLPkdsaNiwWxNK4DEfJciEbRfBlAiY/A35EPSgXA2R5MsD5hGuRMUwjWBnkR7D2NiFGY5OJ4M0Ztj3uGxo+aSnvp8ASjYhGBQ2lB5yvuZ7nyXtEOV0XlJjQIYbic0D7gpYDB+WhvN72WzWjLvhXQzNq1WeBk28v4GjK+Qlzi+xnOKPJnTMt5HAqNeTwX5Ek47GWGqcgMgkUxSU63kupB1mx0hUSrkH6H2dXgJMBdy8T2W2hBoRGRj0ISJR0tYs7sRbZ3zK7mWU9qtRgc+ERvlkQiP8AbgTgbDgyxTDuC2i1Rmn2DFcDdqtsd5iJTarBpGh2iBNcI7uiWHL12PlPwUyiEmu43Ns9oP7wdtqJ4k+DZvJ2IpcuTKYPvRLWaeUPH9EZZJL4ErgRGEUomTJIYMDfALQmXQZQ1GzHEWl3PWEXSPAAlcYuRDE0kjkAu9CuDZJCQPRyB3IeQ1sO5ZobeRu1WXoTMgVZI7EKqTg01qmMVGYiQ9B1s0bQwGw+g25H099jDVZ2UbnnsT1qvhwo232Ge+ExS5Tz2NlDT00/0OLXSUhcyDY5HbRQWiXcJ/VpifuAmFaxEOQ5y9mb5Y2Qygce8glVdEXV5P8AJrKMFtZJM8LwvZhyw8lNR3trA5yGvLEuZ8GA/JUfeFCxt35HxMood7k5CmWcv5/oV2IeKRuAW7sWTJHdet/IpKLVv3Q4ck1lG8ejYk8ZJUt9mazK0410MvpnAguQx6QTS6zEoWMUxXERdbySbgWNZXk4MiwjkyngT6CGu9xOVI+rUnwoOn/wIzWNEn4chk4gTcT9mFmq0yG9hNg2YmPkpsEAs5QfAiXBiosTFSf9hmVt7UvWRk1pTYnvf5KlO22lbfP+2Ou2aTn7BRFPXgV4f9jamej4LG/nGL7ADS/K/lwYgwJWL+SlhpiMyAJipnoAM1JbbZoEEb7LyRQ0USKRNz2NmzEWhYHwBa2s3kR+SeUqG+lL/ChpCOaJWyC8E0kJzS58ndR07ES1eRR4DpHcMlNhtJFo8poV1CPI8Mg26zA4Bvx5MtCMvKMmdyk/Y5Jhnv6OAm+d4wzZjOu/pm3PiPxlMLD8O+RA50oSO8YnnbxsID+F4Ct71mNB5xuOJo1QTms0kzvkBPYeURg2V+w2Bs80SmeQl3QoZjqexLphjhkqGxKsVuLklZoQ1YBCNwqnENXaaKK6JrjOj+PJXKRxhfkpQKsNexmUOzLJsEQGNrOjPbl6F7T5CxG+YloizSXlCgRC4m30ZRlDUhXkXCMwbcyod2A5fjRMp89q9P8A8MnVmdnhMYRegaEqZXEJ7MtuGILPlbJDV0+5ryvs1rVMoNYZIaL4YGH1ikcT/GdMmsNeSHTKIg1pkkfL5EcMwkQ0I2v5CAJ9Et747dKFiDUiSjsE/PQXIrdpzKd8HMGKndCaS8FFujrELyF3vx0uh2I1L8DaIiQsVU3NmXhGX/EcIHsY4DuiGCx+0Kc32oOBN/1DuwjJt936Gkqvf5PY1Vn0iSl1QwG7ovRO3JGSLOSX2NpOdwnHn4bG1YphqQ+TJr2PKiPwbS+MOaDZbEGLMGCt3wFEdL7JpQ+g1b5HKrQ9Z+SPbZgMnFE/9Cza1XSfsp8k1KeQbosCeRCWzpZjITvj0+Bmz/J0eFsnpcDYFDkTHqnS2aH5glWhkomXqEp43sdntolouPkhCI8EODEJIMk5hYwIaggXI/ATvc+jfp7HPmZ9ij57kZWzwMinHcR5B6gZwSj7MeiVwMEfg5a/oYspCiFhe0WlvS5MU0ZTkMqj4HKGIFjkqeExG/Yn/nQW7nYXsqdINqQYwvhlDJYZEGmNbJkMir3LucgG36IEUBy9xXzOALyOKkP+gk1tvTNwkIbcpqPvwN+PkPrP2jmr5DZg0vRFJ1Ei9mxZAn2aHbbwr4HLLee0KbtZVrX0JUNeBrh/gTwX0JOKyITY9CFNiVvDZP3Qv/0SymYso4YN2E3cvH0YfQ68C0J8nYY18IlvgPST8bEkZeIVYCj5E87GEEkMMvQQSmVh9G9B5Z+JKzyYn9Ln7MSlr6iOy6GhHboZAF6HP8oJcLvS5AFKPB5KsmsmWVR9lGwrvZbLpBcp7FeVpXNyTY/uU5PWJOzNzAuwnEXgs4H6wXyKa8ntcsox+CuUeHKECO+YL0f2MOx1F+wkdJI8gh8kROQXrS9GNzpZ4J4dCrgS/f8ATJMuRMCZBNhtnwauvC+BDsulDul9AlKXyMMTtNAt8iXuLLfRvBxCPkXQ+W8cv/dyEth+0QsQSni3dGApV170xuEhPPQ8oujPX9uhicZIPbo8gjT6WaHsIIwGP2XvqKXMWj20KJ0G/j9Ejv0CNE/3Hwntdjg5DOUznpNAuJmhwVvF+9srBvHQZOTADUotLehPmvUeiIKw9RqGeP2KemhJ5DIulfo1/f8AQvc4Dw8dUhBgvIP5J0I/wRNH0xihoUUbSKCIIb5hEkODxkj02Z8k3hizgqQksY2MQy37jK4cFiWyu1nbGJY6C47QUhrZvzCekVJeEf8AhiWvdKBZlPGX0W56C8xeX6F/IvkZ5B6LgosIT6VadhcRM9CTJyhPgmrpf//aAAwDAQACAAMAAAAQqBkwS2AiKzSyDWPOzbeVYTRqvSDYh2CA3AGC/EXdLFQeaHNlCloisLnuGUXkEDcvW3WDds2vWJK5DNSg4SIKi+qABaXIYvZ8KfHab2X+dJfDYBXT0KzljePrh5DsjEXCWTLL+haDt5XMDubGYA+/dfuI4iDfqh+nlyii7hGi+iaO1+TrRXe13aF5HilNxL6zKSA5IsvdzZJAfRbjDvWBd6UAHAXrv+pWUS36LCfU00wVKCfgfcGDsZeXigH+vcmlwlhCg6rWAp74AdaFgmPEIKYgnYD8IWw5DCoNR/sbzXHIPEAlYgkj7VMo43z8iHOkYeTDSzzvWNnW9oHo8xEFHf4YUWjj3f8Ac17karLFJICEm2JQu5kng33t4CO9llGtskfzGw2AHG+CvF+12mMf+yTUYw0wHUL72ikFoFFx/wC5P+OPW4lmZRdHCmT6CyOAscPfs/PpfzJP0UIq1sSglxRPyPO8MQ6Wj5WDOQXnS2kF8FKG4hPsuO6MekLNbjnc+r3QyivnAssuMtsIOaZFFKFDm9lMKw0sQmQAsO+OtRa1uMMzO+czQ7e5fVYL0ve+smOPMj+W5HMqXxAPI4FXFXnVfd1vLgnVU5eNVVhJ0ZKA4PlwLxYD/8QAIhEAAwADAAMAAgMBAAAAAAAAAAERECExIEFRMGFxkaHh/9oACAEDAQE/EJ+IokC+i70dbHNR0fsYUefKrQfq8GZS8CR7HyxrsM9CeyYUbLHRob8QMTxJhBJIWJhMmsNFS6wN6E+vxC0UW0E4nFwiGLQ0JoaNRKCjdwyiZSidLg2QrselIrGGPQIVMTSNx7Q08e2UTJR1DujWqUQ9I1jwyok1aI9Br/RXS0Q+HoFFuiw578IaIRMhCZVUN9xKRW3pH7CbCummkbDHI2W6NhoNm4pbKTE8TEhoo7lFQGmsSmMdj2oIcmbzHxggiLexMfkaAw8JfzYM0QowthCRPtsRa2IKRwiISimC9vMIX64X6jf0eiYT+0dUU26bkUKjVwloQUK/ZP2cKY1ODcbSkw0oqG0Dd7aE8AgFLmxj1+BofZKim2IS4zhWaiQbqVFiCnwX0KBm1BsMl7YXQ0V8bNoSLQnUaruBATUH9G2obDf4e8g1ZHQ9J6Q60uZmYKiYlo3oStnd4koYgU8yTDEH1Qx9/CJnsZURohttDpdFvhx5cENYWXl46CF1EoOKN8DnZIS8m4rGro1RebHURFhPoLixRkcFMEJ7xtPh/Ar5ja0f4mJlqEtDh6HwTuJxfZBKofyIGtVj/Xg/NJFGF1FQ/pEKr+z0BVhXY0VsXS6xxrEy/N8iP0jWinNKOq1o9CMZKr6+DKHsTu0NFBCT8DxBLKe2PzSgyRU18G5yNPR9fRTpT/8AMI1Uf6WFtX1CdqQn9jwTEqNMfkjcaxoGatD/AFoVEYhrY7DGMG9tBr15gjQ2GhePGRrCYhonTvajdw9RnA0NfpP0r6Jggn6VGN49OY8OCTDQ0NFPRHVGw7NCGIQngEEgx3ERaJBlBO9y1BSw8uamctR3qOCzTwhPAYi4bR4bP//EACMRAQEBAAMAAwEAAgMBAAAAAAEAERAhMSBBUWEwcYGRofD/2gAIAQIBAT8QI85Zxsl5BwNCR17kbiVdU31Zex31Z+3QLaxnXYTpseZzi3hrDbPORbN+bTrs6NsAyJ7bQ6lhnuLQUxgXUxr3BdsbOBtmZydxspy+rGaHcusJW8B4eGwR2DvUBlZECGCHxPZfyaDgsPWx5ickd4+EdlbGzEdHduwlJMyyThjBBdYiGG6sd8t23m2xuS/WZOmsdC/BwZ8DEyxO7xJLt/Vtk3IWzdF4LKOkh0X2WhsmNkO43EUGcBEga33sI5DmcGx4eJH6lxA+e1hJ6zn1wIj33Pb0Gd20ZlWh1dIc7Z+xN62k6d2G7G26e+9BRs/am5IQXY30kWQZDz/l65dursve2xFYR6WZjPceobfZk2wBYDqfWdG2qR6SvvgO4dTw8vZuL0y07kiEjBapjVk7keZWdOHq3D7sXOagu3TaMyIZPhsvr7gsIvIx06+rZ7uoTlG7YC9LO7skT221VpSBPycTgR2UN0nVnpkw6hIkmD1wILYDDqPt5mDVB67Qh5OOl0jnDX30aFjHoMOMjqz5aNsWEJ9mDH/J/wDv7dQO2P4sOMLiV6Q2k1hSasjZIGY6OfJFh6vynZa+r6/n1tl9j80O4HNnuEbbwaeJjQ3pZbBYaedm3gf9EBgm/nyXhlYXQO039IcniAFyC+T9RrXHbg9+TJ22ghNoc0LO9yr7tnUHjneRLCERDP8AOD5Zxga2xA2Di6tLQkD3gOELocWo/uPuiCOnC/4WYPONaOoQM52snrkM5w9Gz/NuRwhhnwffmzAfbJh1P+2+2IKwk4XxDQTH3jFr7eTyffkuGzZ2Sei/0mV72OoPcsM6Rbii9HXGjszn17jMRw75YSX5ecnXHbYYH7Xtye2+LGkU2bp81/5NhOj+Mg7b/QuHhJc/wVEHhDS6Tt/vuQ4i6+Ev1hW6WQ4zhM8scDNwj46OWQw/Bp6CF6Zz07LpHuPyhfZYiY/mb/LOH1eGy9pbye9JGyGIMX24bHhr4zD8DbbbYYbxG7Zt8YnkM+7B5D4LtekfxvVLHjbeTgtsBiPzj//EACYQAQACAgIBBAIDAQEAAAAAAAEAESExQVFhEHGBkaGxwdHw4fH/2gAIAQEAAT8QvcRQyln0l2WlcXpH5gDuLIZirBxr9A7cIQG4ruiEz4WfOcxBcCCAF9SpQAlZfEtB6SsiWeJ5Zewex2zK0Strd1bz/wAirLAAU9C2rxRrqPcRQ5rOsUr4gXcNYNC1HDmXnM3SDvbi+2MlzHzI4vMq1Yo+EyS9iGnFjJR1uvcg6Aj2jj+SKnEHOm7a5CpbFOXeMA+ZFPR1iGYN4zFRocIdDCFd038y+rb8RAOFLD62pnzXOUzDCa9FEMdHooywijUHFsFmbBSUSzgkqEXKKowYt8quGsABYA7mxDEa2Es2dSnx4gTxixyMPYPHmUkFc93KexyxUCJ26OXC+8pWhpZfnGa94ge5la95jnKU2VRXN4vxcQboHi9A6t0vdzFAoAiFHuva4HEALgfh5+8GAhSb09cPUy9HSTuMHF+2WGqhvvnlZsdksHN5xLhDYMDbGXozVDltOTW0HIFLRLGRyyBGKfCJIipVxE45lhBFNTCZQbBgIibhDgjZZgyKFPokOLhFvMlCT9qE8kWrYIfilWdbVSvkfhbamZYDWnWSfb+5kzK9h7J3Xn4lD0dhWGi0XjQjftlWoWXB6xjFZdGssJyV6lHNdEXkJiCNtV1u+OodU/LA+8vxLNBvJxv3/coDW9sXQs8DXUQL7odzR7Px/IThoKBTZxkMCdzbjOcTnGCvuPxcqhrZxuGMdblYsVcwKJURvipSvCTeEy0BOKZUUmCT3zugeYqIlyx36zoiWD0gVEGYAYiDuVFMa8GojM0XhDyrHiY4TgFbjJCHaE/9XwQbBjxXz2+uOajckcRK1yGVbxeCFgksVbg2eSre8z2mfkcpyV/jJAqCbZtVgf4OIJQivFCH4h+y4gkwjixxzmF2pmtSFj99IxQtsP2KZpuVcG2scwnCbht/D3V/xcoTKPc8e0yC3ZZAB0RVoQ2NPUs8XaHAF2arnJWagHs4CExcNzVhczB6jCIUOsRdymZB9MsYlGGZcw24RDuPSMmK4DMciKIVdcVeSXTRKew9HfFazcI5cDyYICSEYWe96yxf1MSj3j5qdeWTwQjIily2K0jvjae3E5QMQ0cBXTABWWiX4k7XEV4AvzO9wsnDkPaFfacVH+Mi/gJXIBoYEzj6ZiWCHhjPvaPiaiyWGxWRjvmWeHwzLY0pv6phM1Xn+bjS4PeS4OhdJXCePmCdmfzLfOEsWwiMibBrbHHgEqDWjm5XLOk9wAwcuS5iUYCH0vZjcMDXBHEsQgj6EUb9DbC5ZWLyAY9+BUe64YO7aOzgi1c2UFCrVprHG2cGh84Su3hoD5bLfNvgjeS13A7tovz9RSplcImr7smX4hlmN1zbprgrjl7iCLu8llB7twdm9VpTYH6hXWN+nkjtGsXu1Mzq4FdWf1HY4L4alB8ifJHeSDILCnv4njhIbPPmoICBFi3zOIEeWcQxQWiA5wuULgfmOPhNqAVcG6D8SgWIzCsnobEW4oiYEyMzy8yoxHXMsMqwVYIJ0gruEN3xNt2odixlS2qYhfjwEz824qod2BW7ol/yWVlcX7/Fw3pDNORxX3uL1V8Ml/j6DftHOle+vtr+O8QnUWHI9/J5X/k68TX8xmGj9z/2UHofu4oOw/cCfI+uIFW+L5xDJwpAw/5Hkiu9WbNx2yGzzL3+jr2j5kFGpsoKPaY2ADcQdX5lSgwDAyhbPb0fRXM121DJ0RFLYJJqwFiDCmNMwhRL8ssgvHpsYHoWIjB6TYvSxKWagNh5ynRMWyt0ovDurqX1WUAp69vaMWVXyfzdRN4Rm30fzuZwMhLeV4xEzQrnzXn5mfr5oyvuGPFWIbYOPyStrA+D/wBibUVV9Zv8Ra8J9MvJNVew6vxGJ0lO52MsTRfZHzHDhFAtcnmEUGzHVV5uGsLSTpVHop1vhgQ80KZ02mpltIztj6TJ6FIZyiLYYwrGS0BEFamO4slzAEkZDZqairzDN0jZs+ZdUI/y0Y+EMHFkpbkVejM+j8a79EIaQ14p8wdwD9b+tQS51KwIpTkXGFK1b6/wRwOxV4vNSvCyTeen9QK5Og6p39plvJxT35hBanH/AHMsOU7xcA06PUdDJmsGVAW/aWGJKGZStBj4hIAfSC/UQldC/SQy6xrmTESZYjehLTHpW5mYDNLKJZCAjBfZLp1E8wz1FhrdGXpplq+3MYpi1YX5/wCEWsG+4HPg4njsLxuDQUAfRK0DLzKOIYHJftDW5B8B/wCzNJ+irH9k5ccpsdP6zKWZJP4TQlPkT8MDYF4E6dK+X4mR414Pe1nsxxeBlW5wyn5GCGppbxKloYAjZZUzWtcMBMgomPeIK9MEbjohxpiPQ4hGaXkshNSW2QRom6heeaiDXR3EByXEol9Znh9QInLMgTEkLHGR+SN54L5YZj4hAItbgQkBIi8hHJsOz9ic73Xa2fHECZbDvndx3u9tf4PaPrExyo3V56eJnFnf7nM7F769mOYNwPHU3aar5luyZwLPaAQ7lrxc1BIi7QkgvXC4LG6EMRoEJe5VLCJjlUolkrWCZi/qHIFAksn0dUSRZCamkOEaRfSAewWugD83DeFgEqBpApBFDYYgAQCswi/kIsyvLgDuGmsvQNDAbA/MoHU/7pZiKawtNSksYcRDnpcEvIV8wu6mk0LBXzBLEwzwKyfbFrlHBwPQ8a9QQpVzGMpCDMpVAoZn0eRC6oWLIywCBIwkGkJsRSjEwDv0+BibRkh81zARwI5wmJegw5h0BqHyWfUH2UHsIqwaQMKQWYAvAlDzuhg1guIOHhnCF1nmkf7nmHPeJQXTQhcukIeLDdQkE2vusH3C4YZT2NPuPqyCWuBdSxtuZ7ciYEsYyKGeklRAWMPRWpeAoMTkiOkLKoRQWi8vpihR6AB6GB4lIQsMqwDTpAtcJddiKtjJjdyKO4MP2SDIqkJeO7xzLPzPQBd2+JdqFwIt4O5thTNlNjRlcHlYzZn1+Jm27gY5JQzShSKzBtvObmMkzRQbglyw4lDAdwGo0gF77/8Akvt+I4sEeiEmCvpikpdIarcriXcTegVCIpORATUuCkovGZuIzHpqkwRpzlgYZemX+kESzplKWKAlxggBI6uwgDaLzAZUy+Y1cLbJTpjw5Dpxk3VYtIcMrPPd2AyJWGLvK0r5Rw558JmVQGG2YbVY+EVctfX4Zdvz6Ks0jVR5gfARF9GoUMONPm8fbE3QGnvKpY1UJcplWjzNp4H5D7jQcCXr0gKmTOLSUbtBa853L1KmZpwmDFtmhESDD0WB1sEm1yp6EFuWMKmDrZS2F8KIZWDlHWbuC9icPqc9IUyDWF/ot71LRogu9li4wNHp4xQfWZfODi7r8Hepgg1YAmM9JyRpp9tdL5Ur2HUdXCPhHvpL84i1zAhQ+IzY8XMJWeC1Zx+JWmHiCxSoSUAH6GyvhxLCIFTASEMwKY/NOmXKEBJm4OWLGGWSiYWTMXmiOsFxqeIlfIPImee0o9UsyXN1QykFfMrGIw8F7ByAplGRXyIDYJyrYwtFvynkYwNlfwBv4du5jou2xVpusomBC3uGAygl5hMPycRQlHlhLhTk37wAojC5HqYk5YHrG5mlNwynaeompOQ9gkuUnI6JuKNrKRsffALcIcLOoluJceSE5IhjFPvlkhyqjPFKVcGFG5hj6BcSpLiaHRLfMswbCPc0KSdIkuk1HrbhZsUORK+ZFaoQX5YK4bdalEhsvGzijXzBWowry4hDzwsczILSYd2lwyjC17y2Ub+DvPMyeD+4ncKtdEsJiCDKYBdhVQD/AMBEPDNj4X+H3AFHsbIFmVvn9ExnHUEcnUvbaURF3RulG8vAFoUeBWJUiKnd6eAfQjsMsMkI0kErxlxHo8QkwjXkiYMmZHVcSjCWzbxvJMYzJwSS0O0owUwVUtUoFyHQHvMBsksBb+5g5HBZ99S4HuRzkv13Nr4IfOJlo+UYgpTwGWfzEBoExKhujUZtLvIl9PcsBNJq0yOFH/B5hfNDDxT5i9eBQPliHjlL70kM8zHzK/ZDM+yBOQoQPKJxwWIcM8PvDZwuska61DYVhlqYGhgiEaRrqjMBs2Z4VBu6QlyoTRqa7CdyxgM0Js1QsNJXqRMAXOI98YMohWWANrxiGUvsCiD3qoHeBLG5XoOU24e6E9qveXl8RzmhgP3GCOGXleYZ5BbqCtr4Ix9C70HgDRxvbM2VY8f+xUMK28vIlw0l41UoS47heM183Z/Mpdr/AClPI1EPdDFko6A57EGJS4E1izoUyxCOJ45U0GMRAiUQYQW02l6uYm3iI1isvWCRTbDHud4la7MzvBFdZXDdhOoY26lLys76Z0A+gctWMY/agZdlFVRlGPiXlVAK6RtmYHD3SODn6LNW4uisbFtyW8Gji/Bwd5jokdvfvAFqccXAsRn1EXwvXxsfqp7Ms/G4hYyCjxGK0GLN348S/VEik4VLhU1LMs7YlThHA6Sm0jZNzLJCTRMxjLkFzCIP1I5esohDtwMgqVHlVRu4RVMkyoUy/wB2qi8uhaQLnL6cCmQXGI+CXmFONeIAHRAxI0UmijU34JeZPccG5aorCtONe8xhpHQAygRzTVhHlO6NrqIBLPkInB0HWYzcB8/uy2pcBp/uALoQqo0ULXOV/wBKvaxmeKByfzDLfD+Ja/DXu9TIIKs4SGfAJhsbT9RBmdJThtCwQmCzQFIrbAlWEUuYWEVYg2xsIEwjagwAz6SXHG9FxrcszkIW2XicWrGZnJ400YrlVTKkAEDI3OBKlQjwNxlEfOoxek8Ftl+aP+RnKcYh+VQfMXIQNqrgAyyz7xHD+cB+eWIeYPnQEcWd62vRHCypxtf+zMQscV+Js+Wv0RA2HJ4R/udRpr7kTf8AHmEowp13LadGO/kj1fYBbrTXiEgdrggPJKFAZfMwz0csXGFE0EtJAuAhyARDV5QSjqDGILjdRCBsMoBALqMXtH61yoyhgqVGqgdxChR6DKMoSQthv/dX+pUeKs0atXsCyq11yQavy7fLEzccV2eJWGGuT5E/4DEAVDg5Z/yo+iEeITlGVYq6PNTd1WHlmo59rxGvgPLA/cRvc/NfiHBorkhHWVXUtjYv+IJxc+Y3pCcRX0CpU92hGVdimeoAzBlQWRFyoDJUaOUNscYgaEz2WBCtRMKGIRSxMgwgYYlFNUjSOK0ilC5Q3mK/AD3dxvwj+d/L+aK+H3a9/wBR2MigsF5e6aONzlMzeam1eWG8xyvA7mjkor+ZVIzvFmiD9hg4AmMbBy28sPTLzXK+0YqIk2WbuuJemtJgt1+ZfADmphexNaDrcJ9hlWs5IHCn+x5lTRm3MNmRGMG04IWDUzDifEx2JZogoSpIgLGmGQekACuZhIBOFIghiAhQbgWeihhM1dS3HUorgDxGPQF/1FmY7XRynwZY8bGxdfN6LWnz4mX1B8O4Xny+Id805U7y/ubBtkxVXuN+Zr4CCBMIOYTQuBx6uXZF8hrHbKvzGSn36jFQsevBGIYh+uIR6F47WXFQYCDS4X2q59nMfJ9xwxCCZzGCDzoiOHmKLhINlmgjrINl4wULLAuyN+yAhwjA8UKlQ4IkB5iXKmWm4AhJIb8JjO2USBYuhrus/uoKCYgGkVt1RZ6WVaDoeFtqDuhfv2n9c/1G65dSvkR4CahssbDgnt6L7hk4cjFjGPCNUNY9iI4W5+Y1unM0mv4XL6Qb94Y8jP4j3LK4mst/5oiZiK0m2wgNoow4jV6BNpZcFyACJRqkFtFwfULSyFoPoBuOZdEvmZy8uEV5l6EVsHXklz0Ku43eIv2+ZY++4cGPCOfk63RDvwft7wUA48zTnO/o+44frbeIyxhDirh47ZcIOsaA1K20GKOpfWGSuoa1XkO45MAWwzWViVXlD4p2+J7zDbw/EfNC1FQakWzCpfEEp3MMh3uJlsgkZDAZQsCxe4MgMzhmhwRxYRBM0dwajBWXRs7hRQ5gBFPh/wBiZM8xpvuVD6I9Xy+Yp0aPPvD972rqUdeQOjgn6zkuv7l5QX1cggNHGDAe8TXF2zsUZeIXyOY0+X32atXt81mI4Di+pcY6Ep9jUqtb9sojDHcAECWjFx+UsxoSzXEYCPPGojQRFkJYIGpr0IwKUIlyC3NICznhBAXDhqXUtEFmYxM0e8TZ+jo4mIkyGnBmgO0/UHiLZtYWB6BqZQ1hFTRTzuVd3+0aShWzg2/iO8AaA8ajV8IXo4PmAFlkGvg6lGwG/LL4TjzBMRRnt2xr+BLS5m2EjjPhCYKFjXZlcymCsNxLhK4Eoa5nFZEchsuIQLiGqOWPSo5ET6QEINMIUawISATNiNUfQtTCU5h9AughVrW4OeX9TvCfjGCW+SLy7mqo0sDvUv2OZqUyC9+JfYa/NDRGB/8ABCXwbPi1+iNurb2HUrNaaYDUHDhH/wBZmOjXOgIIemVKX2mWCW7P6QG6IUf5zMvF3ObZBxZbGfApH5ENaIpQEtB9VL0ujEDyMsMKUQFnpQ1IQhh+IeKAUShEcRVYjX6Uz9FRdfQVCkpf9gamxIt8vBGvNmvEctBeYo5iL4iF7L58sVdWAlT6MTU9L+TJm56iC2LL0KxHN2eL4hxkewlTYmiBnRcv+IHf1KqMPl5mO6BzXfiDWqDjM2eGpb0obcJWvlFcpDDwiRh8pGM9AQnPM6C9BC42hV6FeVQlZjekHcQlPEDJUCYQ0UjQk6BuY3kcgSozdNXLz7Ew/wDZeX5lZhWr3/5Er0r4pqlo+e1jbYE4zwZ/QW8meBiSnqFt7csVsm5/qV26sQtqDvlYAhSlr24hrRTN9/8As802QZx2Lw9zJfT6e4l24rMMe8VMaJAAIru0GGJzo2fvKIQqh3ymWhYSMOYZiVOkp7gIiks0OYIYiDT3EDftDRlxJUxUxJxN2ouljxD2Fy5n1RFdRDAwnmIeZcAQHgWfJlwm+YSDbGJ+8wjlFofyzIkAvsMSbQrEw43dPTUAXC4JV8HTUclJbf18Td/lO46glpUL/wBkE2Vx7QQ3TNBMXp+YDZquWjD3i1XUKlwgGSSbxGIAPEu1YQ4nKMCMRrsoCYmAMPRAiYS8vE4eCXbkXcZRRVsJbg7npRKGDQSngqvA8EV5Cye/EOMwJc/4LcZVlstzUxvOIp5TbHNi2EIH57qWS2n5cEKRo92eI8m5dxXFDdQdCZUwvxL0cfd1mD0tu4+WIahH0EGzRL+4wGHtuD8B9pUM1oD7xnE+GPfolPQE14kElKm6OxCGyJ5ZcidavhntFHJ9kdeZ/wBxUSpJlC8QWIQaWVcwmGZgRNc0Sowe5XW4XsXB3onlXv2Im4Ll2xWllW3yy77Cu3ghl3KFRYHlmbhBj+Jj2HJPfy8AXHvSxtsh+WIdmf8AEIsVguM9Bz/iOugLazDcBv8AEDUFt9uD4jN0dIVaymfFxqFMo2OWZ0qoH2An3MDmP+Y3gRDmL9PoSZ0ZuI5KKHuwxyFpKrPltgWy8E8ly8/x+JmzOShftr6ZdmfO/wAm4pwgpcAxm9kKmE5ClgxZOoh7hnKrYQyiIXkfATeGa0i4JS5DAhN0blGpmwHnuOxYsasSpm0Fb+tQxnLLA6lX+ZdmU7Eb6xEbhtVuY24EQGeFmOqhlsIx17fdRFKBddvEISKkRaqpa4cwPfuo5uTECg4t+8Z6T+oVnDDsWMVjYhZdE8VQeonoLVOXB91qVOAG4UeSJYHTIz4h4x3mV+vxAmFgmh5GufiAZL3D/ku3xF/n3MxU60w6gJwwEm5UExORjWelb7cU5CtIozhwkVeATgMy4vy+Wcgjl/moAeZvfccYX9xYdiFypJNXUGiAZZS5BE2IbfMsGX5wHzKzGfcRtolql7xbz8TuA8Y/8lRGDeeTxEWgLx3HeIprzUeIsHD+Y1Bky13GK0FX/KKwazeYvWbXRV74zC1IeJT9mO3XjHwSB5WXAmhmM/0EfqPevaTgig6nf6iFWIgucr/LZKKiWSDXI6fZByliQteVdOFr2m7GC5FvAmZkYdOX5IY4PXP/AGKdBOGO6iJmNlBO0mWzE+JcYb9KrawTIQHBKaL6IfYTXR8QXtZfEY+M7WKbFozNbTQlHWWFOhzH/mhg82Hghq2uFEZRHKLW/JcqqosXFS0zcOh0XXvLDiJcex8HdcQT/Rdx2tywlNh5dRWKaYPHcTyfcdDBuyGigxZwuP4i9M/C/MslJ7o3uBwootnD/wBQiuOzGPmJnK1FAKe2Zjq2rA/YX4YYFVBIsJahHMqB5oC1gFauMDjKF3awfaKRMVLQ4wW+SKuVM/gfYzrHQ8rn4JVcdaPniKQw6fwH8JZHHgwPiD0HxASgThncRnxb0jJeESj2i24A0NmLuYfJ8dEeUZrK4RQuPDGxkD/mPhdcicjIGbNsQmOurSFx0RnIAFqXZFNqJZGgUQH6QizIY/xHJ71c15lR5BO+oVSbB/MPbP2ZlAzb3/24QBTFJ/DA0NEC/K+fzLhdy9fLcJRgznrU1cOggJZaDosewqW7VV7bYpYogCvJZftUF+VB9OIYtPNVTPkVfvHv7kztjuZ2uxvyM8KsDYHgNXV1eIBzbmUoU3QKN8XqPIaNJgidwOWw9FZFMoGjnxNlIxQ3T0bamDQlArxkM/Mra3tz+5v4dWw64WOAtVbOoDY8y553BqHtmUGmxR1WH7geJefaJYy49cfjmEdcqlrBmPeK5pxOX7F2oQCrmWIBtzEmxHgx5lB8sP8AqwFS9p22f3B/4HMozpOJo4H2wlHC/HtK8cFfOpkob292pZ7iLVaL6hO3EA+J2pgOZRfmcLMSQfUNXTtzDW4XsNuqjzwjYfiP6Xmz8RvLdYxxgZ4BPKNUjbhUt5VSUZgjQVRyZLM0+IzqjKoS5tosXWdPEXE84y3y/hNdgpReth9MWjUCgbjk0PJbeJToKdlPibeanpeCsuaDGWE65GA3ovvwxhkQ12e63MAP4b/kGmI4zCMQ3mLJkcxRdqFYu5nM0OnPmLEln3eYsVS8mz3JohcVQPMDNPFuBiAteDucDsENytfbLCHcG3CKJst38I0GRxYoyYN/ctbFlUTKs5f6hByrhDMAdcsS4Iv9kwbnmInRin+YZ6jjz3M1B2hAcUmUYf7G5hTlAkCBklgGZPBMF4hDKeo8ZD4YKAWYqrdZujGarEzfHeY+9RVAW/T4m+xDRS1agllnDhKZm81pQB4H/kvkRSRK9mHhNzyedfqmGTDACPhFbw0ZzmWOXc1NMMSIQi/mnJ8xk2Mc8cSrhrtarC33YVnXK+o/yVROWlRlXCGMK0YTzXAwrAOR2ko/M3PxdRScz2Rzl+UH2oeMxrtFMKIewo+rhDYsbH2TGK7eR4JVoMacRAdzL7cxjiyBWXuqXXDH2VYJa+6qKp2/7EFZn8VKYc3p6TOJu+dekJ+AQIiGMtpwNF2OWoyj9zzqW8JR0gonHMuKVeGBCJuFWb83HXdmDHkTk5jcIiSsi6ZxH78qyjOgi5NMp7FKFYCvh3xGTjQDG5T66gJw1pliZXEu40CrfnGlyzmJpFxyTpjACAzBonqjLWQpdx4TNwCPNo+8SqXhtceIXeJfIzgIQWbrcuhtXem2VVj3tuYiRup1zc+BrpTz+ZrGi1UjuFNj9Q06FpOmFq4VUStR251OJzkeyHrx1MbQRWouBkg8BP3MlvuuXH0EAfqM7Of4m85GI4XmIfbgWPMwoj3mgD/W4eLCaDwlU4noATdQVD0vDzGboGg+18w5QOaBPcY4WOLXD9LsW/QywOUNf7I84Kwhv4jYtYhHZBuhJcKvbcwZPPMH+Cmf1CLN/wBcS6o9v6oRaU6b9E3PnzPahRAOSnZoBI8qW+8T6yVDCNTQ0m718wtalND7RorKxbCLFw89QeZ8w0EADPlLnNpjeY4gDO9XxGxG1fZcTymlUej9k4lHmCGUuYT2MS7wSu3lDFlL3MS+BiqHZ09IANCzHCJeybBB6hg74EwHgujZ4NRIC0Gx75IWd8YW2PEoxgHcCiobPUP5YA1tgVmON3FuYKVkfklEUtZ/riY4y8P6oJsL/HU049j+prV7CUYKICp9iFd7TBRZSvkROuPw/OYvVTwo17P9yw9hyPxcPIaRtLcQXOVuWOx1HQKLL+eIV9PyzegBO8SkwOHUwyJUHSwsHEQ3D0qLC34SzSkUIKYzKBWNCQ2HBjBRggDnL+i6NDj+E8e8EnAI0zlkCcPZA+96s+mpnzIZsW9KGqBTvRlpDVMu4bCMo7hRAXbLDEWOOCUqquMoEqXCrMqFcwrI3hinCbLm6r+4Xj3KfjUGAi6Gg9qgNCadE6uKs714j3CLryEmsJVfIdkdQHwvuAM1luK5g7o+YfFB4YJRmzo6j3MVgLQCW4YV4ubhd9QWyFooXbFL+Ix7iBMGOo2FPX8vuMnRNbK2fMwpmjaveDMF6Pp0yklg6lDyxSooAiQdBAtECQIGt+J7oZw0mO1m47TKzPcZkPTFCCBcoywxRGYVKJYTGs9fB19s4R9J4Z3vI/E1enczHGaGFEbeXDhGu1Hl/SFlzBuXuaaOXcZP1BrwJcQy3lLXMoNoBq/9ofEaFhXH9zF8V+kpqQPmo1bgzfY2MZnDnJY66+IpbGMJBsK8BZ7m5gMkV8W4Mta9AAd8S9ihubkcalMbTfMxjZt0JomE39kUr0AJQ5leYVfEyWfSOD4Jeutv+Jsy5uGY1EmOZxhULT0zRYzKwGUOlq58A0RWkdKPExRmsEyR7x3iRT4MssXPvksYVo35YVjKfuEnZol64m4/eIKo9z2pP3iFqBcW1jxiWCBwKdH4UP3SOjz/ANiZ/EKKjgvyZ/Ec2xl3Hdxn6RisTfcUOeYEw3jeYmR0YyGgIWlIXMFsqPzpLk8HxLYKjSafMYDjcQeP9h6DMT//2Q==;clipPath=inset(0% 0.67% 32.33% 30% round 50%);" vertex="1" parent="1">
                    <mxGeometry x="757" y="112" width="421.12" height="411" as="geometry"/>
                </mxCell>
            </root>
        </mxGraphModel>
    </diagram>
</mxfile>